G04 #@! TF.GenerationSoftware,KiCad,Pcbnew,(5.1.4)-1*
G04 #@! TF.CreationDate,2019-11-03T13:42:45-08:00*
G04 #@! TF.ProjectId,Tandy 1000 EX Memory Card,54616e64-7920-4313-9030-30204558204d,rev?*
G04 #@! TF.SameCoordinates,Original*
G04 #@! TF.FileFunction,Legend,Bot*
G04 #@! TF.FilePolarity,Positive*
%FSLAX46Y46*%
G04 Gerber Fmt 4.6, Leading zero omitted, Abs format (unit mm)*
G04 Created by KiCad (PCBNEW (5.1.4)-1) date 2019-11-03 13:42:45*
%MOMM*%
%LPD*%
G04 APERTURE LIST*
%ADD10C,0.250000*%
%ADD11C,0.120000*%
G04 APERTURE END LIST*
D10*
X147037619Y-129837976D02*
X147513809Y-130171309D01*
X147037619Y-130409404D02*
X148037619Y-130409404D01*
X148037619Y-130028452D01*
X147990000Y-129933214D01*
X147942380Y-129885595D01*
X147847142Y-129837976D01*
X147704285Y-129837976D01*
X147609047Y-129885595D01*
X147561428Y-129933214D01*
X147513809Y-130028452D01*
X147513809Y-130409404D01*
X147323333Y-129457023D02*
X147323333Y-128980833D01*
X147037619Y-129552261D02*
X148037619Y-129218928D01*
X147037619Y-128885595D01*
X147037619Y-128552261D02*
X148037619Y-128552261D01*
X147323333Y-128218928D01*
X148037619Y-127885595D01*
X147037619Y-127885595D01*
X147037619Y-126647500D02*
X148037619Y-126647500D01*
X147323333Y-126314166D01*
X148037619Y-125980833D01*
X147037619Y-125980833D01*
X147037619Y-125076071D02*
X147561428Y-125076071D01*
X147656666Y-125123690D01*
X147704285Y-125218928D01*
X147704285Y-125409404D01*
X147656666Y-125504642D01*
X147085238Y-125076071D02*
X147037619Y-125171309D01*
X147037619Y-125409404D01*
X147085238Y-125504642D01*
X147180476Y-125552261D01*
X147275714Y-125552261D01*
X147370952Y-125504642D01*
X147418571Y-125409404D01*
X147418571Y-125171309D01*
X147466190Y-125076071D01*
X147704285Y-124599880D02*
X146704285Y-124599880D01*
X147656666Y-124599880D02*
X147704285Y-124504642D01*
X147704285Y-124314166D01*
X147656666Y-124218928D01*
X147609047Y-124171309D01*
X147513809Y-124123690D01*
X147228095Y-124123690D01*
X147132857Y-124171309D01*
X147085238Y-124218928D01*
X147037619Y-124314166D01*
X147037619Y-124504642D01*
X147085238Y-124599880D01*
X147704285Y-123695119D02*
X146704285Y-123695119D01*
X147656666Y-123695119D02*
X147704285Y-123599880D01*
X147704285Y-123409404D01*
X147656666Y-123314166D01*
X147609047Y-123266547D01*
X147513809Y-123218928D01*
X147228095Y-123218928D01*
X147132857Y-123266547D01*
X147085238Y-123314166D01*
X147037619Y-123409404D01*
X147037619Y-123599880D01*
X147085238Y-123695119D01*
X147037619Y-122790357D02*
X147704285Y-122790357D01*
X148037619Y-122790357D02*
X147990000Y-122837976D01*
X147942380Y-122790357D01*
X147990000Y-122742738D01*
X148037619Y-122790357D01*
X147942380Y-122790357D01*
X147704285Y-122314166D02*
X147037619Y-122314166D01*
X147609047Y-122314166D02*
X147656666Y-122266547D01*
X147704285Y-122171309D01*
X147704285Y-122028452D01*
X147656666Y-121933214D01*
X147561428Y-121885595D01*
X147037619Y-121885595D01*
X147704285Y-120980833D02*
X146894761Y-120980833D01*
X146799523Y-121028452D01*
X146751904Y-121076071D01*
X146704285Y-121171309D01*
X146704285Y-121314166D01*
X146751904Y-121409404D01*
X147085238Y-120980833D02*
X147037619Y-121076071D01*
X147037619Y-121266547D01*
X147085238Y-121361785D01*
X147132857Y-121409404D01*
X147228095Y-121457023D01*
X147513809Y-121457023D01*
X147609047Y-121409404D01*
X147656666Y-121361785D01*
X147704285Y-121266547D01*
X147704285Y-121076071D01*
X147656666Y-120980833D01*
X145287619Y-130409404D02*
X146287619Y-130409404D01*
X146287619Y-130028452D01*
X146240000Y-129933214D01*
X146192380Y-129885595D01*
X146097142Y-129837976D01*
X145954285Y-129837976D01*
X145859047Y-129885595D01*
X145811428Y-129933214D01*
X145763809Y-130028452D01*
X145763809Y-130409404D01*
X145287619Y-129409404D02*
X145954285Y-129409404D01*
X145763809Y-129409404D02*
X145859047Y-129361785D01*
X145906666Y-129314166D01*
X145954285Y-129218928D01*
X145954285Y-129123690D01*
X145287619Y-128790357D02*
X145954285Y-128790357D01*
X146287619Y-128790357D02*
X146240000Y-128837976D01*
X146192380Y-128790357D01*
X146240000Y-128742738D01*
X146287619Y-128790357D01*
X146192380Y-128790357D01*
X145287619Y-128314166D02*
X145954285Y-128314166D01*
X145859047Y-128314166D02*
X145906666Y-128266547D01*
X145954285Y-128171309D01*
X145954285Y-128028452D01*
X145906666Y-127933214D01*
X145811428Y-127885595D01*
X145287619Y-127885595D01*
X145811428Y-127885595D02*
X145906666Y-127837976D01*
X145954285Y-127742738D01*
X145954285Y-127599880D01*
X145906666Y-127504642D01*
X145811428Y-127457023D01*
X145287619Y-127457023D01*
X145287619Y-126552261D02*
X145811428Y-126552261D01*
X145906666Y-126599880D01*
X145954285Y-126695119D01*
X145954285Y-126885595D01*
X145906666Y-126980833D01*
X145335238Y-126552261D02*
X145287619Y-126647500D01*
X145287619Y-126885595D01*
X145335238Y-126980833D01*
X145430476Y-127028452D01*
X145525714Y-127028452D01*
X145620952Y-126980833D01*
X145668571Y-126885595D01*
X145668571Y-126647500D01*
X145716190Y-126552261D01*
X145287619Y-126076071D02*
X145954285Y-126076071D01*
X145763809Y-126076071D02*
X145859047Y-126028452D01*
X145906666Y-125980833D01*
X145954285Y-125885595D01*
X145954285Y-125790357D01*
X145954285Y-125552261D02*
X145287619Y-125314166D01*
X145954285Y-125076071D02*
X145287619Y-125314166D01*
X145049523Y-125409404D01*
X145001904Y-125457023D01*
X144954285Y-125552261D01*
X145335238Y-123980833D02*
X145287619Y-123837976D01*
X145287619Y-123599880D01*
X145335238Y-123504642D01*
X145382857Y-123457023D01*
X145478095Y-123409404D01*
X145573333Y-123409404D01*
X145668571Y-123457023D01*
X145716190Y-123504642D01*
X145763809Y-123599880D01*
X145811428Y-123790357D01*
X145859047Y-123885595D01*
X145906666Y-123933214D01*
X146001904Y-123980833D01*
X146097142Y-123980833D01*
X146192380Y-123933214D01*
X146240000Y-123885595D01*
X146287619Y-123790357D01*
X146287619Y-123552261D01*
X146240000Y-123409404D01*
X145287619Y-122409404D02*
X145763809Y-122742738D01*
X145287619Y-122980833D02*
X146287619Y-122980833D01*
X146287619Y-122599880D01*
X146240000Y-122504642D01*
X146192380Y-122457023D01*
X146097142Y-122409404D01*
X145954285Y-122409404D01*
X145859047Y-122457023D01*
X145811428Y-122504642D01*
X145763809Y-122599880D01*
X145763809Y-122980833D01*
X145573333Y-122028452D02*
X145573333Y-121552261D01*
X145287619Y-122123690D02*
X146287619Y-121790357D01*
X145287619Y-121457023D01*
X145287619Y-121123690D02*
X146287619Y-121123690D01*
X145573333Y-120790357D01*
X146287619Y-120457023D01*
X145287619Y-120457023D01*
X144537619Y-130218928D02*
X144537619Y-130123690D01*
X144490000Y-130028452D01*
X144442380Y-129980833D01*
X144347142Y-129933214D01*
X144156666Y-129885595D01*
X143918571Y-129885595D01*
X143728095Y-129933214D01*
X143632857Y-129980833D01*
X143585238Y-130028452D01*
X143537619Y-130123690D01*
X143537619Y-130218928D01*
X143585238Y-130314166D01*
X143632857Y-130361785D01*
X143728095Y-130409404D01*
X143918571Y-130457023D01*
X144156666Y-130457023D01*
X144347142Y-130409404D01*
X144442380Y-130361785D01*
X144490000Y-130314166D01*
X144537619Y-130218928D01*
X143537619Y-129457023D02*
X144537619Y-129457023D01*
X143918571Y-129361785D02*
X143537619Y-129076071D01*
X144204285Y-129076071D02*
X143823333Y-129457023D01*
X143918571Y-127885595D02*
X143918571Y-127123690D01*
X144537619Y-125980833D02*
X144537619Y-125361785D01*
X144156666Y-125695119D01*
X144156666Y-125552261D01*
X144109047Y-125457023D01*
X144061428Y-125409404D01*
X143966190Y-125361785D01*
X143728095Y-125361785D01*
X143632857Y-125409404D01*
X143585238Y-125457023D01*
X143537619Y-125552261D01*
X143537619Y-125837976D01*
X143585238Y-125933214D01*
X143632857Y-125980833D01*
X144109047Y-124790357D02*
X144156666Y-124885595D01*
X144204285Y-124933214D01*
X144299523Y-124980833D01*
X144347142Y-124980833D01*
X144442380Y-124933214D01*
X144490000Y-124885595D01*
X144537619Y-124790357D01*
X144537619Y-124599880D01*
X144490000Y-124504642D01*
X144442380Y-124457023D01*
X144347142Y-124409404D01*
X144299523Y-124409404D01*
X144204285Y-124457023D01*
X144156666Y-124504642D01*
X144109047Y-124599880D01*
X144109047Y-124790357D01*
X144061428Y-124885595D01*
X144013809Y-124933214D01*
X143918571Y-124980833D01*
X143728095Y-124980833D01*
X143632857Y-124933214D01*
X143585238Y-124885595D01*
X143537619Y-124790357D01*
X143537619Y-124599880D01*
X143585238Y-124504642D01*
X143632857Y-124457023D01*
X143728095Y-124409404D01*
X143918571Y-124409404D01*
X144013809Y-124457023D01*
X144061428Y-124504642D01*
X144109047Y-124599880D01*
X144204285Y-123552261D02*
X143537619Y-123552261D01*
X144585238Y-123790357D02*
X143870952Y-124028452D01*
X143870952Y-123409404D01*
X143537619Y-123028452D02*
X144537619Y-123028452D01*
X143918571Y-122933214D02*
X143537619Y-122647500D01*
X144204285Y-122647500D02*
X143823333Y-123028452D01*
X143156666Y-121171309D02*
X143204285Y-121218928D01*
X143347142Y-121314166D01*
X143442380Y-121361785D01*
X143585238Y-121409404D01*
X143823333Y-121457023D01*
X144013809Y-121457023D01*
X144251904Y-121409404D01*
X144394761Y-121361785D01*
X144490000Y-121314166D01*
X144632857Y-121218928D01*
X144680476Y-121171309D01*
X144537619Y-120599880D02*
X144537619Y-120504642D01*
X144490000Y-120409404D01*
X144442380Y-120361785D01*
X144347142Y-120314166D01*
X144156666Y-120266547D01*
X143918571Y-120266547D01*
X143728095Y-120314166D01*
X143632857Y-120361785D01*
X143585238Y-120409404D01*
X143537619Y-120504642D01*
X143537619Y-120599880D01*
X143585238Y-120695119D01*
X143632857Y-120742738D01*
X143728095Y-120790357D01*
X143918571Y-120837976D01*
X144156666Y-120837976D01*
X144347142Y-120790357D01*
X144442380Y-120742738D01*
X144490000Y-120695119D01*
X144537619Y-120599880D01*
X144537619Y-119647500D02*
X144537619Y-119552261D01*
X144490000Y-119457023D01*
X144442380Y-119409404D01*
X144347142Y-119361785D01*
X144156666Y-119314166D01*
X143918571Y-119314166D01*
X143728095Y-119361785D01*
X143632857Y-119409404D01*
X143585238Y-119457023D01*
X143537619Y-119552261D01*
X143537619Y-119647500D01*
X143585238Y-119742738D01*
X143632857Y-119790357D01*
X143728095Y-119837976D01*
X143918571Y-119885595D01*
X144156666Y-119885595D01*
X144347142Y-119837976D01*
X144442380Y-119790357D01*
X144490000Y-119742738D01*
X144537619Y-119647500D01*
X144537619Y-118695119D02*
X144537619Y-118599880D01*
X144490000Y-118504642D01*
X144442380Y-118457023D01*
X144347142Y-118409404D01*
X144156666Y-118361785D01*
X143918571Y-118361785D01*
X143728095Y-118409404D01*
X143632857Y-118457023D01*
X143585238Y-118504642D01*
X143537619Y-118599880D01*
X143537619Y-118695119D01*
X143585238Y-118790357D01*
X143632857Y-118837976D01*
X143728095Y-118885595D01*
X143918571Y-118933214D01*
X144156666Y-118933214D01*
X144347142Y-118885595D01*
X144442380Y-118837976D01*
X144490000Y-118790357D01*
X144537619Y-118695119D01*
X144537619Y-117742738D02*
X144537619Y-117647500D01*
X144490000Y-117552261D01*
X144442380Y-117504642D01*
X144347142Y-117457023D01*
X144156666Y-117409404D01*
X143918571Y-117409404D01*
X143728095Y-117457023D01*
X143632857Y-117504642D01*
X143585238Y-117552261D01*
X143537619Y-117647500D01*
X143537619Y-117742738D01*
X143585238Y-117837976D01*
X143632857Y-117885595D01*
X143728095Y-117933214D01*
X143918571Y-117980833D01*
X144156666Y-117980833D01*
X144347142Y-117933214D01*
X144442380Y-117885595D01*
X144490000Y-117837976D01*
X144537619Y-117742738D01*
X144537619Y-116790357D02*
X144537619Y-116695119D01*
X144490000Y-116599880D01*
X144442380Y-116552261D01*
X144347142Y-116504642D01*
X144156666Y-116457023D01*
X143918571Y-116457023D01*
X143728095Y-116504642D01*
X143632857Y-116552261D01*
X143585238Y-116599880D01*
X143537619Y-116695119D01*
X143537619Y-116790357D01*
X143585238Y-116885595D01*
X143632857Y-116933214D01*
X143728095Y-116980833D01*
X143918571Y-117028452D01*
X144156666Y-117028452D01*
X144347142Y-116980833D01*
X144442380Y-116933214D01*
X144490000Y-116885595D01*
X144537619Y-116790357D01*
X143537619Y-116028452D02*
X144537619Y-116028452D01*
X143537619Y-115599880D02*
X144061428Y-115599880D01*
X144156666Y-115647500D01*
X144204285Y-115742738D01*
X144204285Y-115885595D01*
X144156666Y-115980833D01*
X144109047Y-116028452D01*
X143918571Y-114361785D02*
X143918571Y-113599880D01*
X144537619Y-111885595D02*
X144537619Y-112361785D01*
X144061428Y-112409404D01*
X144109047Y-112361785D01*
X144156666Y-112266547D01*
X144156666Y-112028452D01*
X144109047Y-111933214D01*
X144061428Y-111885595D01*
X143966190Y-111837976D01*
X143728095Y-111837976D01*
X143632857Y-111885595D01*
X143585238Y-111933214D01*
X143537619Y-112028452D01*
X143537619Y-112266547D01*
X143585238Y-112361785D01*
X143632857Y-112409404D01*
X144061428Y-111076071D02*
X144061428Y-111409404D01*
X143537619Y-111409404D02*
X144537619Y-111409404D01*
X144537619Y-110933214D01*
X144061428Y-110218928D02*
X144061428Y-110552261D01*
X143537619Y-110552261D02*
X144537619Y-110552261D01*
X144537619Y-110076071D01*
X144061428Y-109361785D02*
X144061428Y-109695119D01*
X143537619Y-109695119D02*
X144537619Y-109695119D01*
X144537619Y-109218928D01*
X144061428Y-108504642D02*
X144061428Y-108837976D01*
X143537619Y-108837976D02*
X144537619Y-108837976D01*
X144537619Y-108361785D01*
X143537619Y-107980833D02*
X144537619Y-107980833D01*
X143537619Y-107552261D02*
X144061428Y-107552261D01*
X144156666Y-107599880D01*
X144204285Y-107695119D01*
X144204285Y-107837976D01*
X144156666Y-107933214D01*
X144109047Y-107980833D01*
X143156666Y-107171309D02*
X143204285Y-107123690D01*
X143347142Y-107028452D01*
X143442380Y-106980833D01*
X143585238Y-106933214D01*
X143823333Y-106885595D01*
X144013809Y-106885595D01*
X144251904Y-106933214D01*
X144394761Y-106980833D01*
X144490000Y-107028452D01*
X144632857Y-107123690D01*
X144680476Y-107171309D01*
X141037619Y-130409404D02*
X140228095Y-130409404D01*
X140132857Y-130361785D01*
X140085238Y-130314166D01*
X140037619Y-130218928D01*
X140037619Y-130028452D01*
X140085238Y-129933214D01*
X140132857Y-129885595D01*
X140228095Y-129837976D01*
X141037619Y-129837976D01*
X140704285Y-129361785D02*
X139704285Y-129361785D01*
X140656666Y-129361785D02*
X140704285Y-129266547D01*
X140704285Y-129076071D01*
X140656666Y-128980833D01*
X140609047Y-128933214D01*
X140513809Y-128885595D01*
X140228095Y-128885595D01*
X140132857Y-128933214D01*
X140085238Y-128980833D01*
X140037619Y-129076071D01*
X140037619Y-129266547D01*
X140085238Y-129361785D01*
X140704285Y-128457023D02*
X139704285Y-128457023D01*
X140656666Y-128457023D02*
X140704285Y-128361785D01*
X140704285Y-128171309D01*
X140656666Y-128076071D01*
X140609047Y-128028452D01*
X140513809Y-127980833D01*
X140228095Y-127980833D01*
X140132857Y-128028452D01*
X140085238Y-128076071D01*
X140037619Y-128171309D01*
X140037619Y-128361785D01*
X140085238Y-128457023D01*
X140085238Y-127171309D02*
X140037619Y-127266547D01*
X140037619Y-127457023D01*
X140085238Y-127552261D01*
X140180476Y-127599880D01*
X140561428Y-127599880D01*
X140656666Y-127552261D01*
X140704285Y-127457023D01*
X140704285Y-127266547D01*
X140656666Y-127171309D01*
X140561428Y-127123690D01*
X140466190Y-127123690D01*
X140370952Y-127599880D01*
X140037619Y-126695119D02*
X140704285Y-126695119D01*
X140513809Y-126695119D02*
X140609047Y-126647500D01*
X140656666Y-126599880D01*
X140704285Y-126504642D01*
X140704285Y-126409404D01*
X139656666Y-125028452D02*
X139704285Y-125076071D01*
X139847142Y-125171309D01*
X139942380Y-125218928D01*
X140085238Y-125266547D01*
X140323333Y-125314166D01*
X140513809Y-125314166D01*
X140751904Y-125266547D01*
X140894761Y-125218928D01*
X140990000Y-125171309D01*
X141132857Y-125076071D01*
X141180476Y-125028452D01*
X141037619Y-124647500D02*
X140228095Y-124647500D01*
X140132857Y-124599880D01*
X140085238Y-124552261D01*
X140037619Y-124457023D01*
X140037619Y-124266547D01*
X140085238Y-124171309D01*
X140132857Y-124123690D01*
X140228095Y-124076071D01*
X141037619Y-124076071D01*
X140037619Y-123599880D02*
X141037619Y-123599880D01*
X140323333Y-123266547D01*
X141037619Y-122933214D01*
X140037619Y-122933214D01*
X140561428Y-122123690D02*
X140513809Y-121980833D01*
X140466190Y-121933214D01*
X140370952Y-121885595D01*
X140228095Y-121885595D01*
X140132857Y-121933214D01*
X140085238Y-121980833D01*
X140037619Y-122076071D01*
X140037619Y-122457023D01*
X141037619Y-122457023D01*
X141037619Y-122123690D01*
X140990000Y-122028452D01*
X140942380Y-121980833D01*
X140847142Y-121933214D01*
X140751904Y-121933214D01*
X140656666Y-121980833D01*
X140609047Y-122028452D01*
X140561428Y-122123690D01*
X140561428Y-122457023D01*
X139656666Y-121552261D02*
X139704285Y-121504642D01*
X139847142Y-121409404D01*
X139942380Y-121361785D01*
X140085238Y-121314166D01*
X140323333Y-121266547D01*
X140513809Y-121266547D01*
X140751904Y-121314166D01*
X140894761Y-121361785D01*
X140990000Y-121409404D01*
X141132857Y-121504642D01*
X141180476Y-121552261D01*
X139287619Y-130123690D02*
X138573333Y-130123690D01*
X138430476Y-130171309D01*
X138335238Y-130266547D01*
X138287619Y-130409404D01*
X138287619Y-130504642D01*
X138287619Y-129647500D02*
X139287619Y-129647500D01*
X139287619Y-129266547D01*
X139240000Y-129171309D01*
X139192380Y-129123690D01*
X139097142Y-129076071D01*
X138954285Y-129076071D01*
X138859047Y-129123690D01*
X138811428Y-129171309D01*
X138763809Y-129266547D01*
X138763809Y-129647500D01*
X139192380Y-128695119D02*
X139240000Y-128647500D01*
X139287619Y-128552261D01*
X139287619Y-128314166D01*
X139240000Y-128218928D01*
X139192380Y-128171309D01*
X139097142Y-128123690D01*
X139001904Y-128123690D01*
X138859047Y-128171309D01*
X138287619Y-128742738D01*
X138287619Y-128123690D01*
X139287619Y-126742738D02*
X139287619Y-126552261D01*
X139240000Y-126457023D01*
X139144761Y-126361785D01*
X138954285Y-126314166D01*
X138620952Y-126314166D01*
X138430476Y-126361785D01*
X138335238Y-126457023D01*
X138287619Y-126552261D01*
X138287619Y-126742738D01*
X138335238Y-126837976D01*
X138430476Y-126933214D01*
X138620952Y-126980833D01*
X138954285Y-126980833D01*
X139144761Y-126933214D01*
X139240000Y-126837976D01*
X139287619Y-126742738D01*
X138811428Y-125552261D02*
X138811428Y-125885595D01*
X138287619Y-125885595D02*
X139287619Y-125885595D01*
X139287619Y-125409404D01*
X138811428Y-124695119D02*
X138811428Y-125028452D01*
X138287619Y-125028452D02*
X139287619Y-125028452D01*
X139287619Y-124552261D01*
X138382857Y-124171309D02*
X138335238Y-124123690D01*
X138287619Y-124171309D01*
X138335238Y-124218928D01*
X138382857Y-124171309D01*
X138287619Y-124171309D01*
X138906666Y-124171309D02*
X138859047Y-124123690D01*
X138811428Y-124171309D01*
X138859047Y-124218928D01*
X138906666Y-124171309D01*
X138811428Y-124171309D01*
X138287619Y-122409404D02*
X138287619Y-122980833D01*
X138287619Y-122695119D02*
X139287619Y-122695119D01*
X139144761Y-122790357D01*
X139049523Y-122885595D01*
X139001904Y-122980833D01*
X139192380Y-122028452D02*
X139240000Y-121980833D01*
X139287619Y-121885595D01*
X139287619Y-121647500D01*
X139240000Y-121552261D01*
X139192380Y-121504642D01*
X139097142Y-121457023D01*
X139001904Y-121457023D01*
X138859047Y-121504642D01*
X138287619Y-122076071D01*
X138287619Y-121457023D01*
X138859047Y-120885595D02*
X138906666Y-120980833D01*
X138954285Y-121028452D01*
X139049523Y-121076071D01*
X139097142Y-121076071D01*
X139192380Y-121028452D01*
X139240000Y-120980833D01*
X139287619Y-120885595D01*
X139287619Y-120695119D01*
X139240000Y-120599880D01*
X139192380Y-120552261D01*
X139097142Y-120504642D01*
X139049523Y-120504642D01*
X138954285Y-120552261D01*
X138906666Y-120599880D01*
X138859047Y-120695119D01*
X138859047Y-120885595D01*
X138811428Y-120980833D01*
X138763809Y-121028452D01*
X138668571Y-121076071D01*
X138478095Y-121076071D01*
X138382857Y-121028452D01*
X138335238Y-120980833D01*
X138287619Y-120885595D01*
X138287619Y-120695119D01*
X138335238Y-120599880D01*
X138382857Y-120552261D01*
X138478095Y-120504642D01*
X138668571Y-120504642D01*
X138763809Y-120552261D01*
X138811428Y-120599880D01*
X138859047Y-120695119D01*
X138287619Y-120076071D02*
X139287619Y-120076071D01*
X138668571Y-119980833D02*
X138287619Y-119695119D01*
X138954285Y-119695119D02*
X138573333Y-120076071D01*
X137906666Y-118218928D02*
X137954285Y-118266547D01*
X138097142Y-118361785D01*
X138192380Y-118409404D01*
X138335238Y-118457023D01*
X138573333Y-118504642D01*
X138763809Y-118504642D01*
X139001904Y-118457023D01*
X139144761Y-118409404D01*
X139240000Y-118361785D01*
X139382857Y-118266547D01*
X139430476Y-118218928D01*
X138382857Y-117266547D02*
X138335238Y-117314166D01*
X138287619Y-117457023D01*
X138287619Y-117552261D01*
X138335238Y-117695119D01*
X138430476Y-117790357D01*
X138525714Y-117837976D01*
X138716190Y-117885595D01*
X138859047Y-117885595D01*
X139049523Y-117837976D01*
X139144761Y-117790357D01*
X139240000Y-117695119D01*
X139287619Y-117552261D01*
X139287619Y-117457023D01*
X139240000Y-117314166D01*
X139192380Y-117266547D01*
X139287619Y-116647500D02*
X139287619Y-116552261D01*
X139240000Y-116457023D01*
X139192380Y-116409404D01*
X139097142Y-116361785D01*
X138906666Y-116314166D01*
X138668571Y-116314166D01*
X138478095Y-116361785D01*
X138382857Y-116409404D01*
X138335238Y-116457023D01*
X138287619Y-116552261D01*
X138287619Y-116647500D01*
X138335238Y-116742738D01*
X138382857Y-116790357D01*
X138478095Y-116837976D01*
X138668571Y-116885595D01*
X138906666Y-116885595D01*
X139097142Y-116837976D01*
X139192380Y-116790357D01*
X139240000Y-116742738D01*
X139287619Y-116647500D01*
X139287619Y-115695119D02*
X139287619Y-115599880D01*
X139240000Y-115504642D01*
X139192380Y-115457023D01*
X139097142Y-115409404D01*
X138906666Y-115361785D01*
X138668571Y-115361785D01*
X138478095Y-115409404D01*
X138382857Y-115457023D01*
X138335238Y-115504642D01*
X138287619Y-115599880D01*
X138287619Y-115695119D01*
X138335238Y-115790357D01*
X138382857Y-115837976D01*
X138478095Y-115885595D01*
X138668571Y-115933214D01*
X138906666Y-115933214D01*
X139097142Y-115885595D01*
X139192380Y-115837976D01*
X139240000Y-115790357D01*
X139287619Y-115695119D01*
X139287619Y-114742738D02*
X139287619Y-114647500D01*
X139240000Y-114552261D01*
X139192380Y-114504642D01*
X139097142Y-114457023D01*
X138906666Y-114409404D01*
X138668571Y-114409404D01*
X138478095Y-114457023D01*
X138382857Y-114504642D01*
X138335238Y-114552261D01*
X138287619Y-114647500D01*
X138287619Y-114742738D01*
X138335238Y-114837976D01*
X138382857Y-114885595D01*
X138478095Y-114933214D01*
X138668571Y-114980833D01*
X138906666Y-114980833D01*
X139097142Y-114933214D01*
X139192380Y-114885595D01*
X139240000Y-114837976D01*
X139287619Y-114742738D01*
X139287619Y-113790357D02*
X139287619Y-113695119D01*
X139240000Y-113599880D01*
X139192380Y-113552261D01*
X139097142Y-113504642D01*
X138906666Y-113457023D01*
X138668571Y-113457023D01*
X138478095Y-113504642D01*
X138382857Y-113552261D01*
X138335238Y-113599880D01*
X138287619Y-113695119D01*
X138287619Y-113790357D01*
X138335238Y-113885595D01*
X138382857Y-113933214D01*
X138478095Y-113980833D01*
X138668571Y-114028452D01*
X138906666Y-114028452D01*
X139097142Y-113980833D01*
X139192380Y-113933214D01*
X139240000Y-113885595D01*
X139287619Y-113790357D01*
X138287619Y-113028452D02*
X139287619Y-113028452D01*
X138287619Y-112599880D02*
X138811428Y-112599880D01*
X138906666Y-112647500D01*
X138954285Y-112742738D01*
X138954285Y-112885595D01*
X138906666Y-112980833D01*
X138859047Y-113028452D01*
X138668571Y-112123690D02*
X138668571Y-111361785D01*
X138287619Y-110885595D02*
X139287619Y-110885595D01*
X139287619Y-110647500D01*
X139240000Y-110504642D01*
X139144761Y-110409404D01*
X139049523Y-110361785D01*
X138859047Y-110314166D01*
X138716190Y-110314166D01*
X138525714Y-110361785D01*
X138430476Y-110409404D01*
X138335238Y-110504642D01*
X138287619Y-110647500D01*
X138287619Y-110885595D01*
X138811428Y-109552261D02*
X138811428Y-109885595D01*
X138287619Y-109885595D02*
X139287619Y-109885595D01*
X139287619Y-109409404D01*
X138811428Y-108695119D02*
X138811428Y-109028452D01*
X138287619Y-109028452D02*
X139287619Y-109028452D01*
X139287619Y-108552261D01*
X138811428Y-107837976D02*
X138811428Y-108171309D01*
X138287619Y-108171309D02*
X139287619Y-108171309D01*
X139287619Y-107695119D01*
X138811428Y-106980833D02*
X138811428Y-107314166D01*
X138287619Y-107314166D02*
X139287619Y-107314166D01*
X139287619Y-106837976D01*
X138287619Y-106457023D02*
X139287619Y-106457023D01*
X138287619Y-106028452D02*
X138811428Y-106028452D01*
X138906666Y-106076071D01*
X138954285Y-106171309D01*
X138954285Y-106314166D01*
X138906666Y-106409404D01*
X138859047Y-106457023D01*
X137906666Y-105647500D02*
X137954285Y-105599880D01*
X138097142Y-105504642D01*
X138192380Y-105457023D01*
X138335238Y-105409404D01*
X138573333Y-105361785D01*
X138763809Y-105361785D01*
X139001904Y-105409404D01*
X139144761Y-105457023D01*
X139240000Y-105504642D01*
X139382857Y-105599880D01*
X139430476Y-105647500D01*
X137537619Y-130123690D02*
X136823333Y-130123690D01*
X136680476Y-130171309D01*
X136585238Y-130266547D01*
X136537619Y-130409404D01*
X136537619Y-130504642D01*
X136537619Y-129647500D02*
X137537619Y-129647500D01*
X137537619Y-129266547D01*
X137490000Y-129171309D01*
X137442380Y-129123690D01*
X137347142Y-129076071D01*
X137204285Y-129076071D01*
X137109047Y-129123690D01*
X137061428Y-129171309D01*
X137013809Y-129266547D01*
X137013809Y-129647500D01*
X137442380Y-128695119D02*
X137490000Y-128647500D01*
X137537619Y-128552261D01*
X137537619Y-128314166D01*
X137490000Y-128218928D01*
X137442380Y-128171309D01*
X137347142Y-128123690D01*
X137251904Y-128123690D01*
X137109047Y-128171309D01*
X136537619Y-128742738D01*
X136537619Y-128123690D01*
X137537619Y-126742738D02*
X137537619Y-126552261D01*
X137490000Y-126457023D01*
X137394761Y-126361785D01*
X137204285Y-126314166D01*
X136870952Y-126314166D01*
X136680476Y-126361785D01*
X136585238Y-126457023D01*
X136537619Y-126552261D01*
X136537619Y-126742738D01*
X136585238Y-126837976D01*
X136680476Y-126933214D01*
X136870952Y-126980833D01*
X137204285Y-126980833D01*
X137394761Y-126933214D01*
X137490000Y-126837976D01*
X137537619Y-126742738D01*
X136537619Y-125885595D02*
X137537619Y-125885595D01*
X136537619Y-125314166D01*
X137537619Y-125314166D01*
X136632857Y-124837976D02*
X136585238Y-124790357D01*
X136537619Y-124837976D01*
X136585238Y-124885595D01*
X136632857Y-124837976D01*
X136537619Y-124837976D01*
X137156666Y-124837976D02*
X137109047Y-124790357D01*
X137061428Y-124837976D01*
X137109047Y-124885595D01*
X137156666Y-124837976D01*
X137061428Y-124837976D01*
X136537619Y-123552261D02*
X136537619Y-123361785D01*
X136585238Y-123266547D01*
X136632857Y-123218928D01*
X136775714Y-123123690D01*
X136966190Y-123076071D01*
X137347142Y-123076071D01*
X137442380Y-123123690D01*
X137490000Y-123171309D01*
X137537619Y-123266547D01*
X137537619Y-123457023D01*
X137490000Y-123552261D01*
X137442380Y-123599880D01*
X137347142Y-123647500D01*
X137109047Y-123647500D01*
X137013809Y-123599880D01*
X136966190Y-123552261D01*
X136918571Y-123457023D01*
X136918571Y-123266547D01*
X136966190Y-123171309D01*
X137013809Y-123123690D01*
X137109047Y-123076071D01*
X137537619Y-122218928D02*
X137537619Y-122409404D01*
X137490000Y-122504642D01*
X137442380Y-122552261D01*
X137299523Y-122647500D01*
X137109047Y-122695119D01*
X136728095Y-122695119D01*
X136632857Y-122647500D01*
X136585238Y-122599880D01*
X136537619Y-122504642D01*
X136537619Y-122314166D01*
X136585238Y-122218928D01*
X136632857Y-122171309D01*
X136728095Y-122123690D01*
X136966190Y-122123690D01*
X137061428Y-122171309D01*
X137109047Y-122218928D01*
X137156666Y-122314166D01*
X137156666Y-122504642D01*
X137109047Y-122599880D01*
X137061428Y-122647500D01*
X136966190Y-122695119D01*
X136537619Y-121695119D02*
X137537619Y-121695119D01*
X136918571Y-121599880D02*
X136537619Y-121314166D01*
X137204285Y-121314166D02*
X136823333Y-121695119D01*
X136156666Y-119837976D02*
X136204285Y-119885595D01*
X136347142Y-119980833D01*
X136442380Y-120028452D01*
X136585238Y-120076071D01*
X136823333Y-120123690D01*
X137013809Y-120123690D01*
X137251904Y-120076071D01*
X137394761Y-120028452D01*
X137490000Y-119980833D01*
X137632857Y-119885595D01*
X137680476Y-119837976D01*
X136632857Y-118885595D02*
X136585238Y-118933214D01*
X136537619Y-119076071D01*
X136537619Y-119171309D01*
X136585238Y-119314166D01*
X136680476Y-119409404D01*
X136775714Y-119457023D01*
X136966190Y-119504642D01*
X137109047Y-119504642D01*
X137299523Y-119457023D01*
X137394761Y-119409404D01*
X137490000Y-119314166D01*
X137537619Y-119171309D01*
X137537619Y-119076071D01*
X137490000Y-118933214D01*
X137442380Y-118885595D01*
X137109047Y-118314166D02*
X137156666Y-118409404D01*
X137204285Y-118457023D01*
X137299523Y-118504642D01*
X137347142Y-118504642D01*
X137442380Y-118457023D01*
X137490000Y-118409404D01*
X137537619Y-118314166D01*
X137537619Y-118123690D01*
X137490000Y-118028452D01*
X137442380Y-117980833D01*
X137347142Y-117933214D01*
X137299523Y-117933214D01*
X137204285Y-117980833D01*
X137156666Y-118028452D01*
X137109047Y-118123690D01*
X137109047Y-118314166D01*
X137061428Y-118409404D01*
X137013809Y-118457023D01*
X136918571Y-118504642D01*
X136728095Y-118504642D01*
X136632857Y-118457023D01*
X136585238Y-118409404D01*
X136537619Y-118314166D01*
X136537619Y-118123690D01*
X136585238Y-118028452D01*
X136632857Y-117980833D01*
X136728095Y-117933214D01*
X136918571Y-117933214D01*
X137013809Y-117980833D01*
X137061428Y-118028452D01*
X137109047Y-118123690D01*
X137537619Y-117314166D02*
X137537619Y-117218928D01*
X137490000Y-117123690D01*
X137442380Y-117076071D01*
X137347142Y-117028452D01*
X137156666Y-116980833D01*
X136918571Y-116980833D01*
X136728095Y-117028452D01*
X136632857Y-117076071D01*
X136585238Y-117123690D01*
X136537619Y-117218928D01*
X136537619Y-117314166D01*
X136585238Y-117409404D01*
X136632857Y-117457023D01*
X136728095Y-117504642D01*
X136918571Y-117552261D01*
X137156666Y-117552261D01*
X137347142Y-117504642D01*
X137442380Y-117457023D01*
X137490000Y-117409404D01*
X137537619Y-117314166D01*
X137537619Y-116361785D02*
X137537619Y-116266547D01*
X137490000Y-116171309D01*
X137442380Y-116123690D01*
X137347142Y-116076071D01*
X137156666Y-116028452D01*
X136918571Y-116028452D01*
X136728095Y-116076071D01*
X136632857Y-116123690D01*
X136585238Y-116171309D01*
X136537619Y-116266547D01*
X136537619Y-116361785D01*
X136585238Y-116457023D01*
X136632857Y-116504642D01*
X136728095Y-116552261D01*
X136918571Y-116599880D01*
X137156666Y-116599880D01*
X137347142Y-116552261D01*
X137442380Y-116504642D01*
X137490000Y-116457023D01*
X137537619Y-116361785D01*
X137537619Y-115409404D02*
X137537619Y-115314166D01*
X137490000Y-115218928D01*
X137442380Y-115171309D01*
X137347142Y-115123690D01*
X137156666Y-115076071D01*
X136918571Y-115076071D01*
X136728095Y-115123690D01*
X136632857Y-115171309D01*
X136585238Y-115218928D01*
X136537619Y-115314166D01*
X136537619Y-115409404D01*
X136585238Y-115504642D01*
X136632857Y-115552261D01*
X136728095Y-115599880D01*
X136918571Y-115647500D01*
X137156666Y-115647500D01*
X137347142Y-115599880D01*
X137442380Y-115552261D01*
X137490000Y-115504642D01*
X137537619Y-115409404D01*
X136537619Y-114647500D02*
X137537619Y-114647500D01*
X136537619Y-114218928D02*
X137061428Y-114218928D01*
X137156666Y-114266547D01*
X137204285Y-114361785D01*
X137204285Y-114504642D01*
X137156666Y-114599880D01*
X137109047Y-114647500D01*
X136918571Y-112980833D02*
X136918571Y-112218928D01*
X136537619Y-110980833D02*
X137537619Y-110980833D01*
X137537619Y-110742738D01*
X137490000Y-110599880D01*
X137394761Y-110504642D01*
X137299523Y-110457023D01*
X137109047Y-110409404D01*
X136966190Y-110409404D01*
X136775714Y-110457023D01*
X136680476Y-110504642D01*
X136585238Y-110599880D01*
X136537619Y-110742738D01*
X136537619Y-110980833D01*
X137061428Y-109647500D02*
X137061428Y-109980833D01*
X136537619Y-109980833D02*
X137537619Y-109980833D01*
X137537619Y-109504642D01*
X137061428Y-108790357D02*
X137061428Y-109123690D01*
X136537619Y-109123690D02*
X137537619Y-109123690D01*
X137537619Y-108647500D01*
X137061428Y-107933214D02*
X137061428Y-108266547D01*
X136537619Y-108266547D02*
X137537619Y-108266547D01*
X137537619Y-107790357D01*
X137061428Y-107076071D02*
X137061428Y-107409404D01*
X136537619Y-107409404D02*
X137537619Y-107409404D01*
X137537619Y-106933214D01*
X136537619Y-106552261D02*
X137537619Y-106552261D01*
X136537619Y-106123690D02*
X137061428Y-106123690D01*
X137156666Y-106171309D01*
X137204285Y-106266547D01*
X137204285Y-106409404D01*
X137156666Y-106504642D01*
X137109047Y-106552261D01*
X136156666Y-105742738D02*
X136204285Y-105695119D01*
X136347142Y-105599880D01*
X136442380Y-105552261D01*
X136585238Y-105504642D01*
X136823333Y-105457023D01*
X137013809Y-105457023D01*
X137251904Y-105504642D01*
X137394761Y-105552261D01*
X137490000Y-105599880D01*
X137632857Y-105695119D01*
X137680476Y-105742738D01*
D11*
X158750000Y-55185000D02*
X157420000Y-55185000D01*
X157420000Y-55185000D02*
X157420000Y-56515000D01*
X160020000Y-55185000D02*
X160020000Y-57785000D01*
X160020000Y-57785000D02*
X157420000Y-57785000D01*
X157420000Y-57785000D02*
X157420000Y-134045000D01*
X162620000Y-134045000D02*
X157420000Y-134045000D01*
X162620000Y-55185000D02*
X162620000Y-134045000D01*
X162620000Y-55185000D02*
X160020000Y-55185000D01*
M02*
