G04 #@! TF.GenerationSoftware,KiCad,Pcbnew,(5.1.4)-1*
G04 #@! TF.CreationDate,2019-11-04T00:36:40-08:00*
G04 #@! TF.ProjectId,Tandy 1000 EX Memory Card,54616e64-7920-4313-9030-30204558204d,rev?*
G04 #@! TF.SameCoordinates,Original*
G04 #@! TF.FileFunction,Legend,Bot*
G04 #@! TF.FilePolarity,Positive*
%FSLAX46Y46*%
G04 Gerber Fmt 4.6, Leading zero omitted, Abs format (unit mm)*
G04 Created by KiCad (PCBNEW (5.1.4)-1) date 2019-11-04 00:36:40*
%MOMM*%
%LPD*%
G04 APERTURE LIST*
%ADD10C,0.375000*%
%ADD11C,0.400000*%
%ADD12C,0.250000*%
%ADD13C,0.120000*%
G04 APERTURE END LIST*
D10*
X130131428Y-134497857D02*
X131631428Y-134497857D01*
X130131428Y-133855000D02*
X130917142Y-133855000D01*
X131060000Y-133926428D01*
X131131428Y-134069285D01*
X131131428Y-134283571D01*
X131060000Y-134426428D01*
X130988571Y-134497857D01*
X131131428Y-133355000D02*
X131131428Y-132783571D01*
X131631428Y-133140714D02*
X130345714Y-133140714D01*
X130202857Y-133069285D01*
X130131428Y-132926428D01*
X130131428Y-132783571D01*
X131131428Y-132497857D02*
X131131428Y-131926428D01*
X131631428Y-132283571D02*
X130345714Y-132283571D01*
X130202857Y-132212142D01*
X130131428Y-132069285D01*
X130131428Y-131926428D01*
X131131428Y-131426428D02*
X129631428Y-131426428D01*
X131060000Y-131426428D02*
X131131428Y-131283571D01*
X131131428Y-130997857D01*
X131060000Y-130855000D01*
X130988571Y-130783571D01*
X130845714Y-130712142D01*
X130417142Y-130712142D01*
X130274285Y-130783571D01*
X130202857Y-130855000D01*
X130131428Y-130997857D01*
X130131428Y-131283571D01*
X130202857Y-131426428D01*
X130202857Y-130140714D02*
X130131428Y-129997857D01*
X130131428Y-129712142D01*
X130202857Y-129569285D01*
X130345714Y-129497857D01*
X130417142Y-129497857D01*
X130560000Y-129569285D01*
X130631428Y-129712142D01*
X130631428Y-129926428D01*
X130702857Y-130069285D01*
X130845714Y-130140714D01*
X130917142Y-130140714D01*
X131060000Y-130069285D01*
X131131428Y-129926428D01*
X131131428Y-129712142D01*
X131060000Y-129569285D01*
X130274285Y-128855000D02*
X130202857Y-128783571D01*
X130131428Y-128855000D01*
X130202857Y-128926428D01*
X130274285Y-128855000D01*
X130131428Y-128855000D01*
X131060000Y-128855000D02*
X130988571Y-128783571D01*
X130917142Y-128855000D01*
X130988571Y-128926428D01*
X131060000Y-128855000D01*
X130917142Y-128855000D01*
X131702857Y-127069285D02*
X129774285Y-128355000D01*
X131702857Y-125497857D02*
X129774285Y-126783571D01*
X131131428Y-125140714D02*
X130131428Y-124855000D01*
X130845714Y-124569285D01*
X130131428Y-124283571D01*
X131131428Y-123997857D01*
X131131428Y-123569285D02*
X130131428Y-123283571D01*
X130845714Y-122997857D01*
X130131428Y-122712142D01*
X131131428Y-122426428D01*
X131131428Y-121997857D02*
X130131428Y-121712142D01*
X130845714Y-121426428D01*
X130131428Y-121140714D01*
X131131428Y-120854999D01*
X130274285Y-120283571D02*
X130202857Y-120212142D01*
X130131428Y-120283571D01*
X130202857Y-120354999D01*
X130274285Y-120283571D01*
X130131428Y-120283571D01*
X131131428Y-119712142D02*
X130131428Y-119354999D01*
X131131428Y-118997857D02*
X130131428Y-119354999D01*
X129774285Y-119497857D01*
X129702857Y-119569285D01*
X129631428Y-119712142D01*
X130131428Y-118212142D02*
X130202857Y-118354999D01*
X130274285Y-118426428D01*
X130417142Y-118497857D01*
X130845714Y-118497857D01*
X130988571Y-118426428D01*
X131060000Y-118354999D01*
X131131428Y-118212142D01*
X131131428Y-117997857D01*
X131060000Y-117854999D01*
X130988571Y-117783571D01*
X130845714Y-117712142D01*
X130417142Y-117712142D01*
X130274285Y-117783571D01*
X130202857Y-117854999D01*
X130131428Y-117997857D01*
X130131428Y-118212142D01*
X131131428Y-116426428D02*
X130131428Y-116426428D01*
X131131428Y-117069285D02*
X130345714Y-117069285D01*
X130202857Y-116997857D01*
X130131428Y-116854999D01*
X130131428Y-116640714D01*
X130202857Y-116497857D01*
X130274285Y-116426428D01*
X131131428Y-115926428D02*
X131131428Y-115354999D01*
X131631428Y-115712142D02*
X130345714Y-115712142D01*
X130202857Y-115640714D01*
X130131428Y-115497857D01*
X130131428Y-115354999D01*
X131131428Y-114212142D02*
X130131428Y-114212142D01*
X131131428Y-114854999D02*
X130345714Y-114854999D01*
X130202857Y-114783571D01*
X130131428Y-114640714D01*
X130131428Y-114426428D01*
X130202857Y-114283571D01*
X130274285Y-114212142D01*
X130131428Y-113497857D02*
X131631428Y-113497857D01*
X131060000Y-113497857D02*
X131131428Y-113354999D01*
X131131428Y-113069285D01*
X131060000Y-112926428D01*
X130988571Y-112854999D01*
X130845714Y-112783571D01*
X130417142Y-112783571D01*
X130274285Y-112854999D01*
X130202857Y-112926428D01*
X130131428Y-113069285D01*
X130131428Y-113354999D01*
X130202857Y-113497857D01*
X130202857Y-111569285D02*
X130131428Y-111712142D01*
X130131428Y-111997857D01*
X130202857Y-112140714D01*
X130345714Y-112212142D01*
X130917142Y-112212142D01*
X131060000Y-112140714D01*
X131131428Y-111997857D01*
X131131428Y-111712142D01*
X131060000Y-111569285D01*
X130917142Y-111497857D01*
X130774285Y-111497857D01*
X130631428Y-112212142D01*
X130274285Y-110854999D02*
X130202857Y-110783571D01*
X130131428Y-110854999D01*
X130202857Y-110926428D01*
X130274285Y-110854999D01*
X130131428Y-110854999D01*
X130202857Y-109497857D02*
X130131428Y-109640714D01*
X130131428Y-109926428D01*
X130202857Y-110069285D01*
X130274285Y-110140714D01*
X130417142Y-110212142D01*
X130845714Y-110212142D01*
X130988571Y-110140714D01*
X131060000Y-110069285D01*
X131131428Y-109926428D01*
X131131428Y-109640714D01*
X131060000Y-109497857D01*
X130131428Y-108640714D02*
X130202857Y-108783571D01*
X130274285Y-108854999D01*
X130417142Y-108926428D01*
X130845714Y-108926428D01*
X130988571Y-108854999D01*
X131060000Y-108783571D01*
X131131428Y-108640714D01*
X131131428Y-108426428D01*
X131060000Y-108283571D01*
X130988571Y-108212142D01*
X130845714Y-108140714D01*
X130417142Y-108140714D01*
X130274285Y-108212142D01*
X130202857Y-108283571D01*
X130131428Y-108426428D01*
X130131428Y-108640714D01*
X130131428Y-107497857D02*
X131131428Y-107497857D01*
X130988571Y-107497857D02*
X131060000Y-107426428D01*
X131131428Y-107283571D01*
X131131428Y-107069285D01*
X131060000Y-106926428D01*
X130917142Y-106854999D01*
X130131428Y-106854999D01*
X130917142Y-106854999D02*
X131060000Y-106783571D01*
X131131428Y-106640714D01*
X131131428Y-106426428D01*
X131060000Y-106283571D01*
X130917142Y-106212142D01*
X130131428Y-106212142D01*
X131702857Y-104426428D02*
X129774285Y-105712142D01*
X131131428Y-103283571D02*
X130131428Y-103283571D01*
X131131428Y-103926428D02*
X130345714Y-103926428D01*
X130202857Y-103854999D01*
X130131428Y-103712142D01*
X130131428Y-103497857D01*
X130202857Y-103354999D01*
X130274285Y-103283571D01*
X130202857Y-102640714D02*
X130131428Y-102497857D01*
X130131428Y-102212142D01*
X130202857Y-102069285D01*
X130345714Y-101997857D01*
X130417142Y-101997857D01*
X130560000Y-102069285D01*
X130631428Y-102212142D01*
X130631428Y-102426428D01*
X130702857Y-102569285D01*
X130845714Y-102640714D01*
X130917142Y-102640714D01*
X131060000Y-102569285D01*
X131131428Y-102426428D01*
X131131428Y-102212142D01*
X131060000Y-102069285D01*
X130202857Y-100783571D02*
X130131428Y-100926428D01*
X130131428Y-101212142D01*
X130202857Y-101354999D01*
X130345714Y-101426428D01*
X130917142Y-101426428D01*
X131060000Y-101354999D01*
X131131428Y-101212142D01*
X131131428Y-100926428D01*
X131060000Y-100783571D01*
X130917142Y-100712142D01*
X130774285Y-100712142D01*
X130631428Y-101426428D01*
X130131428Y-100069285D02*
X131131428Y-100069285D01*
X130845714Y-100069285D02*
X130988571Y-99997857D01*
X131060000Y-99926428D01*
X131131428Y-99783571D01*
X131131428Y-99640714D01*
X131702857Y-98069285D02*
X129774285Y-99354999D01*
X130202857Y-96926428D02*
X130131428Y-97069285D01*
X130131428Y-97354999D01*
X130202857Y-97497857D01*
X130274285Y-97569285D01*
X130417142Y-97640714D01*
X130845714Y-97640714D01*
X130988571Y-97569285D01*
X131060000Y-97497857D01*
X131131428Y-97354999D01*
X131131428Y-97069285D01*
X131060000Y-96926428D01*
X130131428Y-96283571D02*
X131131428Y-96283571D01*
X130845714Y-96283571D02*
X130988571Y-96212142D01*
X131060000Y-96140714D01*
X131131428Y-95997857D01*
X131131428Y-95854999D01*
X130131428Y-94712142D02*
X130917142Y-94712142D01*
X131060000Y-94783571D01*
X131131428Y-94926428D01*
X131131428Y-95212142D01*
X131060000Y-95354999D01*
X130202857Y-94712142D02*
X130131428Y-94854999D01*
X130131428Y-95212142D01*
X130202857Y-95354999D01*
X130345714Y-95426428D01*
X130488571Y-95426428D01*
X130631428Y-95354999D01*
X130702857Y-95212142D01*
X130702857Y-94854999D01*
X130774285Y-94712142D01*
X130131428Y-93997857D02*
X131131428Y-93997857D01*
X131631428Y-93997857D02*
X131560000Y-94069285D01*
X131488571Y-93997857D01*
X131560000Y-93926428D01*
X131631428Y-93997857D01*
X131488571Y-93997857D01*
X131131428Y-92640714D02*
X129917142Y-92640714D01*
X129774285Y-92712142D01*
X129702857Y-92783571D01*
X129631428Y-92926428D01*
X129631428Y-93140714D01*
X129702857Y-93283571D01*
X130202857Y-92640714D02*
X130131428Y-92783571D01*
X130131428Y-93069285D01*
X130202857Y-93212142D01*
X130274285Y-93283571D01*
X130417142Y-93354999D01*
X130845714Y-93354999D01*
X130988571Y-93283571D01*
X131060000Y-93212142D01*
X131131428Y-93069285D01*
X131131428Y-92783571D01*
X131060000Y-92640714D01*
X130131428Y-91140714D02*
X130131428Y-91997857D01*
X130131428Y-91569285D02*
X131631428Y-91569285D01*
X131417142Y-91712142D01*
X131274285Y-91854999D01*
X131202857Y-91997857D01*
X130131428Y-90497857D02*
X131631428Y-90497857D01*
X131060000Y-90497857D02*
X131131428Y-90354999D01*
X131131428Y-90069285D01*
X131060000Y-89926428D01*
X130988571Y-89854999D01*
X130845714Y-89783571D01*
X130417142Y-89783571D01*
X130274285Y-89854999D01*
X130202857Y-89926428D01*
X130131428Y-90069285D01*
X130131428Y-90354999D01*
X130202857Y-90497857D01*
X130131428Y-88926428D02*
X130202857Y-89069285D01*
X130345714Y-89140714D01*
X131631428Y-89140714D01*
X130131428Y-87712142D02*
X130917142Y-87712142D01*
X131060000Y-87783571D01*
X131131428Y-87926428D01*
X131131428Y-88212142D01*
X131060000Y-88354999D01*
X130202857Y-87712142D02*
X130131428Y-87854999D01*
X130131428Y-88212142D01*
X130202857Y-88354999D01*
X130345714Y-88426428D01*
X130488571Y-88426428D01*
X130631428Y-88354999D01*
X130702857Y-88212142D01*
X130702857Y-87854999D01*
X130774285Y-87712142D01*
X130202857Y-86354999D02*
X130131428Y-86497857D01*
X130131428Y-86783571D01*
X130202857Y-86926428D01*
X130274285Y-86997857D01*
X130417142Y-87069285D01*
X130845714Y-87069285D01*
X130988571Y-86997857D01*
X131060000Y-86926428D01*
X131131428Y-86783571D01*
X131131428Y-86497857D01*
X131060000Y-86354999D01*
X130131428Y-85712142D02*
X131631428Y-85712142D01*
X130702857Y-85569285D02*
X130131428Y-85140714D01*
X131131428Y-85140714D02*
X130560000Y-85712142D01*
D11*
X153971666Y-132855476D02*
X153971666Y-131903095D01*
X153400238Y-133045952D02*
X155400238Y-132379285D01*
X153400238Y-131712619D01*
X153400238Y-130188809D02*
X155400238Y-130188809D01*
X153495476Y-130188809D02*
X153400238Y-130379285D01*
X153400238Y-130760238D01*
X153495476Y-130950714D01*
X153590714Y-131045952D01*
X153781190Y-131141190D01*
X154352619Y-131141190D01*
X154543095Y-131045952D01*
X154638333Y-130950714D01*
X154733571Y-130760238D01*
X154733571Y-130379285D01*
X154638333Y-130188809D01*
X153400238Y-129236428D02*
X154733571Y-129236428D01*
X154352619Y-129236428D02*
X154543095Y-129141190D01*
X154638333Y-129045952D01*
X154733571Y-128855476D01*
X154733571Y-128665000D01*
X153400238Y-127998333D02*
X154733571Y-127998333D01*
X155400238Y-127998333D02*
X155305000Y-128093571D01*
X155209761Y-127998333D01*
X155305000Y-127903095D01*
X155400238Y-127998333D01*
X155209761Y-127998333D01*
X153400238Y-126188809D02*
X154447857Y-126188809D01*
X154638333Y-126284047D01*
X154733571Y-126474523D01*
X154733571Y-126855476D01*
X154638333Y-127045952D01*
X153495476Y-126188809D02*
X153400238Y-126379285D01*
X153400238Y-126855476D01*
X153495476Y-127045952D01*
X153685952Y-127141190D01*
X153876428Y-127141190D01*
X154066904Y-127045952D01*
X154162142Y-126855476D01*
X154162142Y-126379285D01*
X154257380Y-126188809D01*
X154733571Y-125236428D02*
X153400238Y-125236428D01*
X154543095Y-125236428D02*
X154638333Y-125141190D01*
X154733571Y-124950714D01*
X154733571Y-124665000D01*
X154638333Y-124474523D01*
X154447857Y-124379285D01*
X153400238Y-124379285D01*
X155400238Y-123331666D02*
X155019285Y-123522142D01*
X153495476Y-122569761D02*
X153400238Y-122379285D01*
X153400238Y-121998333D01*
X153495476Y-121807857D01*
X153685952Y-121712619D01*
X153781190Y-121712619D01*
X153971666Y-121807857D01*
X154066904Y-121998333D01*
X154066904Y-122284047D01*
X154162142Y-122474523D01*
X154352619Y-122569761D01*
X154447857Y-122569761D01*
X154638333Y-122474523D01*
X154733571Y-122284047D01*
X154733571Y-121998333D01*
X154638333Y-121807857D01*
X153400238Y-119331666D02*
X155400238Y-119331666D01*
X155400238Y-118855476D01*
X155305000Y-118569761D01*
X155114523Y-118379285D01*
X154924047Y-118284047D01*
X154543095Y-118188809D01*
X154257380Y-118188809D01*
X153876428Y-118284047D01*
X153685952Y-118379285D01*
X153495476Y-118569761D01*
X153400238Y-118855476D01*
X153400238Y-119331666D01*
X153400238Y-117331666D02*
X154733571Y-117331666D01*
X155400238Y-117331666D02*
X155305000Y-117426904D01*
X155209761Y-117331666D01*
X155305000Y-117236428D01*
X155400238Y-117331666D01*
X155209761Y-117331666D01*
X154733571Y-115522142D02*
X153114523Y-115522142D01*
X152924047Y-115617380D01*
X152828809Y-115712619D01*
X152733571Y-115903095D01*
X152733571Y-116188809D01*
X152828809Y-116379285D01*
X153495476Y-115522142D02*
X153400238Y-115712619D01*
X153400238Y-116093571D01*
X153495476Y-116284047D01*
X153590714Y-116379285D01*
X153781190Y-116474523D01*
X154352619Y-116474523D01*
X154543095Y-116379285D01*
X154638333Y-116284047D01*
X154733571Y-116093571D01*
X154733571Y-115712619D01*
X154638333Y-115522142D01*
X153400238Y-114569761D02*
X154733571Y-114569761D01*
X155400238Y-114569761D02*
X155305000Y-114665000D01*
X155209761Y-114569761D01*
X155305000Y-114474523D01*
X155400238Y-114569761D01*
X155209761Y-114569761D01*
X154733571Y-113903095D02*
X154733571Y-113141190D01*
X155400238Y-113617380D02*
X153685952Y-113617380D01*
X153495476Y-113522142D01*
X153400238Y-113331666D01*
X153400238Y-113141190D01*
X153400238Y-111617380D02*
X154447857Y-111617380D01*
X154638333Y-111712619D01*
X154733571Y-111903095D01*
X154733571Y-112284047D01*
X154638333Y-112474523D01*
X153495476Y-111617380D02*
X153400238Y-111807857D01*
X153400238Y-112284047D01*
X153495476Y-112474523D01*
X153685952Y-112569761D01*
X153876428Y-112569761D01*
X154066904Y-112474523D01*
X154162142Y-112284047D01*
X154162142Y-111807857D01*
X154257380Y-111617380D01*
X153400238Y-110379285D02*
X153495476Y-110569761D01*
X153685952Y-110665000D01*
X155400238Y-110665000D01*
X154447857Y-107426904D02*
X154352619Y-107141190D01*
X154257380Y-107045952D01*
X154066904Y-106950714D01*
X153781190Y-106950714D01*
X153590714Y-107045952D01*
X153495476Y-107141190D01*
X153400238Y-107331666D01*
X153400238Y-108093571D01*
X155400238Y-108093571D01*
X155400238Y-107426904D01*
X155305000Y-107236428D01*
X155209761Y-107141190D01*
X155019285Y-107045952D01*
X154828809Y-107045952D01*
X154638333Y-107141190D01*
X154543095Y-107236428D01*
X154447857Y-107426904D01*
X154447857Y-108093571D01*
X153400238Y-105236428D02*
X154447857Y-105236428D01*
X154638333Y-105331666D01*
X154733571Y-105522142D01*
X154733571Y-105903095D01*
X154638333Y-106093571D01*
X153495476Y-105236428D02*
X153400238Y-105426904D01*
X153400238Y-105903095D01*
X153495476Y-106093571D01*
X153685952Y-106188809D01*
X153876428Y-106188809D01*
X154066904Y-106093571D01*
X154162142Y-105903095D01*
X154162142Y-105426904D01*
X154257380Y-105236428D01*
X153495476Y-104379285D02*
X153400238Y-104188809D01*
X153400238Y-103807857D01*
X153495476Y-103617380D01*
X153685952Y-103522142D01*
X153781190Y-103522142D01*
X153971666Y-103617380D01*
X154066904Y-103807857D01*
X154066904Y-104093571D01*
X154162142Y-104284047D01*
X154352619Y-104379285D01*
X154447857Y-104379285D01*
X154638333Y-104284047D01*
X154733571Y-104093571D01*
X154733571Y-103807857D01*
X154638333Y-103617380D01*
X153495476Y-101903095D02*
X153400238Y-102093571D01*
X153400238Y-102474523D01*
X153495476Y-102665000D01*
X153685952Y-102760238D01*
X154447857Y-102760238D01*
X154638333Y-102665000D01*
X154733571Y-102474523D01*
X154733571Y-102093571D01*
X154638333Y-101903095D01*
X154447857Y-101807857D01*
X154257380Y-101807857D01*
X154066904Y-102760238D01*
X153400238Y-100950714D02*
X154733571Y-100950714D01*
X154543095Y-100950714D02*
X154638333Y-100855476D01*
X154733571Y-100665000D01*
X154733571Y-100379285D01*
X154638333Y-100188809D01*
X154447857Y-100093571D01*
X153400238Y-100093571D01*
X154447857Y-100093571D02*
X154638333Y-99998333D01*
X154733571Y-99807857D01*
X154733571Y-99522142D01*
X154638333Y-99331666D01*
X154447857Y-99236428D01*
X153400238Y-99236428D01*
X153495476Y-97522142D02*
X153400238Y-97712619D01*
X153400238Y-98093571D01*
X153495476Y-98284047D01*
X153685952Y-98379285D01*
X154447857Y-98379285D01*
X154638333Y-98284047D01*
X154733571Y-98093571D01*
X154733571Y-97712619D01*
X154638333Y-97522142D01*
X154447857Y-97426904D01*
X154257380Y-97426904D01*
X154066904Y-98379285D01*
X154733571Y-96569761D02*
X153400238Y-96569761D01*
X154543095Y-96569761D02*
X154638333Y-96474523D01*
X154733571Y-96284047D01*
X154733571Y-95998333D01*
X154638333Y-95807857D01*
X154447857Y-95712619D01*
X153400238Y-95712619D01*
X154733571Y-95045952D02*
X154733571Y-94284047D01*
X155400238Y-94760238D02*
X153685952Y-94760238D01*
X153495476Y-94665000D01*
X153400238Y-94474523D01*
X153400238Y-94284047D01*
D12*
X147037619Y-129837976D02*
X147513809Y-130171309D01*
X147037619Y-130409404D02*
X148037619Y-130409404D01*
X148037619Y-130028452D01*
X147990000Y-129933214D01*
X147942380Y-129885595D01*
X147847142Y-129837976D01*
X147704285Y-129837976D01*
X147609047Y-129885595D01*
X147561428Y-129933214D01*
X147513809Y-130028452D01*
X147513809Y-130409404D01*
X147323333Y-129457023D02*
X147323333Y-128980833D01*
X147037619Y-129552261D02*
X148037619Y-129218928D01*
X147037619Y-128885595D01*
X147037619Y-128552261D02*
X148037619Y-128552261D01*
X147323333Y-128218928D01*
X148037619Y-127885595D01*
X147037619Y-127885595D01*
X147037619Y-126647500D02*
X148037619Y-126647500D01*
X147323333Y-126314166D01*
X148037619Y-125980833D01*
X147037619Y-125980833D01*
X147037619Y-125076071D02*
X147561428Y-125076071D01*
X147656666Y-125123690D01*
X147704285Y-125218928D01*
X147704285Y-125409404D01*
X147656666Y-125504642D01*
X147085238Y-125076071D02*
X147037619Y-125171309D01*
X147037619Y-125409404D01*
X147085238Y-125504642D01*
X147180476Y-125552261D01*
X147275714Y-125552261D01*
X147370952Y-125504642D01*
X147418571Y-125409404D01*
X147418571Y-125171309D01*
X147466190Y-125076071D01*
X147704285Y-124599880D02*
X146704285Y-124599880D01*
X147656666Y-124599880D02*
X147704285Y-124504642D01*
X147704285Y-124314166D01*
X147656666Y-124218928D01*
X147609047Y-124171309D01*
X147513809Y-124123690D01*
X147228095Y-124123690D01*
X147132857Y-124171309D01*
X147085238Y-124218928D01*
X147037619Y-124314166D01*
X147037619Y-124504642D01*
X147085238Y-124599880D01*
X147704285Y-123695119D02*
X146704285Y-123695119D01*
X147656666Y-123695119D02*
X147704285Y-123599880D01*
X147704285Y-123409404D01*
X147656666Y-123314166D01*
X147609047Y-123266547D01*
X147513809Y-123218928D01*
X147228095Y-123218928D01*
X147132857Y-123266547D01*
X147085238Y-123314166D01*
X147037619Y-123409404D01*
X147037619Y-123599880D01*
X147085238Y-123695119D01*
X147037619Y-122790357D02*
X147704285Y-122790357D01*
X148037619Y-122790357D02*
X147990000Y-122837976D01*
X147942380Y-122790357D01*
X147990000Y-122742738D01*
X148037619Y-122790357D01*
X147942380Y-122790357D01*
X147704285Y-122314166D02*
X147037619Y-122314166D01*
X147609047Y-122314166D02*
X147656666Y-122266547D01*
X147704285Y-122171309D01*
X147704285Y-122028452D01*
X147656666Y-121933214D01*
X147561428Y-121885595D01*
X147037619Y-121885595D01*
X147704285Y-120980833D02*
X146894761Y-120980833D01*
X146799523Y-121028452D01*
X146751904Y-121076071D01*
X146704285Y-121171309D01*
X146704285Y-121314166D01*
X146751904Y-121409404D01*
X147085238Y-120980833D02*
X147037619Y-121076071D01*
X147037619Y-121266547D01*
X147085238Y-121361785D01*
X147132857Y-121409404D01*
X147228095Y-121457023D01*
X147513809Y-121457023D01*
X147609047Y-121409404D01*
X147656666Y-121361785D01*
X147704285Y-121266547D01*
X147704285Y-121076071D01*
X147656666Y-120980833D01*
X145287619Y-130409404D02*
X146287619Y-130409404D01*
X146287619Y-130028452D01*
X146240000Y-129933214D01*
X146192380Y-129885595D01*
X146097142Y-129837976D01*
X145954285Y-129837976D01*
X145859047Y-129885595D01*
X145811428Y-129933214D01*
X145763809Y-130028452D01*
X145763809Y-130409404D01*
X145287619Y-129409404D02*
X145954285Y-129409404D01*
X145763809Y-129409404D02*
X145859047Y-129361785D01*
X145906666Y-129314166D01*
X145954285Y-129218928D01*
X145954285Y-129123690D01*
X145287619Y-128790357D02*
X145954285Y-128790357D01*
X146287619Y-128790357D02*
X146240000Y-128837976D01*
X146192380Y-128790357D01*
X146240000Y-128742738D01*
X146287619Y-128790357D01*
X146192380Y-128790357D01*
X145287619Y-128314166D02*
X145954285Y-128314166D01*
X145859047Y-128314166D02*
X145906666Y-128266547D01*
X145954285Y-128171309D01*
X145954285Y-128028452D01*
X145906666Y-127933214D01*
X145811428Y-127885595D01*
X145287619Y-127885595D01*
X145811428Y-127885595D02*
X145906666Y-127837976D01*
X145954285Y-127742738D01*
X145954285Y-127599880D01*
X145906666Y-127504642D01*
X145811428Y-127457023D01*
X145287619Y-127457023D01*
X145287619Y-126552261D02*
X145811428Y-126552261D01*
X145906666Y-126599880D01*
X145954285Y-126695119D01*
X145954285Y-126885595D01*
X145906666Y-126980833D01*
X145335238Y-126552261D02*
X145287619Y-126647500D01*
X145287619Y-126885595D01*
X145335238Y-126980833D01*
X145430476Y-127028452D01*
X145525714Y-127028452D01*
X145620952Y-126980833D01*
X145668571Y-126885595D01*
X145668571Y-126647500D01*
X145716190Y-126552261D01*
X145287619Y-126076071D02*
X145954285Y-126076071D01*
X145763809Y-126076071D02*
X145859047Y-126028452D01*
X145906666Y-125980833D01*
X145954285Y-125885595D01*
X145954285Y-125790357D01*
X145954285Y-125552261D02*
X145287619Y-125314166D01*
X145954285Y-125076071D02*
X145287619Y-125314166D01*
X145049523Y-125409404D01*
X145001904Y-125457023D01*
X144954285Y-125552261D01*
X145335238Y-123980833D02*
X145287619Y-123837976D01*
X145287619Y-123599880D01*
X145335238Y-123504642D01*
X145382857Y-123457023D01*
X145478095Y-123409404D01*
X145573333Y-123409404D01*
X145668571Y-123457023D01*
X145716190Y-123504642D01*
X145763809Y-123599880D01*
X145811428Y-123790357D01*
X145859047Y-123885595D01*
X145906666Y-123933214D01*
X146001904Y-123980833D01*
X146097142Y-123980833D01*
X146192380Y-123933214D01*
X146240000Y-123885595D01*
X146287619Y-123790357D01*
X146287619Y-123552261D01*
X146240000Y-123409404D01*
X145287619Y-122409404D02*
X145763809Y-122742738D01*
X145287619Y-122980833D02*
X146287619Y-122980833D01*
X146287619Y-122599880D01*
X146240000Y-122504642D01*
X146192380Y-122457023D01*
X146097142Y-122409404D01*
X145954285Y-122409404D01*
X145859047Y-122457023D01*
X145811428Y-122504642D01*
X145763809Y-122599880D01*
X145763809Y-122980833D01*
X145573333Y-122028452D02*
X145573333Y-121552261D01*
X145287619Y-122123690D02*
X146287619Y-121790357D01*
X145287619Y-121457023D01*
X145287619Y-121123690D02*
X146287619Y-121123690D01*
X145573333Y-120790357D01*
X146287619Y-120457023D01*
X145287619Y-120457023D01*
X144537619Y-130218928D02*
X144537619Y-130123690D01*
X144490000Y-130028452D01*
X144442380Y-129980833D01*
X144347142Y-129933214D01*
X144156666Y-129885595D01*
X143918571Y-129885595D01*
X143728095Y-129933214D01*
X143632857Y-129980833D01*
X143585238Y-130028452D01*
X143537619Y-130123690D01*
X143537619Y-130218928D01*
X143585238Y-130314166D01*
X143632857Y-130361785D01*
X143728095Y-130409404D01*
X143918571Y-130457023D01*
X144156666Y-130457023D01*
X144347142Y-130409404D01*
X144442380Y-130361785D01*
X144490000Y-130314166D01*
X144537619Y-130218928D01*
X143537619Y-129457023D02*
X144537619Y-129457023D01*
X143918571Y-129361785D02*
X143537619Y-129076071D01*
X144204285Y-129076071D02*
X143823333Y-129457023D01*
X143918571Y-127885595D02*
X143918571Y-127123690D01*
X144537619Y-125980833D02*
X144537619Y-125361785D01*
X144156666Y-125695119D01*
X144156666Y-125552261D01*
X144109047Y-125457023D01*
X144061428Y-125409404D01*
X143966190Y-125361785D01*
X143728095Y-125361785D01*
X143632857Y-125409404D01*
X143585238Y-125457023D01*
X143537619Y-125552261D01*
X143537619Y-125837976D01*
X143585238Y-125933214D01*
X143632857Y-125980833D01*
X144109047Y-124790357D02*
X144156666Y-124885595D01*
X144204285Y-124933214D01*
X144299523Y-124980833D01*
X144347142Y-124980833D01*
X144442380Y-124933214D01*
X144490000Y-124885595D01*
X144537619Y-124790357D01*
X144537619Y-124599880D01*
X144490000Y-124504642D01*
X144442380Y-124457023D01*
X144347142Y-124409404D01*
X144299523Y-124409404D01*
X144204285Y-124457023D01*
X144156666Y-124504642D01*
X144109047Y-124599880D01*
X144109047Y-124790357D01*
X144061428Y-124885595D01*
X144013809Y-124933214D01*
X143918571Y-124980833D01*
X143728095Y-124980833D01*
X143632857Y-124933214D01*
X143585238Y-124885595D01*
X143537619Y-124790357D01*
X143537619Y-124599880D01*
X143585238Y-124504642D01*
X143632857Y-124457023D01*
X143728095Y-124409404D01*
X143918571Y-124409404D01*
X144013809Y-124457023D01*
X144061428Y-124504642D01*
X144109047Y-124599880D01*
X144204285Y-123552261D02*
X143537619Y-123552261D01*
X144585238Y-123790357D02*
X143870952Y-124028452D01*
X143870952Y-123409404D01*
X143537619Y-123028452D02*
X144537619Y-123028452D01*
X143918571Y-122933214D02*
X143537619Y-122647500D01*
X144204285Y-122647500D02*
X143823333Y-123028452D01*
X143156666Y-121171309D02*
X143204285Y-121218928D01*
X143347142Y-121314166D01*
X143442380Y-121361785D01*
X143585238Y-121409404D01*
X143823333Y-121457023D01*
X144013809Y-121457023D01*
X144251904Y-121409404D01*
X144394761Y-121361785D01*
X144490000Y-121314166D01*
X144632857Y-121218928D01*
X144680476Y-121171309D01*
X144537619Y-120599880D02*
X144537619Y-120504642D01*
X144490000Y-120409404D01*
X144442380Y-120361785D01*
X144347142Y-120314166D01*
X144156666Y-120266547D01*
X143918571Y-120266547D01*
X143728095Y-120314166D01*
X143632857Y-120361785D01*
X143585238Y-120409404D01*
X143537619Y-120504642D01*
X143537619Y-120599880D01*
X143585238Y-120695119D01*
X143632857Y-120742738D01*
X143728095Y-120790357D01*
X143918571Y-120837976D01*
X144156666Y-120837976D01*
X144347142Y-120790357D01*
X144442380Y-120742738D01*
X144490000Y-120695119D01*
X144537619Y-120599880D01*
X144537619Y-119647500D02*
X144537619Y-119552261D01*
X144490000Y-119457023D01*
X144442380Y-119409404D01*
X144347142Y-119361785D01*
X144156666Y-119314166D01*
X143918571Y-119314166D01*
X143728095Y-119361785D01*
X143632857Y-119409404D01*
X143585238Y-119457023D01*
X143537619Y-119552261D01*
X143537619Y-119647500D01*
X143585238Y-119742738D01*
X143632857Y-119790357D01*
X143728095Y-119837976D01*
X143918571Y-119885595D01*
X144156666Y-119885595D01*
X144347142Y-119837976D01*
X144442380Y-119790357D01*
X144490000Y-119742738D01*
X144537619Y-119647500D01*
X144537619Y-118695119D02*
X144537619Y-118599880D01*
X144490000Y-118504642D01*
X144442380Y-118457023D01*
X144347142Y-118409404D01*
X144156666Y-118361785D01*
X143918571Y-118361785D01*
X143728095Y-118409404D01*
X143632857Y-118457023D01*
X143585238Y-118504642D01*
X143537619Y-118599880D01*
X143537619Y-118695119D01*
X143585238Y-118790357D01*
X143632857Y-118837976D01*
X143728095Y-118885595D01*
X143918571Y-118933214D01*
X144156666Y-118933214D01*
X144347142Y-118885595D01*
X144442380Y-118837976D01*
X144490000Y-118790357D01*
X144537619Y-118695119D01*
X144537619Y-117742738D02*
X144537619Y-117647500D01*
X144490000Y-117552261D01*
X144442380Y-117504642D01*
X144347142Y-117457023D01*
X144156666Y-117409404D01*
X143918571Y-117409404D01*
X143728095Y-117457023D01*
X143632857Y-117504642D01*
X143585238Y-117552261D01*
X143537619Y-117647500D01*
X143537619Y-117742738D01*
X143585238Y-117837976D01*
X143632857Y-117885595D01*
X143728095Y-117933214D01*
X143918571Y-117980833D01*
X144156666Y-117980833D01*
X144347142Y-117933214D01*
X144442380Y-117885595D01*
X144490000Y-117837976D01*
X144537619Y-117742738D01*
X144537619Y-116790357D02*
X144537619Y-116695119D01*
X144490000Y-116599880D01*
X144442380Y-116552261D01*
X144347142Y-116504642D01*
X144156666Y-116457023D01*
X143918571Y-116457023D01*
X143728095Y-116504642D01*
X143632857Y-116552261D01*
X143585238Y-116599880D01*
X143537619Y-116695119D01*
X143537619Y-116790357D01*
X143585238Y-116885595D01*
X143632857Y-116933214D01*
X143728095Y-116980833D01*
X143918571Y-117028452D01*
X144156666Y-117028452D01*
X144347142Y-116980833D01*
X144442380Y-116933214D01*
X144490000Y-116885595D01*
X144537619Y-116790357D01*
X143537619Y-116028452D02*
X144537619Y-116028452D01*
X143537619Y-115599880D02*
X144061428Y-115599880D01*
X144156666Y-115647500D01*
X144204285Y-115742738D01*
X144204285Y-115885595D01*
X144156666Y-115980833D01*
X144109047Y-116028452D01*
X143918571Y-114361785D02*
X143918571Y-113599880D01*
X144537619Y-111885595D02*
X144537619Y-112361785D01*
X144061428Y-112409404D01*
X144109047Y-112361785D01*
X144156666Y-112266547D01*
X144156666Y-112028452D01*
X144109047Y-111933214D01*
X144061428Y-111885595D01*
X143966190Y-111837976D01*
X143728095Y-111837976D01*
X143632857Y-111885595D01*
X143585238Y-111933214D01*
X143537619Y-112028452D01*
X143537619Y-112266547D01*
X143585238Y-112361785D01*
X143632857Y-112409404D01*
X144061428Y-111076071D02*
X144061428Y-111409404D01*
X143537619Y-111409404D02*
X144537619Y-111409404D01*
X144537619Y-110933214D01*
X144061428Y-110218928D02*
X144061428Y-110552261D01*
X143537619Y-110552261D02*
X144537619Y-110552261D01*
X144537619Y-110076071D01*
X144061428Y-109361785D02*
X144061428Y-109695119D01*
X143537619Y-109695119D02*
X144537619Y-109695119D01*
X144537619Y-109218928D01*
X144061428Y-108504642D02*
X144061428Y-108837976D01*
X143537619Y-108837976D02*
X144537619Y-108837976D01*
X144537619Y-108361785D01*
X143537619Y-107980833D02*
X144537619Y-107980833D01*
X143537619Y-107552261D02*
X144061428Y-107552261D01*
X144156666Y-107599880D01*
X144204285Y-107695119D01*
X144204285Y-107837976D01*
X144156666Y-107933214D01*
X144109047Y-107980833D01*
X143156666Y-107171309D02*
X143204285Y-107123690D01*
X143347142Y-107028452D01*
X143442380Y-106980833D01*
X143585238Y-106933214D01*
X143823333Y-106885595D01*
X144013809Y-106885595D01*
X144251904Y-106933214D01*
X144394761Y-106980833D01*
X144490000Y-107028452D01*
X144632857Y-107123690D01*
X144680476Y-107171309D01*
X141037619Y-130409404D02*
X140228095Y-130409404D01*
X140132857Y-130361785D01*
X140085238Y-130314166D01*
X140037619Y-130218928D01*
X140037619Y-130028452D01*
X140085238Y-129933214D01*
X140132857Y-129885595D01*
X140228095Y-129837976D01*
X141037619Y-129837976D01*
X140704285Y-129361785D02*
X139704285Y-129361785D01*
X140656666Y-129361785D02*
X140704285Y-129266547D01*
X140704285Y-129076071D01*
X140656666Y-128980833D01*
X140609047Y-128933214D01*
X140513809Y-128885595D01*
X140228095Y-128885595D01*
X140132857Y-128933214D01*
X140085238Y-128980833D01*
X140037619Y-129076071D01*
X140037619Y-129266547D01*
X140085238Y-129361785D01*
X140704285Y-128457023D02*
X139704285Y-128457023D01*
X140656666Y-128457023D02*
X140704285Y-128361785D01*
X140704285Y-128171309D01*
X140656666Y-128076071D01*
X140609047Y-128028452D01*
X140513809Y-127980833D01*
X140228095Y-127980833D01*
X140132857Y-128028452D01*
X140085238Y-128076071D01*
X140037619Y-128171309D01*
X140037619Y-128361785D01*
X140085238Y-128457023D01*
X140085238Y-127171309D02*
X140037619Y-127266547D01*
X140037619Y-127457023D01*
X140085238Y-127552261D01*
X140180476Y-127599880D01*
X140561428Y-127599880D01*
X140656666Y-127552261D01*
X140704285Y-127457023D01*
X140704285Y-127266547D01*
X140656666Y-127171309D01*
X140561428Y-127123690D01*
X140466190Y-127123690D01*
X140370952Y-127599880D01*
X140037619Y-126695119D02*
X140704285Y-126695119D01*
X140513809Y-126695119D02*
X140609047Y-126647500D01*
X140656666Y-126599880D01*
X140704285Y-126504642D01*
X140704285Y-126409404D01*
X139656666Y-125028452D02*
X139704285Y-125076071D01*
X139847142Y-125171309D01*
X139942380Y-125218928D01*
X140085238Y-125266547D01*
X140323333Y-125314166D01*
X140513809Y-125314166D01*
X140751904Y-125266547D01*
X140894761Y-125218928D01*
X140990000Y-125171309D01*
X141132857Y-125076071D01*
X141180476Y-125028452D01*
X141037619Y-124647500D02*
X140228095Y-124647500D01*
X140132857Y-124599880D01*
X140085238Y-124552261D01*
X140037619Y-124457023D01*
X140037619Y-124266547D01*
X140085238Y-124171309D01*
X140132857Y-124123690D01*
X140228095Y-124076071D01*
X141037619Y-124076071D01*
X140037619Y-123599880D02*
X141037619Y-123599880D01*
X140323333Y-123266547D01*
X141037619Y-122933214D01*
X140037619Y-122933214D01*
X140561428Y-122123690D02*
X140513809Y-121980833D01*
X140466190Y-121933214D01*
X140370952Y-121885595D01*
X140228095Y-121885595D01*
X140132857Y-121933214D01*
X140085238Y-121980833D01*
X140037619Y-122076071D01*
X140037619Y-122457023D01*
X141037619Y-122457023D01*
X141037619Y-122123690D01*
X140990000Y-122028452D01*
X140942380Y-121980833D01*
X140847142Y-121933214D01*
X140751904Y-121933214D01*
X140656666Y-121980833D01*
X140609047Y-122028452D01*
X140561428Y-122123690D01*
X140561428Y-122457023D01*
X139656666Y-121552261D02*
X139704285Y-121504642D01*
X139847142Y-121409404D01*
X139942380Y-121361785D01*
X140085238Y-121314166D01*
X140323333Y-121266547D01*
X140513809Y-121266547D01*
X140751904Y-121314166D01*
X140894761Y-121361785D01*
X140990000Y-121409404D01*
X141132857Y-121504642D01*
X141180476Y-121552261D01*
X139287619Y-130123690D02*
X138573333Y-130123690D01*
X138430476Y-130171309D01*
X138335238Y-130266547D01*
X138287619Y-130409404D01*
X138287619Y-130504642D01*
X138287619Y-129647500D02*
X139287619Y-129647500D01*
X139287619Y-129266547D01*
X139240000Y-129171309D01*
X139192380Y-129123690D01*
X139097142Y-129076071D01*
X138954285Y-129076071D01*
X138859047Y-129123690D01*
X138811428Y-129171309D01*
X138763809Y-129266547D01*
X138763809Y-129647500D01*
X139192380Y-128695119D02*
X139240000Y-128647500D01*
X139287619Y-128552261D01*
X139287619Y-128314166D01*
X139240000Y-128218928D01*
X139192380Y-128171309D01*
X139097142Y-128123690D01*
X139001904Y-128123690D01*
X138859047Y-128171309D01*
X138287619Y-128742738D01*
X138287619Y-128123690D01*
X139287619Y-126742738D02*
X139287619Y-126552261D01*
X139240000Y-126457023D01*
X139144761Y-126361785D01*
X138954285Y-126314166D01*
X138620952Y-126314166D01*
X138430476Y-126361785D01*
X138335238Y-126457023D01*
X138287619Y-126552261D01*
X138287619Y-126742738D01*
X138335238Y-126837976D01*
X138430476Y-126933214D01*
X138620952Y-126980833D01*
X138954285Y-126980833D01*
X139144761Y-126933214D01*
X139240000Y-126837976D01*
X139287619Y-126742738D01*
X138811428Y-125552261D02*
X138811428Y-125885595D01*
X138287619Y-125885595D02*
X139287619Y-125885595D01*
X139287619Y-125409404D01*
X138811428Y-124695119D02*
X138811428Y-125028452D01*
X138287619Y-125028452D02*
X139287619Y-125028452D01*
X139287619Y-124552261D01*
X138382857Y-124171309D02*
X138335238Y-124123690D01*
X138287619Y-124171309D01*
X138335238Y-124218928D01*
X138382857Y-124171309D01*
X138287619Y-124171309D01*
X138906666Y-124171309D02*
X138859047Y-124123690D01*
X138811428Y-124171309D01*
X138859047Y-124218928D01*
X138906666Y-124171309D01*
X138811428Y-124171309D01*
X138287619Y-122409404D02*
X138287619Y-122980833D01*
X138287619Y-122695119D02*
X139287619Y-122695119D01*
X139144761Y-122790357D01*
X139049523Y-122885595D01*
X139001904Y-122980833D01*
X139192380Y-122028452D02*
X139240000Y-121980833D01*
X139287619Y-121885595D01*
X139287619Y-121647500D01*
X139240000Y-121552261D01*
X139192380Y-121504642D01*
X139097142Y-121457023D01*
X139001904Y-121457023D01*
X138859047Y-121504642D01*
X138287619Y-122076071D01*
X138287619Y-121457023D01*
X138859047Y-120885595D02*
X138906666Y-120980833D01*
X138954285Y-121028452D01*
X139049523Y-121076071D01*
X139097142Y-121076071D01*
X139192380Y-121028452D01*
X139240000Y-120980833D01*
X139287619Y-120885595D01*
X139287619Y-120695119D01*
X139240000Y-120599880D01*
X139192380Y-120552261D01*
X139097142Y-120504642D01*
X139049523Y-120504642D01*
X138954285Y-120552261D01*
X138906666Y-120599880D01*
X138859047Y-120695119D01*
X138859047Y-120885595D01*
X138811428Y-120980833D01*
X138763809Y-121028452D01*
X138668571Y-121076071D01*
X138478095Y-121076071D01*
X138382857Y-121028452D01*
X138335238Y-120980833D01*
X138287619Y-120885595D01*
X138287619Y-120695119D01*
X138335238Y-120599880D01*
X138382857Y-120552261D01*
X138478095Y-120504642D01*
X138668571Y-120504642D01*
X138763809Y-120552261D01*
X138811428Y-120599880D01*
X138859047Y-120695119D01*
X138287619Y-120076071D02*
X139287619Y-120076071D01*
X138668571Y-119980833D02*
X138287619Y-119695119D01*
X138954285Y-119695119D02*
X138573333Y-120076071D01*
X137906666Y-118218928D02*
X137954285Y-118266547D01*
X138097142Y-118361785D01*
X138192380Y-118409404D01*
X138335238Y-118457023D01*
X138573333Y-118504642D01*
X138763809Y-118504642D01*
X139001904Y-118457023D01*
X139144761Y-118409404D01*
X139240000Y-118361785D01*
X139382857Y-118266547D01*
X139430476Y-118218928D01*
X138382857Y-117266547D02*
X138335238Y-117314166D01*
X138287619Y-117457023D01*
X138287619Y-117552261D01*
X138335238Y-117695119D01*
X138430476Y-117790357D01*
X138525714Y-117837976D01*
X138716190Y-117885595D01*
X138859047Y-117885595D01*
X139049523Y-117837976D01*
X139144761Y-117790357D01*
X139240000Y-117695119D01*
X139287619Y-117552261D01*
X139287619Y-117457023D01*
X139240000Y-117314166D01*
X139192380Y-117266547D01*
X139287619Y-116647500D02*
X139287619Y-116552261D01*
X139240000Y-116457023D01*
X139192380Y-116409404D01*
X139097142Y-116361785D01*
X138906666Y-116314166D01*
X138668571Y-116314166D01*
X138478095Y-116361785D01*
X138382857Y-116409404D01*
X138335238Y-116457023D01*
X138287619Y-116552261D01*
X138287619Y-116647500D01*
X138335238Y-116742738D01*
X138382857Y-116790357D01*
X138478095Y-116837976D01*
X138668571Y-116885595D01*
X138906666Y-116885595D01*
X139097142Y-116837976D01*
X139192380Y-116790357D01*
X139240000Y-116742738D01*
X139287619Y-116647500D01*
X139287619Y-115695119D02*
X139287619Y-115599880D01*
X139240000Y-115504642D01*
X139192380Y-115457023D01*
X139097142Y-115409404D01*
X138906666Y-115361785D01*
X138668571Y-115361785D01*
X138478095Y-115409404D01*
X138382857Y-115457023D01*
X138335238Y-115504642D01*
X138287619Y-115599880D01*
X138287619Y-115695119D01*
X138335238Y-115790357D01*
X138382857Y-115837976D01*
X138478095Y-115885595D01*
X138668571Y-115933214D01*
X138906666Y-115933214D01*
X139097142Y-115885595D01*
X139192380Y-115837976D01*
X139240000Y-115790357D01*
X139287619Y-115695119D01*
X139287619Y-114742738D02*
X139287619Y-114647500D01*
X139240000Y-114552261D01*
X139192380Y-114504642D01*
X139097142Y-114457023D01*
X138906666Y-114409404D01*
X138668571Y-114409404D01*
X138478095Y-114457023D01*
X138382857Y-114504642D01*
X138335238Y-114552261D01*
X138287619Y-114647500D01*
X138287619Y-114742738D01*
X138335238Y-114837976D01*
X138382857Y-114885595D01*
X138478095Y-114933214D01*
X138668571Y-114980833D01*
X138906666Y-114980833D01*
X139097142Y-114933214D01*
X139192380Y-114885595D01*
X139240000Y-114837976D01*
X139287619Y-114742738D01*
X139287619Y-113790357D02*
X139287619Y-113695119D01*
X139240000Y-113599880D01*
X139192380Y-113552261D01*
X139097142Y-113504642D01*
X138906666Y-113457023D01*
X138668571Y-113457023D01*
X138478095Y-113504642D01*
X138382857Y-113552261D01*
X138335238Y-113599880D01*
X138287619Y-113695119D01*
X138287619Y-113790357D01*
X138335238Y-113885595D01*
X138382857Y-113933214D01*
X138478095Y-113980833D01*
X138668571Y-114028452D01*
X138906666Y-114028452D01*
X139097142Y-113980833D01*
X139192380Y-113933214D01*
X139240000Y-113885595D01*
X139287619Y-113790357D01*
X138287619Y-113028452D02*
X139287619Y-113028452D01*
X138287619Y-112599880D02*
X138811428Y-112599880D01*
X138906666Y-112647500D01*
X138954285Y-112742738D01*
X138954285Y-112885595D01*
X138906666Y-112980833D01*
X138859047Y-113028452D01*
X138668571Y-112123690D02*
X138668571Y-111361785D01*
X138287619Y-110885595D02*
X139287619Y-110885595D01*
X139287619Y-110647500D01*
X139240000Y-110504642D01*
X139144761Y-110409404D01*
X139049523Y-110361785D01*
X138859047Y-110314166D01*
X138716190Y-110314166D01*
X138525714Y-110361785D01*
X138430476Y-110409404D01*
X138335238Y-110504642D01*
X138287619Y-110647500D01*
X138287619Y-110885595D01*
X138811428Y-109552261D02*
X138811428Y-109885595D01*
X138287619Y-109885595D02*
X139287619Y-109885595D01*
X139287619Y-109409404D01*
X138811428Y-108695119D02*
X138811428Y-109028452D01*
X138287619Y-109028452D02*
X139287619Y-109028452D01*
X139287619Y-108552261D01*
X138811428Y-107837976D02*
X138811428Y-108171309D01*
X138287619Y-108171309D02*
X139287619Y-108171309D01*
X139287619Y-107695119D01*
X138811428Y-106980833D02*
X138811428Y-107314166D01*
X138287619Y-107314166D02*
X139287619Y-107314166D01*
X139287619Y-106837976D01*
X138287619Y-106457023D02*
X139287619Y-106457023D01*
X138287619Y-106028452D02*
X138811428Y-106028452D01*
X138906666Y-106076071D01*
X138954285Y-106171309D01*
X138954285Y-106314166D01*
X138906666Y-106409404D01*
X138859047Y-106457023D01*
X137906666Y-105647500D02*
X137954285Y-105599880D01*
X138097142Y-105504642D01*
X138192380Y-105457023D01*
X138335238Y-105409404D01*
X138573333Y-105361785D01*
X138763809Y-105361785D01*
X139001904Y-105409404D01*
X139144761Y-105457023D01*
X139240000Y-105504642D01*
X139382857Y-105599880D01*
X139430476Y-105647500D01*
X137537619Y-130123690D02*
X136823333Y-130123690D01*
X136680476Y-130171309D01*
X136585238Y-130266547D01*
X136537619Y-130409404D01*
X136537619Y-130504642D01*
X136537619Y-129647500D02*
X137537619Y-129647500D01*
X137537619Y-129266547D01*
X137490000Y-129171309D01*
X137442380Y-129123690D01*
X137347142Y-129076071D01*
X137204285Y-129076071D01*
X137109047Y-129123690D01*
X137061428Y-129171309D01*
X137013809Y-129266547D01*
X137013809Y-129647500D01*
X137442380Y-128695119D02*
X137490000Y-128647500D01*
X137537619Y-128552261D01*
X137537619Y-128314166D01*
X137490000Y-128218928D01*
X137442380Y-128171309D01*
X137347142Y-128123690D01*
X137251904Y-128123690D01*
X137109047Y-128171309D01*
X136537619Y-128742738D01*
X136537619Y-128123690D01*
X137537619Y-126742738D02*
X137537619Y-126552261D01*
X137490000Y-126457023D01*
X137394761Y-126361785D01*
X137204285Y-126314166D01*
X136870952Y-126314166D01*
X136680476Y-126361785D01*
X136585238Y-126457023D01*
X136537619Y-126552261D01*
X136537619Y-126742738D01*
X136585238Y-126837976D01*
X136680476Y-126933214D01*
X136870952Y-126980833D01*
X137204285Y-126980833D01*
X137394761Y-126933214D01*
X137490000Y-126837976D01*
X137537619Y-126742738D01*
X136537619Y-125885595D02*
X137537619Y-125885595D01*
X136537619Y-125314166D01*
X137537619Y-125314166D01*
X136632857Y-124837976D02*
X136585238Y-124790357D01*
X136537619Y-124837976D01*
X136585238Y-124885595D01*
X136632857Y-124837976D01*
X136537619Y-124837976D01*
X137156666Y-124837976D02*
X137109047Y-124790357D01*
X137061428Y-124837976D01*
X137109047Y-124885595D01*
X137156666Y-124837976D01*
X137061428Y-124837976D01*
X136537619Y-123552261D02*
X136537619Y-123361785D01*
X136585238Y-123266547D01*
X136632857Y-123218928D01*
X136775714Y-123123690D01*
X136966190Y-123076071D01*
X137347142Y-123076071D01*
X137442380Y-123123690D01*
X137490000Y-123171309D01*
X137537619Y-123266547D01*
X137537619Y-123457023D01*
X137490000Y-123552261D01*
X137442380Y-123599880D01*
X137347142Y-123647500D01*
X137109047Y-123647500D01*
X137013809Y-123599880D01*
X136966190Y-123552261D01*
X136918571Y-123457023D01*
X136918571Y-123266547D01*
X136966190Y-123171309D01*
X137013809Y-123123690D01*
X137109047Y-123076071D01*
X137537619Y-122218928D02*
X137537619Y-122409404D01*
X137490000Y-122504642D01*
X137442380Y-122552261D01*
X137299523Y-122647500D01*
X137109047Y-122695119D01*
X136728095Y-122695119D01*
X136632857Y-122647500D01*
X136585238Y-122599880D01*
X136537619Y-122504642D01*
X136537619Y-122314166D01*
X136585238Y-122218928D01*
X136632857Y-122171309D01*
X136728095Y-122123690D01*
X136966190Y-122123690D01*
X137061428Y-122171309D01*
X137109047Y-122218928D01*
X137156666Y-122314166D01*
X137156666Y-122504642D01*
X137109047Y-122599880D01*
X137061428Y-122647500D01*
X136966190Y-122695119D01*
X136537619Y-121695119D02*
X137537619Y-121695119D01*
X136918571Y-121599880D02*
X136537619Y-121314166D01*
X137204285Y-121314166D02*
X136823333Y-121695119D01*
X136156666Y-119837976D02*
X136204285Y-119885595D01*
X136347142Y-119980833D01*
X136442380Y-120028452D01*
X136585238Y-120076071D01*
X136823333Y-120123690D01*
X137013809Y-120123690D01*
X137251904Y-120076071D01*
X137394761Y-120028452D01*
X137490000Y-119980833D01*
X137632857Y-119885595D01*
X137680476Y-119837976D01*
X136632857Y-118885595D02*
X136585238Y-118933214D01*
X136537619Y-119076071D01*
X136537619Y-119171309D01*
X136585238Y-119314166D01*
X136680476Y-119409404D01*
X136775714Y-119457023D01*
X136966190Y-119504642D01*
X137109047Y-119504642D01*
X137299523Y-119457023D01*
X137394761Y-119409404D01*
X137490000Y-119314166D01*
X137537619Y-119171309D01*
X137537619Y-119076071D01*
X137490000Y-118933214D01*
X137442380Y-118885595D01*
X137109047Y-118314166D02*
X137156666Y-118409404D01*
X137204285Y-118457023D01*
X137299523Y-118504642D01*
X137347142Y-118504642D01*
X137442380Y-118457023D01*
X137490000Y-118409404D01*
X137537619Y-118314166D01*
X137537619Y-118123690D01*
X137490000Y-118028452D01*
X137442380Y-117980833D01*
X137347142Y-117933214D01*
X137299523Y-117933214D01*
X137204285Y-117980833D01*
X137156666Y-118028452D01*
X137109047Y-118123690D01*
X137109047Y-118314166D01*
X137061428Y-118409404D01*
X137013809Y-118457023D01*
X136918571Y-118504642D01*
X136728095Y-118504642D01*
X136632857Y-118457023D01*
X136585238Y-118409404D01*
X136537619Y-118314166D01*
X136537619Y-118123690D01*
X136585238Y-118028452D01*
X136632857Y-117980833D01*
X136728095Y-117933214D01*
X136918571Y-117933214D01*
X137013809Y-117980833D01*
X137061428Y-118028452D01*
X137109047Y-118123690D01*
X137537619Y-117314166D02*
X137537619Y-117218928D01*
X137490000Y-117123690D01*
X137442380Y-117076071D01*
X137347142Y-117028452D01*
X137156666Y-116980833D01*
X136918571Y-116980833D01*
X136728095Y-117028452D01*
X136632857Y-117076071D01*
X136585238Y-117123690D01*
X136537619Y-117218928D01*
X136537619Y-117314166D01*
X136585238Y-117409404D01*
X136632857Y-117457023D01*
X136728095Y-117504642D01*
X136918571Y-117552261D01*
X137156666Y-117552261D01*
X137347142Y-117504642D01*
X137442380Y-117457023D01*
X137490000Y-117409404D01*
X137537619Y-117314166D01*
X137537619Y-116361785D02*
X137537619Y-116266547D01*
X137490000Y-116171309D01*
X137442380Y-116123690D01*
X137347142Y-116076071D01*
X137156666Y-116028452D01*
X136918571Y-116028452D01*
X136728095Y-116076071D01*
X136632857Y-116123690D01*
X136585238Y-116171309D01*
X136537619Y-116266547D01*
X136537619Y-116361785D01*
X136585238Y-116457023D01*
X136632857Y-116504642D01*
X136728095Y-116552261D01*
X136918571Y-116599880D01*
X137156666Y-116599880D01*
X137347142Y-116552261D01*
X137442380Y-116504642D01*
X137490000Y-116457023D01*
X137537619Y-116361785D01*
X137537619Y-115409404D02*
X137537619Y-115314166D01*
X137490000Y-115218928D01*
X137442380Y-115171309D01*
X137347142Y-115123690D01*
X137156666Y-115076071D01*
X136918571Y-115076071D01*
X136728095Y-115123690D01*
X136632857Y-115171309D01*
X136585238Y-115218928D01*
X136537619Y-115314166D01*
X136537619Y-115409404D01*
X136585238Y-115504642D01*
X136632857Y-115552261D01*
X136728095Y-115599880D01*
X136918571Y-115647500D01*
X137156666Y-115647500D01*
X137347142Y-115599880D01*
X137442380Y-115552261D01*
X137490000Y-115504642D01*
X137537619Y-115409404D01*
X136537619Y-114647500D02*
X137537619Y-114647500D01*
X136537619Y-114218928D02*
X137061428Y-114218928D01*
X137156666Y-114266547D01*
X137204285Y-114361785D01*
X137204285Y-114504642D01*
X137156666Y-114599880D01*
X137109047Y-114647500D01*
X136918571Y-112980833D02*
X136918571Y-112218928D01*
X136537619Y-110980833D02*
X137537619Y-110980833D01*
X137537619Y-110742738D01*
X137490000Y-110599880D01*
X137394761Y-110504642D01*
X137299523Y-110457023D01*
X137109047Y-110409404D01*
X136966190Y-110409404D01*
X136775714Y-110457023D01*
X136680476Y-110504642D01*
X136585238Y-110599880D01*
X136537619Y-110742738D01*
X136537619Y-110980833D01*
X137061428Y-109647500D02*
X137061428Y-109980833D01*
X136537619Y-109980833D02*
X137537619Y-109980833D01*
X137537619Y-109504642D01*
X137061428Y-108790357D02*
X137061428Y-109123690D01*
X136537619Y-109123690D02*
X137537619Y-109123690D01*
X137537619Y-108647500D01*
X137061428Y-107933214D02*
X137061428Y-108266547D01*
X136537619Y-108266547D02*
X137537619Y-108266547D01*
X137537619Y-107790357D01*
X137061428Y-107076071D02*
X137061428Y-107409404D01*
X136537619Y-107409404D02*
X137537619Y-107409404D01*
X137537619Y-106933214D01*
X136537619Y-106552261D02*
X137537619Y-106552261D01*
X136537619Y-106123690D02*
X137061428Y-106123690D01*
X137156666Y-106171309D01*
X137204285Y-106266547D01*
X137204285Y-106409404D01*
X137156666Y-106504642D01*
X137109047Y-106552261D01*
X136156666Y-105742738D02*
X136204285Y-105695119D01*
X136347142Y-105599880D01*
X136442380Y-105552261D01*
X136585238Y-105504642D01*
X136823333Y-105457023D01*
X137013809Y-105457023D01*
X137251904Y-105504642D01*
X137394761Y-105552261D01*
X137490000Y-105599880D01*
X137632857Y-105695119D01*
X137680476Y-105742738D01*
D13*
X158750000Y-55185000D02*
X157420000Y-55185000D01*
X157420000Y-55185000D02*
X157420000Y-56515000D01*
X160020000Y-55185000D02*
X160020000Y-57785000D01*
X160020000Y-57785000D02*
X157420000Y-57785000D01*
X157420000Y-57785000D02*
X157420000Y-134045000D01*
X162620000Y-134045000D02*
X157420000Y-134045000D01*
X162620000Y-55185000D02*
X162620000Y-134045000D01*
X162620000Y-55185000D02*
X160020000Y-55185000D01*
M02*
