M48
; DRILL file {KiCad (5.1.4)-1} date 11/3/2019 1:43:00 PM
; FORMAT={-:-/ absolute / inch / decimal}
; #@! TF.CreationDate,2019-11-03T13:43:00-08:00
; #@! TF.GenerationSoftware,Kicad,Pcbnew,(5.1.4)-1
FMAT,2
INCH
T1C0.0157
T2C0.0236
T3C0.0315
T4C0.0354
T5C0.0394
%
G90
G05
T1
X4.625Y-3.875
X4.7Y-3.175
X4.7Y-3.25
X4.75Y-4.175
X4.8Y-4.35
X4.925Y-3.775
X4.95Y-2.95
X4.95Y-4.9
X5.0Y-3.4
X5.025Y-3.575
X5.1Y-3.9
X5.1Y-4.0
X5.1Y-4.275
X5.1Y-4.7
X5.125Y-2.85
X5.125Y-3.15
X5.125Y-4.95
X5.175Y-2.475
X5.175Y-4.85
X5.2Y-5.0
X5.2Y-5.1
X5.2Y-5.2
X5.225Y-2.525
X5.25Y-3.225
X5.275Y-3.575
X5.3Y-3.325
X5.3Y-3.425
X5.325Y-2.675
X5.375Y-3.0
X5.38Y-2.94
X5.395Y-3.075
X5.45Y-5.3
X5.475Y-3.425
X5.475Y-4.35
X5.525Y-2.925
X5.525Y-5.25
X5.625Y-3.775
X5.9Y-2.36
X5.9Y-3.38
X6.02Y-3.38
X6.075Y-3.95
X6.075Y-4.15
X6.1Y-3.325
X6.15Y-4.375
T2
X5.95Y-2.225
X6.0287Y-2.225
T3
X4.7Y-2.5
X4.7Y-2.6
X4.7Y-2.7
X4.7Y-2.8
X4.7Y-2.9
X4.7Y-3.0
X4.7Y-3.1
X5.0Y-2.5
X5.0Y-2.6
X5.0Y-2.7
X5.0Y-2.8
X5.0Y-2.9
X5.0Y-3.0
X5.0Y-3.1
X4.7Y-3.725
X4.7Y-3.825
X4.7Y-3.925
X4.7Y-4.025
X4.7Y-4.125
X4.7Y-4.225
X4.7Y-4.325
X5.0Y-3.725
X5.0Y-3.825
X5.0Y-3.925
X5.0Y-4.025
X5.0Y-4.125
X5.0Y-4.225
X5.0Y-4.325
X4.825Y-2.3
X4.9234Y-2.3
X5.3Y-3.75
X5.3Y-3.85
X5.3Y-3.95
X5.3Y-4.05
X5.3Y-4.15
X5.3Y-4.25
X5.3Y-4.35
X5.3Y-4.45
X5.3Y-4.55
X5.3Y-4.65
X5.3Y-4.75
X5.3Y-4.85
X5.3Y-4.95
X5.3Y-5.05
X5.3Y-5.15
X5.3Y-5.25
X5.9Y-3.75
X5.9Y-3.85
X5.9Y-3.95
X5.9Y-4.05
X5.9Y-4.15
X5.9Y-4.25
X5.9Y-4.35
X5.9Y-4.45
X5.9Y-4.55
X5.9Y-4.65
X5.9Y-4.75
X5.9Y-4.85
X5.9Y-4.95
X5.9Y-5.05
X5.9Y-5.15
X5.9Y-5.25
X5.575Y-2.2
X5.6734Y-2.2
X5.0Y-4.575
X5.0Y-4.975
X5.475Y-2.375
X5.475Y-2.475
X5.475Y-2.575
X5.475Y-2.675
X5.475Y-2.775
X5.475Y-2.875
X5.475Y-2.975
X5.475Y-3.075
X5.475Y-3.175
X5.475Y-3.275
X5.775Y-2.375
X5.775Y-2.475
X5.775Y-2.575
X5.775Y-2.675
X5.775Y-2.775
X5.775Y-2.875
X5.775Y-2.975
X5.775Y-3.075
X5.775Y-3.175
X5.775Y-3.275
X4.8Y-3.55
X4.8984Y-3.55
X5.525Y-3.6
X5.6234Y-3.6
X4.875Y-4.575
X4.875Y-4.975
X4.75Y-4.575
X4.75Y-4.975
T4
X4.8Y-5.2
X4.9Y-5.2
T5
X5.25Y-3.0
X5.25Y-3.1
X6.25Y-2.225
X6.25Y-2.325
X6.25Y-2.425
X6.25Y-2.525
X6.25Y-2.625
X6.25Y-2.725
X6.25Y-2.825
X6.25Y-2.925
X6.25Y-3.025
X6.25Y-3.125
X6.25Y-3.225
X6.25Y-3.325
X6.25Y-3.425
X6.25Y-3.525
X6.25Y-3.625
X6.25Y-3.725
X6.25Y-3.825
X6.25Y-3.925
X6.25Y-4.025
X6.25Y-4.125
X6.25Y-4.225
X6.25Y-4.325
X6.25Y-4.425
X6.25Y-4.525
X6.25Y-4.625
X6.25Y-4.725
X6.25Y-4.825
X6.25Y-4.925
X6.25Y-5.025
X6.25Y-5.125
X6.25Y-5.225
X6.35Y-2.225
X6.35Y-2.325
X6.35Y-2.425
X6.35Y-2.525
X6.35Y-2.625
X6.35Y-2.725
X6.35Y-2.825
X6.35Y-2.925
X6.35Y-3.025
X6.35Y-3.125
X6.35Y-3.225
X6.35Y-3.325
X6.35Y-3.425
X6.35Y-3.525
X6.35Y-3.625
X6.35Y-3.725
X6.35Y-3.825
X6.35Y-3.925
X6.35Y-4.025
X6.35Y-4.125
X6.35Y-4.225
X6.35Y-4.325
X6.35Y-4.425
X6.35Y-4.525
X6.35Y-4.625
X6.35Y-4.725
X6.35Y-4.825
X6.35Y-4.925
X6.35Y-5.025
X6.35Y-5.125
X6.35Y-5.225
X5.25Y-2.625
X5.25Y-2.725
X6.55Y-2.225
X6.55Y-2.325
X6.55Y-2.425
X6.55Y-2.525
X6.55Y-2.625
X6.55Y-2.725
X6.55Y-2.825
X6.55Y-2.925
X6.55Y-3.025
X6.55Y-3.125
X6.55Y-3.225
X6.55Y-3.325
X6.55Y-3.425
X6.55Y-3.525
X6.55Y-3.625
X6.55Y-3.725
X6.55Y-3.825
X6.55Y-3.925
X6.55Y-4.025
X6.55Y-4.125
X6.55Y-4.225
X6.55Y-4.325
X6.55Y-4.425
X6.55Y-4.525
X6.55Y-4.625
X6.55Y-4.725
X6.55Y-4.825
X6.55Y-4.925
X6.55Y-5.025
X6.55Y-5.125
X6.55Y-5.225
X6.65Y-2.225
X6.65Y-2.325
X6.65Y-2.425
X6.65Y-2.525
X6.65Y-2.625
X6.65Y-2.725
X6.65Y-2.825
X6.65Y-2.925
X6.65Y-3.025
X6.65Y-3.125
X6.65Y-3.225
X6.65Y-3.325
X6.65Y-3.425
X6.65Y-3.525
X6.65Y-3.625
X6.65Y-3.725
X6.65Y-3.825
X6.65Y-3.925
X6.65Y-4.025
X6.65Y-4.125
X6.65Y-4.225
X6.65Y-4.325
X6.65Y-4.425
X6.65Y-4.525
X6.65Y-4.625
X6.65Y-4.725
X6.65Y-4.825
X6.65Y-4.925
X6.65Y-5.025
X6.65Y-5.125
X6.65Y-5.225
T0
M30
