G04 #@! TF.GenerationSoftware,KiCad,Pcbnew,(5.1.4)-1*
G04 #@! TF.CreationDate,2019-11-03T13:42:45-08:00*
G04 #@! TF.ProjectId,Tandy 1000 EX Memory Card,54616e64-7920-4313-9030-30204558204d,rev?*
G04 #@! TF.SameCoordinates,Original*
G04 #@! TF.FileFunction,Legend,Top*
G04 #@! TF.FilePolarity,Positive*
%FSLAX46Y46*%
G04 Gerber Fmt 4.6, Leading zero omitted, Abs format (unit mm)*
G04 Created by KiCad (PCBNEW (5.1.4)-1) date 2019-11-03 13:42:45*
%MOMM*%
%LPD*%
G04 APERTURE LIST*
%ADD10C,0.150000*%
%ADD11C,0.400000*%
%ADD12C,0.300000*%
%ADD13C,0.120000*%
G04 APERTURE END LIST*
D10*
X128484380Y-70032000D02*
X128484380Y-69841523D01*
X128532000Y-69746285D01*
X128627238Y-69651047D01*
X128817714Y-69603428D01*
X129151047Y-69603428D01*
X129341523Y-69651047D01*
X129436761Y-69746285D01*
X129484380Y-69841523D01*
X129484380Y-70032000D01*
X129436761Y-70127238D01*
X129341523Y-70222476D01*
X129151047Y-70270095D01*
X128817714Y-70270095D01*
X128627238Y-70222476D01*
X128532000Y-70127238D01*
X128484380Y-70032000D01*
X128817714Y-69174857D02*
X129484380Y-69174857D01*
X128912952Y-69174857D02*
X128865333Y-69127238D01*
X128817714Y-69032000D01*
X128817714Y-68889142D01*
X128865333Y-68793904D01*
X128960571Y-68746285D01*
X129484380Y-68746285D01*
X129389142Y-68270095D02*
X129436761Y-68222476D01*
X129484380Y-68270095D01*
X129436761Y-68317714D01*
X129389142Y-68270095D01*
X129484380Y-68270095D01*
X128865333Y-68270095D02*
X128912952Y-68222476D01*
X128960571Y-68270095D01*
X128912952Y-68317714D01*
X128865333Y-68270095D01*
X128960571Y-68270095D01*
X129484380Y-66984380D02*
X129484380Y-66793904D01*
X129436761Y-66698666D01*
X129389142Y-66651047D01*
X129246285Y-66555809D01*
X129055809Y-66508190D01*
X128674857Y-66508190D01*
X128579619Y-66555809D01*
X128532000Y-66603428D01*
X128484380Y-66698666D01*
X128484380Y-66889142D01*
X128532000Y-66984380D01*
X128579619Y-67032000D01*
X128674857Y-67079619D01*
X128912952Y-67079619D01*
X129008190Y-67032000D01*
X129055809Y-66984380D01*
X129103428Y-66889142D01*
X129103428Y-66698666D01*
X129055809Y-66603428D01*
X129008190Y-66555809D01*
X128912952Y-66508190D01*
X128484380Y-65651047D02*
X128484380Y-65841523D01*
X128532000Y-65936761D01*
X128579619Y-65984380D01*
X128722476Y-66079619D01*
X128912952Y-66127238D01*
X129293904Y-66127238D01*
X129389142Y-66079619D01*
X129436761Y-66032000D01*
X129484380Y-65936761D01*
X129484380Y-65746285D01*
X129436761Y-65651047D01*
X129389142Y-65603428D01*
X129293904Y-65555809D01*
X129055809Y-65555809D01*
X128960571Y-65603428D01*
X128912952Y-65651047D01*
X128865333Y-65746285D01*
X128865333Y-65936761D01*
X128912952Y-66032000D01*
X128960571Y-66079619D01*
X129055809Y-66127238D01*
X129484380Y-65127238D02*
X128484380Y-65127238D01*
X129103428Y-65032000D02*
X129484380Y-64746285D01*
X128817714Y-64746285D02*
X129198666Y-65127238D01*
X128484380Y-63555809D02*
X129293904Y-63555809D01*
X129389142Y-63508190D01*
X129436761Y-63460571D01*
X129484380Y-63365333D01*
X129484380Y-63174857D01*
X129436761Y-63079619D01*
X129389142Y-63032000D01*
X129293904Y-62984380D01*
X128484380Y-62984380D01*
X129484380Y-62508190D02*
X128484380Y-62508190D01*
X129198666Y-62174857D01*
X128484380Y-61841523D01*
X129484380Y-61841523D01*
X128960571Y-61032000D02*
X129008190Y-60889142D01*
X129055809Y-60841523D01*
X129151047Y-60793904D01*
X129293904Y-60793904D01*
X129389142Y-60841523D01*
X129436761Y-60889142D01*
X129484380Y-60984380D01*
X129484380Y-61365333D01*
X128484380Y-61365333D01*
X128484380Y-61032000D01*
X128532000Y-60936761D01*
X128579619Y-60889142D01*
X128674857Y-60841523D01*
X128770095Y-60841523D01*
X128865333Y-60889142D01*
X128912952Y-60936761D01*
X128960571Y-61032000D01*
X128960571Y-61365333D01*
X164750714Y-54427380D02*
X164179285Y-54427380D01*
X164465000Y-54427380D02*
X164465000Y-53427380D01*
X164369761Y-53570238D01*
X164274523Y-53665476D01*
X164179285Y-53713095D01*
X156495714Y-54427380D02*
X155924285Y-54427380D01*
X156210000Y-54427380D02*
X156210000Y-53427380D01*
X156114761Y-53570238D01*
X156019523Y-53665476D01*
X155924285Y-53713095D01*
X126619047Y-132151428D02*
X127380952Y-132151428D01*
X127000000Y-132532380D02*
X127000000Y-131770476D01*
X118999047Y-132151428D02*
X119760952Y-132151428D01*
X135660000Y-90892380D02*
X135755238Y-90892380D01*
X135850476Y-90940000D01*
X135898095Y-90987619D01*
X135945714Y-91082857D01*
X135993333Y-91273333D01*
X135993333Y-91511428D01*
X135945714Y-91701904D01*
X135898095Y-91797142D01*
X135850476Y-91844761D01*
X135755238Y-91892380D01*
X135660000Y-91892380D01*
X135564761Y-91844761D01*
X135517142Y-91797142D01*
X135469523Y-91701904D01*
X135421904Y-91511428D01*
X135421904Y-91273333D01*
X135469523Y-91082857D01*
X135517142Y-90987619D01*
X135564761Y-90940000D01*
X135660000Y-90892380D01*
X136421904Y-91797142D02*
X136469523Y-91844761D01*
X136421904Y-91892380D01*
X136374285Y-91844761D01*
X136421904Y-91797142D01*
X136421904Y-91892380D01*
X137421904Y-91892380D02*
X136850476Y-91892380D01*
X137136190Y-91892380D02*
X137136190Y-90892380D01*
X137040952Y-91035238D01*
X136945714Y-91130476D01*
X136850476Y-91178095D01*
X138279047Y-91225714D02*
X138279047Y-91892380D01*
X137850476Y-91225714D02*
X137850476Y-91749523D01*
X137898095Y-91844761D01*
X137993333Y-91892380D01*
X138136190Y-91892380D01*
X138231428Y-91844761D01*
X138279047Y-91797142D01*
X138612380Y-91225714D02*
X138993333Y-91225714D01*
X138755238Y-91892380D02*
X138755238Y-91035238D01*
X138802857Y-90940000D01*
X138898095Y-90892380D01*
X138993333Y-90892380D01*
X136930000Y-55332380D02*
X137025238Y-55332380D01*
X137120476Y-55380000D01*
X137168095Y-55427619D01*
X137215714Y-55522857D01*
X137263333Y-55713333D01*
X137263333Y-55951428D01*
X137215714Y-56141904D01*
X137168095Y-56237142D01*
X137120476Y-56284761D01*
X137025238Y-56332380D01*
X136930000Y-56332380D01*
X136834761Y-56284761D01*
X136787142Y-56237142D01*
X136739523Y-56141904D01*
X136691904Y-55951428D01*
X136691904Y-55713333D01*
X136739523Y-55522857D01*
X136787142Y-55427619D01*
X136834761Y-55380000D01*
X136930000Y-55332380D01*
X137691904Y-56237142D02*
X137739523Y-56284761D01*
X137691904Y-56332380D01*
X137644285Y-56284761D01*
X137691904Y-56237142D01*
X137691904Y-56332380D01*
X138691904Y-56332380D02*
X138120476Y-56332380D01*
X138406190Y-56332380D02*
X138406190Y-55332380D01*
X138310952Y-55475238D01*
X138215714Y-55570476D01*
X138120476Y-55618095D01*
X139549047Y-55665714D02*
X139549047Y-56332380D01*
X139120476Y-55665714D02*
X139120476Y-56189523D01*
X139168095Y-56284761D01*
X139263333Y-56332380D01*
X139406190Y-56332380D01*
X139501428Y-56284761D01*
X139549047Y-56237142D01*
X139882380Y-55665714D02*
X140263333Y-55665714D01*
X140025238Y-56332380D02*
X140025238Y-55475238D01*
X140072857Y-55380000D01*
X140168095Y-55332380D01*
X140263333Y-55332380D01*
D11*
X122094761Y-75770714D02*
X122094761Y-74437380D01*
X124094761Y-75294523D01*
X122761428Y-72818333D02*
X124094761Y-72818333D01*
X121999523Y-73294523D02*
X123428095Y-73770714D01*
X123428095Y-72532619D01*
X124094761Y-70818333D02*
X124094761Y-71770714D01*
X122094761Y-71770714D01*
X123999523Y-70246904D02*
X124094761Y-69961190D01*
X124094761Y-69485000D01*
X123999523Y-69294523D01*
X123904285Y-69199285D01*
X123713809Y-69104047D01*
X123523333Y-69104047D01*
X123332857Y-69199285D01*
X123237619Y-69294523D01*
X123142380Y-69485000D01*
X123047142Y-69865952D01*
X122951904Y-70056428D01*
X122856666Y-70151666D01*
X122666190Y-70246904D01*
X122475714Y-70246904D01*
X122285238Y-70151666D01*
X122190000Y-70056428D01*
X122094761Y-69865952D01*
X122094761Y-69389761D01*
X122190000Y-69104047D01*
X122094761Y-68437380D02*
X122094761Y-67199285D01*
X122856666Y-67865952D01*
X122856666Y-67580238D01*
X122951904Y-67389761D01*
X123047142Y-67294523D01*
X123237619Y-67199285D01*
X123713809Y-67199285D01*
X123904285Y-67294523D01*
X123999523Y-67389761D01*
X124094761Y-67580238D01*
X124094761Y-68151666D01*
X123999523Y-68342142D01*
X123904285Y-68437380D01*
X122285238Y-66437380D02*
X122190000Y-66342142D01*
X122094761Y-66151666D01*
X122094761Y-65675476D01*
X122190000Y-65485000D01*
X122285238Y-65389761D01*
X122475714Y-65294523D01*
X122666190Y-65294523D01*
X122951904Y-65389761D01*
X124094761Y-66532619D01*
X124094761Y-65294523D01*
X142573333Y-125569761D02*
X142573333Y-124617380D01*
X143144761Y-125760238D02*
X141144761Y-125093571D01*
X143144761Y-124426904D01*
X143049523Y-123855476D02*
X143144761Y-123569761D01*
X143144761Y-123093571D01*
X143049523Y-122903095D01*
X142954285Y-122807857D01*
X142763809Y-122712619D01*
X142573333Y-122712619D01*
X142382857Y-122807857D01*
X142287619Y-122903095D01*
X142192380Y-123093571D01*
X142097142Y-123474523D01*
X142001904Y-123665000D01*
X141906666Y-123760238D01*
X141716190Y-123855476D01*
X141525714Y-123855476D01*
X141335238Y-123760238D01*
X141240000Y-123665000D01*
X141144761Y-123474523D01*
X141144761Y-122998333D01*
X141240000Y-122712619D01*
X141144761Y-120998333D02*
X141144761Y-121379285D01*
X141240000Y-121569761D01*
X141335238Y-121665000D01*
X141620952Y-121855476D01*
X142001904Y-121950714D01*
X142763809Y-121950714D01*
X142954285Y-121855476D01*
X143049523Y-121760238D01*
X143144761Y-121569761D01*
X143144761Y-121188809D01*
X143049523Y-120998333D01*
X142954285Y-120903095D01*
X142763809Y-120807857D01*
X142287619Y-120807857D01*
X142097142Y-120903095D01*
X142001904Y-120998333D01*
X141906666Y-121188809D01*
X141906666Y-121569761D01*
X142001904Y-121760238D01*
X142097142Y-121855476D01*
X142287619Y-121950714D01*
X142954285Y-118807857D02*
X143049523Y-118903095D01*
X143144761Y-119188809D01*
X143144761Y-119379285D01*
X143049523Y-119665000D01*
X142859047Y-119855476D01*
X142668571Y-119950714D01*
X142287619Y-120045952D01*
X142001904Y-120045952D01*
X141620952Y-119950714D01*
X141430476Y-119855476D01*
X141240000Y-119665000D01*
X141144761Y-119379285D01*
X141144761Y-119188809D01*
X141240000Y-118903095D01*
X141335238Y-118807857D01*
X141811428Y-117093571D02*
X143144761Y-117093571D01*
X141049523Y-117569761D02*
X142478095Y-118045952D01*
X142478095Y-116807857D01*
X141144761Y-115665000D02*
X141144761Y-115474523D01*
X141240000Y-115284047D01*
X141335238Y-115188809D01*
X141525714Y-115093571D01*
X141906666Y-114998333D01*
X142382857Y-114998333D01*
X142763809Y-115093571D01*
X142954285Y-115188809D01*
X143049523Y-115284047D01*
X143144761Y-115474523D01*
X143144761Y-115665000D01*
X143049523Y-115855476D01*
X142954285Y-115950714D01*
X142763809Y-116045952D01*
X142382857Y-116141190D01*
X141906666Y-116141190D01*
X141525714Y-116045952D01*
X141335238Y-115950714D01*
X141240000Y-115855476D01*
X141144761Y-115665000D01*
X141144761Y-113760238D02*
X141144761Y-113569761D01*
X141240000Y-113379285D01*
X141335238Y-113284047D01*
X141525714Y-113188809D01*
X141906666Y-113093571D01*
X142382857Y-113093571D01*
X142763809Y-113188809D01*
X142954285Y-113284047D01*
X143049523Y-113379285D01*
X143144761Y-113569761D01*
X143144761Y-113760238D01*
X143049523Y-113950714D01*
X142954285Y-114045952D01*
X142763809Y-114141190D01*
X142382857Y-114236428D01*
X141906666Y-114236428D01*
X141525714Y-114141190D01*
X141335238Y-114045952D01*
X141240000Y-113950714D01*
X141144761Y-113760238D01*
X142001904Y-111950714D02*
X141906666Y-112141190D01*
X141811428Y-112236428D01*
X141620952Y-112331666D01*
X141525714Y-112331666D01*
X141335238Y-112236428D01*
X141240000Y-112141190D01*
X141144761Y-111950714D01*
X141144761Y-111569761D01*
X141240000Y-111379285D01*
X141335238Y-111284047D01*
X141525714Y-111188809D01*
X141620952Y-111188809D01*
X141811428Y-111284047D01*
X141906666Y-111379285D01*
X142001904Y-111569761D01*
X142001904Y-111950714D01*
X142097142Y-112141190D01*
X142192380Y-112236428D01*
X142382857Y-112331666D01*
X142763809Y-112331666D01*
X142954285Y-112236428D01*
X143049523Y-112141190D01*
X143144761Y-111950714D01*
X143144761Y-111569761D01*
X143049523Y-111379285D01*
X142954285Y-111284047D01*
X142763809Y-111188809D01*
X142382857Y-111188809D01*
X142192380Y-111284047D01*
X142097142Y-111379285D01*
X142001904Y-111569761D01*
X143049523Y-108903095D02*
X143144761Y-108617380D01*
X143144761Y-108141190D01*
X143049523Y-107950714D01*
X142954285Y-107855476D01*
X142763809Y-107760238D01*
X142573333Y-107760238D01*
X142382857Y-107855476D01*
X142287619Y-107950714D01*
X142192380Y-108141190D01*
X142097142Y-108522142D01*
X142001904Y-108712619D01*
X141906666Y-108807857D01*
X141716190Y-108903095D01*
X141525714Y-108903095D01*
X141335238Y-108807857D01*
X141240000Y-108712619D01*
X141144761Y-108522142D01*
X141144761Y-108045952D01*
X141240000Y-107760238D01*
X143144761Y-105760238D02*
X142192380Y-106426904D01*
X143144761Y-106903095D02*
X141144761Y-106903095D01*
X141144761Y-106141190D01*
X141240000Y-105950714D01*
X141335238Y-105855476D01*
X141525714Y-105760238D01*
X141811428Y-105760238D01*
X142001904Y-105855476D01*
X142097142Y-105950714D01*
X142192380Y-106141190D01*
X142192380Y-106903095D01*
X142573333Y-104998333D02*
X142573333Y-104045952D01*
X143144761Y-105188809D02*
X141144761Y-104522142D01*
X143144761Y-103855476D01*
X143144761Y-103188809D02*
X141144761Y-103188809D01*
X142573333Y-102522142D01*
X141144761Y-101855476D01*
X143144761Y-101855476D01*
D10*
X117880000Y-57872380D02*
X117975238Y-57872380D01*
X118070476Y-57920000D01*
X118118095Y-57967619D01*
X118165714Y-58062857D01*
X118213333Y-58253333D01*
X118213333Y-58491428D01*
X118165714Y-58681904D01*
X118118095Y-58777142D01*
X118070476Y-58824761D01*
X117975238Y-58872380D01*
X117880000Y-58872380D01*
X117784761Y-58824761D01*
X117737142Y-58777142D01*
X117689523Y-58681904D01*
X117641904Y-58491428D01*
X117641904Y-58253333D01*
X117689523Y-58062857D01*
X117737142Y-57967619D01*
X117784761Y-57920000D01*
X117880000Y-57872380D01*
X118641904Y-58777142D02*
X118689523Y-58824761D01*
X118641904Y-58872380D01*
X118594285Y-58824761D01*
X118641904Y-58777142D01*
X118641904Y-58872380D01*
X119641904Y-58872380D02*
X119070476Y-58872380D01*
X119356190Y-58872380D02*
X119356190Y-57872380D01*
X119260952Y-58015238D01*
X119165714Y-58110476D01*
X119070476Y-58158095D01*
X120499047Y-58205714D02*
X120499047Y-58872380D01*
X120070476Y-58205714D02*
X120070476Y-58729523D01*
X120118095Y-58824761D01*
X120213333Y-58872380D01*
X120356190Y-58872380D01*
X120451428Y-58824761D01*
X120499047Y-58777142D01*
X120832380Y-58205714D02*
X121213333Y-58205714D01*
X120975238Y-58872380D02*
X120975238Y-58015238D01*
X121022857Y-57920000D01*
X121118095Y-57872380D01*
X121213333Y-57872380D01*
X117245000Y-89622380D02*
X117340238Y-89622380D01*
X117435476Y-89670000D01*
X117483095Y-89717619D01*
X117530714Y-89812857D01*
X117578333Y-90003333D01*
X117578333Y-90241428D01*
X117530714Y-90431904D01*
X117483095Y-90527142D01*
X117435476Y-90574761D01*
X117340238Y-90622380D01*
X117245000Y-90622380D01*
X117149761Y-90574761D01*
X117102142Y-90527142D01*
X117054523Y-90431904D01*
X117006904Y-90241428D01*
X117006904Y-90003333D01*
X117054523Y-89812857D01*
X117102142Y-89717619D01*
X117149761Y-89670000D01*
X117245000Y-89622380D01*
X118006904Y-90527142D02*
X118054523Y-90574761D01*
X118006904Y-90622380D01*
X117959285Y-90574761D01*
X118006904Y-90527142D01*
X118006904Y-90622380D01*
X119006904Y-90622380D02*
X118435476Y-90622380D01*
X118721190Y-90622380D02*
X118721190Y-89622380D01*
X118625952Y-89765238D01*
X118530714Y-89860476D01*
X118435476Y-89908095D01*
X119864047Y-89955714D02*
X119864047Y-90622380D01*
X119435476Y-89955714D02*
X119435476Y-90479523D01*
X119483095Y-90574761D01*
X119578333Y-90622380D01*
X119721190Y-90622380D01*
X119816428Y-90574761D01*
X119864047Y-90527142D01*
X120197380Y-89955714D02*
X120578333Y-89955714D01*
X120340238Y-90622380D02*
X120340238Y-89765238D01*
X120387857Y-89670000D01*
X120483095Y-89622380D01*
X120578333Y-89622380D01*
D12*
X153562857Y-133157142D02*
X153634285Y-132942857D01*
X153705714Y-132871428D01*
X153848571Y-132800000D01*
X154062857Y-132800000D01*
X154205714Y-132871428D01*
X154277142Y-132942857D01*
X154348571Y-133085714D01*
X154348571Y-133657142D01*
X152848571Y-133657142D01*
X152848571Y-133157142D01*
X152920000Y-133014285D01*
X152991428Y-132942857D01*
X153134285Y-132871428D01*
X153277142Y-132871428D01*
X153420000Y-132942857D01*
X153491428Y-133014285D01*
X153562857Y-133157142D01*
X153562857Y-133657142D01*
X153348571Y-132300000D02*
X154348571Y-131942857D01*
X153348571Y-131585714D02*
X154348571Y-131942857D01*
X154705714Y-132085714D01*
X154777142Y-132157142D01*
X154848571Y-132300000D01*
X153920000Y-129942857D02*
X153920000Y-129228571D01*
X154348571Y-130085714D02*
X152848571Y-129585714D01*
X154348571Y-129085714D01*
X154348571Y-127942857D02*
X152848571Y-127942857D01*
X154277142Y-127942857D02*
X154348571Y-128085714D01*
X154348571Y-128371428D01*
X154277142Y-128514285D01*
X154205714Y-128585714D01*
X154062857Y-128657142D01*
X153634285Y-128657142D01*
X153491428Y-128585714D01*
X153420000Y-128514285D01*
X153348571Y-128371428D01*
X153348571Y-128085714D01*
X153420000Y-127942857D01*
X154348571Y-127228571D02*
X153348571Y-127228571D01*
X153634285Y-127228571D02*
X153491428Y-127157142D01*
X153420000Y-127085714D01*
X153348571Y-126942857D01*
X153348571Y-126800000D01*
X154348571Y-126300000D02*
X153348571Y-126300000D01*
X152848571Y-126300000D02*
X152920000Y-126371428D01*
X152991428Y-126300000D01*
X152920000Y-126228571D01*
X152848571Y-126300000D01*
X152991428Y-126300000D01*
X154348571Y-124942857D02*
X153562857Y-124942857D01*
X153420000Y-125014285D01*
X153348571Y-125157142D01*
X153348571Y-125442857D01*
X153420000Y-125585714D01*
X154277142Y-124942857D02*
X154348571Y-125085714D01*
X154348571Y-125442857D01*
X154277142Y-125585714D01*
X154134285Y-125657142D01*
X153991428Y-125657142D01*
X153848571Y-125585714D01*
X153777142Y-125442857D01*
X153777142Y-125085714D01*
X153705714Y-124942857D01*
X153348571Y-124228571D02*
X154348571Y-124228571D01*
X153491428Y-124228571D02*
X153420000Y-124157142D01*
X153348571Y-124014285D01*
X153348571Y-123800000D01*
X153420000Y-123657142D01*
X153562857Y-123585714D01*
X154348571Y-123585714D01*
X153562857Y-121228571D02*
X153634285Y-121014285D01*
X153705714Y-120942857D01*
X153848571Y-120871428D01*
X154062857Y-120871428D01*
X154205714Y-120942857D01*
X154277142Y-121014285D01*
X154348571Y-121157142D01*
X154348571Y-121728571D01*
X152848571Y-121728571D01*
X152848571Y-121228571D01*
X152920000Y-121085714D01*
X152991428Y-121014285D01*
X153134285Y-120942857D01*
X153277142Y-120942857D01*
X153420000Y-121014285D01*
X153491428Y-121085714D01*
X153562857Y-121228571D01*
X153562857Y-121728571D01*
X154348571Y-120014285D02*
X154277142Y-120157142D01*
X154134285Y-120228571D01*
X152848571Y-120228571D01*
X154348571Y-118800000D02*
X153562857Y-118800000D01*
X153420000Y-118871428D01*
X153348571Y-119014285D01*
X153348571Y-119300000D01*
X153420000Y-119442857D01*
X154277142Y-118800000D02*
X154348571Y-118942857D01*
X154348571Y-119300000D01*
X154277142Y-119442857D01*
X154134285Y-119514285D01*
X153991428Y-119514285D01*
X153848571Y-119442857D01*
X153777142Y-119300000D01*
X153777142Y-118942857D01*
X153705714Y-118800000D01*
X154277142Y-117442857D02*
X154348571Y-117585714D01*
X154348571Y-117871428D01*
X154277142Y-118014285D01*
X154205714Y-118085714D01*
X154062857Y-118157142D01*
X153634285Y-118157142D01*
X153491428Y-118085714D01*
X153420000Y-118014285D01*
X153348571Y-117871428D01*
X153348571Y-117585714D01*
X153420000Y-117442857D01*
X154348571Y-116800000D02*
X152848571Y-116800000D01*
X153777142Y-116657142D02*
X154348571Y-116228571D01*
X153348571Y-116228571D02*
X153920000Y-116800000D01*
X152777142Y-113371428D02*
X154705714Y-114657142D01*
X153348571Y-111871428D02*
X154348571Y-111514285D01*
X153348571Y-111157142D01*
X154348571Y-109800000D02*
X154348571Y-110657142D01*
X154348571Y-110228571D02*
X152848571Y-110228571D01*
X153062857Y-110371428D01*
X153205714Y-110514285D01*
X153277142Y-110657142D01*
X154205714Y-109157142D02*
X154277142Y-109085714D01*
X154348571Y-109157142D01*
X154277142Y-109228571D01*
X154205714Y-109157142D01*
X154348571Y-109157142D01*
X152991428Y-108514285D02*
X152920000Y-108442857D01*
X152848571Y-108300000D01*
X152848571Y-107942857D01*
X152920000Y-107800000D01*
X152991428Y-107728571D01*
X153134285Y-107657142D01*
X153277142Y-107657142D01*
X153491428Y-107728571D01*
X154348571Y-108585714D01*
X154348571Y-107657142D01*
X154348571Y-105871428D02*
X152848571Y-105871428D01*
X154348571Y-105014285D01*
X152848571Y-105014285D01*
X154348571Y-104085714D02*
X154277142Y-104228571D01*
X154205714Y-104300000D01*
X154062857Y-104371428D01*
X153634285Y-104371428D01*
X153491428Y-104300000D01*
X153420000Y-104228571D01*
X153348571Y-104085714D01*
X153348571Y-103871428D01*
X153420000Y-103728571D01*
X153491428Y-103657142D01*
X153634285Y-103585714D01*
X154062857Y-103585714D01*
X154205714Y-103657142D01*
X154277142Y-103728571D01*
X154348571Y-103871428D01*
X154348571Y-104085714D01*
X153348571Y-103085714D02*
X154348571Y-102728571D01*
X153348571Y-102371428D01*
X153777142Y-101800000D02*
X153777142Y-100657142D01*
X152991428Y-100014285D02*
X152920000Y-99942857D01*
X152848571Y-99800000D01*
X152848571Y-99442857D01*
X152920000Y-99300000D01*
X152991428Y-99228571D01*
X153134285Y-99157142D01*
X153277142Y-99157142D01*
X153491428Y-99228571D01*
X154348571Y-100085714D01*
X154348571Y-99157142D01*
X152848571Y-98228571D02*
X152848571Y-98085714D01*
X152920000Y-97942857D01*
X152991428Y-97871428D01*
X153134285Y-97800000D01*
X153420000Y-97728571D01*
X153777142Y-97728571D01*
X154062857Y-97800000D01*
X154205714Y-97871428D01*
X154277142Y-97942857D01*
X154348571Y-98085714D01*
X154348571Y-98228571D01*
X154277142Y-98371428D01*
X154205714Y-98442857D01*
X154062857Y-98514285D01*
X153777142Y-98585714D01*
X153420000Y-98585714D01*
X153134285Y-98514285D01*
X152991428Y-98442857D01*
X152920000Y-98371428D01*
X152848571Y-98228571D01*
X154348571Y-96300000D02*
X154348571Y-97157142D01*
X154348571Y-96728571D02*
X152848571Y-96728571D01*
X153062857Y-96871428D01*
X153205714Y-97014285D01*
X153277142Y-97157142D01*
X154348571Y-95585714D02*
X154348571Y-95300000D01*
X154277142Y-95157142D01*
X154205714Y-95085714D01*
X153991428Y-94942857D01*
X153705714Y-94871428D01*
X153134285Y-94871428D01*
X152991428Y-94942857D01*
X152920000Y-95014285D01*
X152848571Y-95157142D01*
X152848571Y-95442857D01*
X152920000Y-95585714D01*
X152991428Y-95657142D01*
X153134285Y-95728571D01*
X153491428Y-95728571D01*
X153634285Y-95657142D01*
X153705714Y-95585714D01*
X153777142Y-95442857D01*
X153777142Y-95157142D01*
X153705714Y-95014285D01*
X153634285Y-94942857D01*
X153491428Y-94871428D01*
X150303571Y-87292142D02*
X150303571Y-86435000D01*
X151803571Y-86863571D02*
X150303571Y-86863571D01*
X151803571Y-85292142D02*
X151017857Y-85292142D01*
X150875000Y-85363571D01*
X150803571Y-85506428D01*
X150803571Y-85792142D01*
X150875000Y-85935000D01*
X151732142Y-85292142D02*
X151803571Y-85435000D01*
X151803571Y-85792142D01*
X151732142Y-85935000D01*
X151589285Y-86006428D01*
X151446428Y-86006428D01*
X151303571Y-85935000D01*
X151232142Y-85792142D01*
X151232142Y-85435000D01*
X151160714Y-85292142D01*
X150803571Y-84577857D02*
X151803571Y-84577857D01*
X150946428Y-84577857D02*
X150875000Y-84506428D01*
X150803571Y-84363571D01*
X150803571Y-84149285D01*
X150875000Y-84006428D01*
X151017857Y-83935000D01*
X151803571Y-83935000D01*
X151803571Y-82577857D02*
X150303571Y-82577857D01*
X151732142Y-82577857D02*
X151803571Y-82720714D01*
X151803571Y-83006428D01*
X151732142Y-83149285D01*
X151660714Y-83220714D01*
X151517857Y-83292142D01*
X151089285Y-83292142D01*
X150946428Y-83220714D01*
X150875000Y-83149285D01*
X150803571Y-83006428D01*
X150803571Y-82720714D01*
X150875000Y-82577857D01*
X150803571Y-82006428D02*
X151803571Y-81649285D01*
X150803571Y-81292142D02*
X151803571Y-81649285D01*
X152160714Y-81792142D01*
X152232142Y-81863571D01*
X152303571Y-82006428D01*
X151803571Y-78792142D02*
X151803571Y-79649285D01*
X151803571Y-79220714D02*
X150303571Y-79220714D01*
X150517857Y-79363571D01*
X150660714Y-79506428D01*
X150732142Y-79649285D01*
X150303571Y-77863571D02*
X150303571Y-77720714D01*
X150375000Y-77577857D01*
X150446428Y-77506428D01*
X150589285Y-77435000D01*
X150875000Y-77363571D01*
X151232142Y-77363571D01*
X151517857Y-77435000D01*
X151660714Y-77506428D01*
X151732142Y-77577857D01*
X151803571Y-77720714D01*
X151803571Y-77863571D01*
X151732142Y-78006428D01*
X151660714Y-78077857D01*
X151517857Y-78149285D01*
X151232142Y-78220714D01*
X150875000Y-78220714D01*
X150589285Y-78149285D01*
X150446428Y-78077857D01*
X150375000Y-78006428D01*
X150303571Y-77863571D01*
X150303571Y-76435000D02*
X150303571Y-76292142D01*
X150375000Y-76149285D01*
X150446428Y-76077857D01*
X150589285Y-76006428D01*
X150875000Y-75935000D01*
X151232142Y-75935000D01*
X151517857Y-76006428D01*
X151660714Y-76077857D01*
X151732142Y-76149285D01*
X151803571Y-76292142D01*
X151803571Y-76435000D01*
X151732142Y-76577857D01*
X151660714Y-76649285D01*
X151517857Y-76720714D01*
X151232142Y-76792142D01*
X150875000Y-76792142D01*
X150589285Y-76720714D01*
X150446428Y-76649285D01*
X150375000Y-76577857D01*
X150303571Y-76435000D01*
X150303571Y-75006428D02*
X150303571Y-74863571D01*
X150375000Y-74720714D01*
X150446428Y-74649285D01*
X150589285Y-74577857D01*
X150875000Y-74506428D01*
X151232142Y-74506428D01*
X151517857Y-74577857D01*
X151660714Y-74649285D01*
X151732142Y-74720714D01*
X151803571Y-74863571D01*
X151803571Y-75006428D01*
X151732142Y-75149285D01*
X151660714Y-75220714D01*
X151517857Y-75292142D01*
X151232142Y-75363571D01*
X150875000Y-75363571D01*
X150589285Y-75292142D01*
X150446428Y-75220714D01*
X150375000Y-75149285D01*
X150303571Y-75006428D01*
X151017857Y-72720714D02*
X151017857Y-72220714D01*
X151803571Y-72006428D02*
X151803571Y-72720714D01*
X150303571Y-72720714D01*
X150303571Y-72006428D01*
X150303571Y-71506428D02*
X151803571Y-70506428D01*
X150303571Y-70506428D02*
X151803571Y-71506428D01*
X150232142Y-68863571D02*
X152160714Y-70149285D01*
X151803571Y-68363571D02*
X150303571Y-68363571D01*
X151017857Y-68363571D02*
X151017857Y-67506428D01*
X151803571Y-67506428D02*
X150303571Y-67506428D01*
X150303571Y-66935000D02*
X151803571Y-65935000D01*
X150303571Y-65935000D02*
X151803571Y-66935000D01*
X154353571Y-86220714D02*
X153639285Y-86720714D01*
X154353571Y-87077857D02*
X152853571Y-87077857D01*
X152853571Y-86506428D01*
X152925000Y-86363571D01*
X152996428Y-86292142D01*
X153139285Y-86220714D01*
X153353571Y-86220714D01*
X153496428Y-86292142D01*
X153567857Y-86363571D01*
X153639285Y-86506428D01*
X153639285Y-87077857D01*
X154353571Y-84935000D02*
X153567857Y-84935000D01*
X153425000Y-85006428D01*
X153353571Y-85149285D01*
X153353571Y-85435000D01*
X153425000Y-85577857D01*
X154282142Y-84935000D02*
X154353571Y-85077857D01*
X154353571Y-85435000D01*
X154282142Y-85577857D01*
X154139285Y-85649285D01*
X153996428Y-85649285D01*
X153853571Y-85577857D01*
X153782142Y-85435000D01*
X153782142Y-85077857D01*
X153710714Y-84935000D01*
X154353571Y-84220714D02*
X153353571Y-84220714D01*
X153496428Y-84220714D02*
X153425000Y-84149285D01*
X153353571Y-84006428D01*
X153353571Y-83792142D01*
X153425000Y-83649285D01*
X153567857Y-83577857D01*
X154353571Y-83577857D01*
X153567857Y-83577857D02*
X153425000Y-83506428D01*
X153353571Y-83363571D01*
X153353571Y-83149285D01*
X153425000Y-83006428D01*
X153567857Y-82935000D01*
X154353571Y-82935000D01*
X153567857Y-81077857D02*
X153567857Y-80577857D01*
X154353571Y-80363571D02*
X154353571Y-81077857D01*
X152853571Y-81077857D01*
X152853571Y-80363571D01*
X154353571Y-79863571D02*
X153353571Y-79077857D01*
X153353571Y-79863571D02*
X154353571Y-79077857D01*
X153353571Y-78506428D02*
X154853571Y-78506428D01*
X153425000Y-78506428D02*
X153353571Y-78363571D01*
X153353571Y-78077857D01*
X153425000Y-77935000D01*
X153496428Y-77863571D01*
X153639285Y-77792142D01*
X154067857Y-77792142D01*
X154210714Y-77863571D01*
X154282142Y-77935000D01*
X154353571Y-78077857D01*
X154353571Y-78363571D01*
X154282142Y-78506428D01*
X154353571Y-76506428D02*
X153567857Y-76506428D01*
X153425000Y-76577857D01*
X153353571Y-76720714D01*
X153353571Y-77006428D01*
X153425000Y-77149285D01*
X154282142Y-76506428D02*
X154353571Y-76649285D01*
X154353571Y-77006428D01*
X154282142Y-77149285D01*
X154139285Y-77220714D01*
X153996428Y-77220714D01*
X153853571Y-77149285D01*
X153782142Y-77006428D01*
X153782142Y-76649285D01*
X153710714Y-76506428D01*
X153353571Y-75792142D02*
X154353571Y-75792142D01*
X153496428Y-75792142D02*
X153425000Y-75720714D01*
X153353571Y-75577857D01*
X153353571Y-75363571D01*
X153425000Y-75220714D01*
X153567857Y-75149285D01*
X154353571Y-75149285D01*
X154282142Y-74506428D02*
X154353571Y-74363571D01*
X154353571Y-74077857D01*
X154282142Y-73935000D01*
X154139285Y-73863571D01*
X154067857Y-73863571D01*
X153925000Y-73935000D01*
X153853571Y-74077857D01*
X153853571Y-74292142D01*
X153782142Y-74435000D01*
X153639285Y-74506428D01*
X153567857Y-74506428D01*
X153425000Y-74435000D01*
X153353571Y-74292142D01*
X153353571Y-74077857D01*
X153425000Y-73935000D01*
X154353571Y-73220714D02*
X153353571Y-73220714D01*
X152853571Y-73220714D02*
X152925000Y-73292142D01*
X152996428Y-73220714D01*
X152925000Y-73149285D01*
X152853571Y-73220714D01*
X152996428Y-73220714D01*
X154353571Y-72292142D02*
X154282142Y-72435000D01*
X154210714Y-72506428D01*
X154067857Y-72577857D01*
X153639285Y-72577857D01*
X153496428Y-72506428D01*
X153425000Y-72435000D01*
X153353571Y-72292142D01*
X153353571Y-72077857D01*
X153425000Y-71935000D01*
X153496428Y-71863571D01*
X153639285Y-71792142D01*
X154067857Y-71792142D01*
X154210714Y-71863571D01*
X154282142Y-71935000D01*
X154353571Y-72077857D01*
X154353571Y-72292142D01*
X153353571Y-71149285D02*
X154353571Y-71149285D01*
X153496428Y-71149285D02*
X153425000Y-71077857D01*
X153353571Y-70935000D01*
X153353571Y-70720714D01*
X153425000Y-70577857D01*
X153567857Y-70506428D01*
X154353571Y-70506428D01*
X154210714Y-67792142D02*
X154282142Y-67863571D01*
X154353571Y-68077857D01*
X154353571Y-68220714D01*
X154282142Y-68435000D01*
X154139285Y-68577857D01*
X153996428Y-68649285D01*
X153710714Y-68720714D01*
X153496428Y-68720714D01*
X153210714Y-68649285D01*
X153067857Y-68577857D01*
X152925000Y-68435000D01*
X152853571Y-68220714D01*
X152853571Y-68077857D01*
X152925000Y-67863571D01*
X152996428Y-67792142D01*
X154353571Y-66506428D02*
X153567857Y-66506428D01*
X153425000Y-66577857D01*
X153353571Y-66720714D01*
X153353571Y-67006428D01*
X153425000Y-67149285D01*
X154282142Y-66506428D02*
X154353571Y-66649285D01*
X154353571Y-67006428D01*
X154282142Y-67149285D01*
X154139285Y-67220714D01*
X153996428Y-67220714D01*
X153853571Y-67149285D01*
X153782142Y-67006428D01*
X153782142Y-66649285D01*
X153710714Y-66506428D01*
X154353571Y-65792142D02*
X153353571Y-65792142D01*
X153639285Y-65792142D02*
X153496428Y-65720714D01*
X153425000Y-65649285D01*
X153353571Y-65506428D01*
X153353571Y-65363571D01*
X154353571Y-64220714D02*
X152853571Y-64220714D01*
X154282142Y-64220714D02*
X154353571Y-64363571D01*
X154353571Y-64649285D01*
X154282142Y-64792142D01*
X154210714Y-64863571D01*
X154067857Y-64935000D01*
X153639285Y-64935000D01*
X153496428Y-64863571D01*
X153425000Y-64792142D01*
X153353571Y-64649285D01*
X153353571Y-64363571D01*
X153425000Y-64220714D01*
X116702142Y-53788571D02*
X117559285Y-53788571D01*
X117130714Y-55288571D02*
X117130714Y-53788571D01*
X118345000Y-53788571D02*
X118630714Y-53788571D01*
X118773571Y-53860000D01*
X118916428Y-54002857D01*
X118987857Y-54288571D01*
X118987857Y-54788571D01*
X118916428Y-55074285D01*
X118773571Y-55217142D01*
X118630714Y-55288571D01*
X118345000Y-55288571D01*
X118202142Y-55217142D01*
X118059285Y-55074285D01*
X117987857Y-54788571D01*
X117987857Y-54288571D01*
X118059285Y-54002857D01*
X118202142Y-53860000D01*
X118345000Y-53788571D01*
X119487857Y-53788571D02*
X119845000Y-55288571D01*
X120130714Y-54217142D01*
X120416428Y-55288571D01*
X120773571Y-53788571D01*
X121273571Y-54860000D02*
X121987857Y-54860000D01*
X121130714Y-55288571D02*
X121630714Y-53788571D01*
X122130714Y-55288571D01*
X123487857Y-55288571D02*
X122987857Y-54574285D01*
X122630714Y-55288571D02*
X122630714Y-53788571D01*
X123202142Y-53788571D01*
X123345000Y-53860000D01*
X123416428Y-53931428D01*
X123487857Y-54074285D01*
X123487857Y-54288571D01*
X123416428Y-54431428D01*
X123345000Y-54502857D01*
X123202142Y-54574285D01*
X122630714Y-54574285D01*
X124130714Y-55288571D02*
X124130714Y-53788571D01*
X124487857Y-53788571D01*
X124702142Y-53860000D01*
X124845000Y-54002857D01*
X124916428Y-54145714D01*
X124987857Y-54431428D01*
X124987857Y-54645714D01*
X124916428Y-54931428D01*
X124845000Y-55074285D01*
X124702142Y-55217142D01*
X124487857Y-55288571D01*
X124130714Y-55288571D01*
X125559285Y-55217142D02*
X125773571Y-55288571D01*
X126130714Y-55288571D01*
X126273571Y-55217142D01*
X126345000Y-55145714D01*
X126416428Y-55002857D01*
X126416428Y-54860000D01*
X126345000Y-54717142D01*
X126273571Y-54645714D01*
X126130714Y-54574285D01*
X125845000Y-54502857D01*
X125702142Y-54431428D01*
X125630714Y-54360000D01*
X125559285Y-54217142D01*
X125559285Y-54074285D01*
X125630714Y-53931428D01*
X125702142Y-53860000D01*
X125845000Y-53788571D01*
X126202142Y-53788571D01*
X126416428Y-53860000D01*
X128702142Y-54502857D02*
X128916428Y-54574285D01*
X128987857Y-54645714D01*
X129059285Y-54788571D01*
X129059285Y-55002857D01*
X128987857Y-55145714D01*
X128916428Y-55217142D01*
X128773571Y-55288571D01*
X128202142Y-55288571D01*
X128202142Y-53788571D01*
X128702142Y-53788571D01*
X128845000Y-53860000D01*
X128916428Y-53931428D01*
X128987857Y-54074285D01*
X128987857Y-54217142D01*
X128916428Y-54360000D01*
X128845000Y-54431428D01*
X128702142Y-54502857D01*
X128202142Y-54502857D01*
X129630714Y-54860000D02*
X130345000Y-54860000D01*
X129487857Y-55288571D02*
X129987857Y-53788571D01*
X130487857Y-55288571D01*
X131845000Y-55145714D02*
X131773571Y-55217142D01*
X131559285Y-55288571D01*
X131416428Y-55288571D01*
X131202142Y-55217142D01*
X131059285Y-55074285D01*
X130987857Y-54931428D01*
X130916428Y-54645714D01*
X130916428Y-54431428D01*
X130987857Y-54145714D01*
X131059285Y-54002857D01*
X131202142Y-53860000D01*
X131416428Y-53788571D01*
X131559285Y-53788571D01*
X131773571Y-53860000D01*
X131845000Y-53931428D01*
X132487857Y-55288571D02*
X132487857Y-53788571D01*
X133345000Y-55288571D02*
X132702142Y-54431428D01*
X133345000Y-53788571D02*
X132487857Y-54645714D01*
D13*
X127000000Y-125325000D02*
X127000000Y-124555000D01*
X127000000Y-117245000D02*
X127000000Y-118015000D01*
X128370000Y-124555000D02*
X128370000Y-118015000D01*
X125630000Y-124555000D02*
X128370000Y-124555000D01*
X125630000Y-118015000D02*
X125630000Y-124555000D01*
X128370000Y-118015000D02*
X125630000Y-118015000D01*
X123825000Y-125325000D02*
X123825000Y-124555000D01*
X123825000Y-117245000D02*
X123825000Y-118015000D01*
X125195000Y-124555000D02*
X125195000Y-118015000D01*
X122455000Y-124555000D02*
X125195000Y-124555000D01*
X122455000Y-118015000D02*
X122455000Y-124555000D01*
X125195000Y-118015000D02*
X122455000Y-118015000D01*
X120650000Y-125325000D02*
X120650000Y-124555000D01*
X120650000Y-117245000D02*
X120650000Y-118015000D01*
X122020000Y-124555000D02*
X122020000Y-118015000D01*
X119280000Y-124555000D02*
X122020000Y-124555000D01*
X119280000Y-118015000D02*
X119280000Y-124555000D01*
X122020000Y-118015000D02*
X119280000Y-118015000D01*
X133350000Y-80070000D02*
X132020000Y-80070000D01*
X132020000Y-80070000D02*
X132020000Y-78740000D01*
X132020000Y-77470000D02*
X132020000Y-74870000D01*
X134680000Y-74870000D02*
X132020000Y-74870000D01*
X134680000Y-77470000D02*
X134680000Y-74870000D01*
X134680000Y-77470000D02*
X132020000Y-77470000D01*
X132020000Y-65345000D02*
X133350000Y-65345000D01*
X132020000Y-66675000D02*
X132020000Y-65345000D01*
X132020000Y-67945000D02*
X134680000Y-67945000D01*
X134680000Y-67945000D02*
X134680000Y-70545000D01*
X132020000Y-67945000D02*
X132020000Y-70545000D01*
X132020000Y-70545000D02*
X134680000Y-70545000D01*
X165040000Y-55185000D02*
X166370000Y-55185000D01*
X165040000Y-56515000D02*
X165040000Y-55185000D01*
X167640000Y-55185000D02*
X170240000Y-55185000D01*
X167640000Y-57785000D02*
X167640000Y-55185000D01*
X165040000Y-57785000D02*
X167640000Y-57785000D01*
X170240000Y-55185000D02*
X170240000Y-134045000D01*
X165040000Y-57785000D02*
X165040000Y-134045000D01*
X165040000Y-134045000D02*
X170240000Y-134045000D01*
X145525000Y-58995000D02*
X143875000Y-58995000D01*
X145525000Y-84515000D02*
X145525000Y-58995000D01*
X140225000Y-84515000D02*
X145525000Y-84515000D01*
X140225000Y-58995000D02*
X140225000Y-84515000D01*
X141875000Y-58995000D02*
X140225000Y-58995000D01*
X143875000Y-58995000D02*
G75*
G02X141875000Y-58995000I-1000000J0D01*
G01*
X125840000Y-62170000D02*
X124190000Y-62170000D01*
X125840000Y-80070000D02*
X125840000Y-62170000D01*
X120540000Y-80070000D02*
X125840000Y-80070000D01*
X120540000Y-62170000D02*
X120540000Y-80070000D01*
X122190000Y-62170000D02*
X120540000Y-62170000D01*
X124190000Y-62170000D02*
G75*
G02X122190000Y-62170000I-1000000J0D01*
G01*
X125840000Y-93285000D02*
X124190000Y-93285000D01*
X125840000Y-111185000D02*
X125840000Y-93285000D01*
X120540000Y-111185000D02*
X125840000Y-111185000D01*
X120540000Y-93285000D02*
X120540000Y-111185000D01*
X122190000Y-93285000D02*
X120540000Y-93285000D01*
X124190000Y-93285000D02*
G75*
G02X122190000Y-93285000I-1000000J0D01*
G01*
X121630000Y-133160000D02*
X121630000Y-133316000D01*
X121630000Y-130844000D02*
X121630000Y-131000000D01*
X124231130Y-133159837D02*
G75*
G02X122149039Y-133160000I-1041130J1079837D01*
G01*
X124231130Y-131000163D02*
G75*
G03X122149039Y-131000000I-1041130J-1079837D01*
G01*
X124862335Y-133158608D02*
G75*
G02X121630000Y-133315516I-1672335J1078608D01*
G01*
X124862335Y-131001392D02*
G75*
G03X121630000Y-130844484I-1672335J-1078608D01*
G01*
X150060199Y-55120000D02*
X150060199Y-55520000D01*
X149860199Y-55320000D02*
X150260199Y-55320000D01*
X154211000Y-56145000D02*
X154211000Y-56885000D01*
X154171000Y-55978000D02*
X154171000Y-57052000D01*
X154131000Y-55851000D02*
X154131000Y-57179000D01*
X154091000Y-55747000D02*
X154091000Y-57283000D01*
X154051000Y-55656000D02*
X154051000Y-57374000D01*
X154011000Y-55575000D02*
X154011000Y-57455000D01*
X153971000Y-55502000D02*
X153971000Y-57528000D01*
X153931000Y-57355000D02*
X153931000Y-57595000D01*
X153931000Y-55435000D02*
X153931000Y-55675000D01*
X153891000Y-57355000D02*
X153891000Y-57657000D01*
X153891000Y-55373000D02*
X153891000Y-55675000D01*
X153851000Y-57355000D02*
X153851000Y-57715000D01*
X153851000Y-55315000D02*
X153851000Y-55675000D01*
X153811000Y-57355000D02*
X153811000Y-57769000D01*
X153811000Y-55261000D02*
X153811000Y-55675000D01*
X153771000Y-57355000D02*
X153771000Y-57819000D01*
X153771000Y-55211000D02*
X153771000Y-55675000D01*
X153731000Y-57355000D02*
X153731000Y-57866000D01*
X153731000Y-55164000D02*
X153731000Y-55675000D01*
X153691000Y-57355000D02*
X153691000Y-57911000D01*
X153691000Y-55119000D02*
X153691000Y-55675000D01*
X153651000Y-57355000D02*
X153651000Y-57953000D01*
X153651000Y-55077000D02*
X153651000Y-55675000D01*
X153611000Y-57355000D02*
X153611000Y-57993000D01*
X153611000Y-55037000D02*
X153611000Y-55675000D01*
X153571000Y-57355000D02*
X153571000Y-58031000D01*
X153571000Y-54999000D02*
X153571000Y-55675000D01*
X153531000Y-57355000D02*
X153531000Y-58067000D01*
X153531000Y-54963000D02*
X153531000Y-55675000D01*
X153491000Y-57355000D02*
X153491000Y-58102000D01*
X153491000Y-54928000D02*
X153491000Y-55675000D01*
X153451000Y-57355000D02*
X153451000Y-58134000D01*
X153451000Y-54896000D02*
X153451000Y-55675000D01*
X153411000Y-57355000D02*
X153411000Y-58165000D01*
X153411000Y-54865000D02*
X153411000Y-55675000D01*
X153371000Y-57355000D02*
X153371000Y-58195000D01*
X153371000Y-54835000D02*
X153371000Y-55675000D01*
X153331000Y-57355000D02*
X153331000Y-58223000D01*
X153331000Y-54807000D02*
X153331000Y-55675000D01*
X153291000Y-57355000D02*
X153291000Y-58250000D01*
X153291000Y-54780000D02*
X153291000Y-55675000D01*
X153251000Y-57355000D02*
X153251000Y-58275000D01*
X153251000Y-54755000D02*
X153251000Y-55675000D01*
X153211000Y-57355000D02*
X153211000Y-58300000D01*
X153211000Y-54730000D02*
X153211000Y-55675000D01*
X153171000Y-57355000D02*
X153171000Y-58323000D01*
X153171000Y-54707000D02*
X153171000Y-55675000D01*
X153131000Y-57355000D02*
X153131000Y-58345000D01*
X153131000Y-54685000D02*
X153131000Y-55675000D01*
X153091000Y-57355000D02*
X153091000Y-58366000D01*
X153091000Y-54664000D02*
X153091000Y-55675000D01*
X153051000Y-57355000D02*
X153051000Y-58385000D01*
X153051000Y-54645000D02*
X153051000Y-55675000D01*
X153011000Y-57355000D02*
X153011000Y-58404000D01*
X153011000Y-54626000D02*
X153011000Y-55675000D01*
X152971000Y-57355000D02*
X152971000Y-58422000D01*
X152971000Y-54608000D02*
X152971000Y-55675000D01*
X152931000Y-57355000D02*
X152931000Y-58439000D01*
X152931000Y-54591000D02*
X152931000Y-55675000D01*
X152891000Y-57355000D02*
X152891000Y-58455000D01*
X152891000Y-54575000D02*
X152891000Y-55675000D01*
X152851000Y-57355000D02*
X152851000Y-58469000D01*
X152851000Y-54561000D02*
X152851000Y-55675000D01*
X152810000Y-57355000D02*
X152810000Y-58483000D01*
X152810000Y-54547000D02*
X152810000Y-55675000D01*
X152770000Y-57355000D02*
X152770000Y-58497000D01*
X152770000Y-54533000D02*
X152770000Y-55675000D01*
X152730000Y-57355000D02*
X152730000Y-58509000D01*
X152730000Y-54521000D02*
X152730000Y-55675000D01*
X152690000Y-57355000D02*
X152690000Y-58520000D01*
X152690000Y-54510000D02*
X152690000Y-55675000D01*
X152650000Y-57355000D02*
X152650000Y-58531000D01*
X152650000Y-54499000D02*
X152650000Y-55675000D01*
X152610000Y-57355000D02*
X152610000Y-58540000D01*
X152610000Y-54490000D02*
X152610000Y-55675000D01*
X152570000Y-57355000D02*
X152570000Y-58549000D01*
X152570000Y-54481000D02*
X152570000Y-55675000D01*
X152530000Y-57355000D02*
X152530000Y-58557000D01*
X152530000Y-54473000D02*
X152530000Y-55675000D01*
X152490000Y-57355000D02*
X152490000Y-58565000D01*
X152490000Y-54465000D02*
X152490000Y-55675000D01*
X152450000Y-57355000D02*
X152450000Y-58571000D01*
X152450000Y-54459000D02*
X152450000Y-55675000D01*
X152410000Y-57355000D02*
X152410000Y-58577000D01*
X152410000Y-54453000D02*
X152410000Y-55675000D01*
X152370000Y-57355000D02*
X152370000Y-58582000D01*
X152370000Y-54448000D02*
X152370000Y-55675000D01*
X152330000Y-57355000D02*
X152330000Y-58586000D01*
X152330000Y-54444000D02*
X152330000Y-55675000D01*
X152290000Y-54441000D02*
X152290000Y-58589000D01*
X152250000Y-54438000D02*
X152250000Y-58592000D01*
X152210000Y-54436000D02*
X152210000Y-58594000D01*
X152170000Y-54435000D02*
X152170000Y-58595000D01*
X152130000Y-54435000D02*
X152130000Y-58595000D01*
X154250000Y-56515000D02*
G75*
G03X154250000Y-56515000I-2120000J0D01*
G01*
X125925000Y-59085000D02*
X125925000Y-59790000D01*
X125925000Y-57050000D02*
X125925000Y-57755000D01*
X121685000Y-59085000D02*
X121685000Y-59790000D01*
X121685000Y-57050000D02*
X121685000Y-57755000D01*
X121685000Y-59790000D02*
X125925000Y-59790000D01*
X121685000Y-57050000D02*
X125925000Y-57050000D01*
X143705000Y-92105000D02*
X143705000Y-92810000D01*
X143705000Y-90070000D02*
X143705000Y-90775000D01*
X139465000Y-92105000D02*
X139465000Y-92810000D01*
X139465000Y-90070000D02*
X139465000Y-90775000D01*
X139465000Y-92810000D02*
X143705000Y-92810000D01*
X139465000Y-90070000D02*
X143705000Y-90070000D01*
X144975000Y-56545000D02*
X144975000Y-57250000D01*
X144975000Y-54510000D02*
X144975000Y-55215000D01*
X140735000Y-56545000D02*
X140735000Y-57250000D01*
X140735000Y-54510000D02*
X140735000Y-55215000D01*
X140735000Y-57250000D02*
X144975000Y-57250000D01*
X140735000Y-54510000D02*
X144975000Y-54510000D01*
X121050000Y-88800000D02*
X125290000Y-88800000D01*
X121050000Y-91540000D02*
X125290000Y-91540000D01*
X121050000Y-88800000D02*
X121050000Y-89505000D01*
X121050000Y-90835000D02*
X121050000Y-91540000D01*
X125290000Y-88800000D02*
X125290000Y-89505000D01*
X125290000Y-90835000D02*
X125290000Y-91540000D01*
X143240000Y-93920000D02*
G75*
G02X141240000Y-93920000I-1000000J0D01*
G01*
X141240000Y-93920000D02*
X135780000Y-93920000D01*
X135780000Y-93920000D02*
X135780000Y-134680000D01*
X135780000Y-134680000D02*
X148700000Y-134680000D01*
X148700000Y-134680000D02*
X148700000Y-93920000D01*
X148700000Y-93920000D02*
X143240000Y-93920000D01*
D10*
X127452380Y-113831666D02*
X126976190Y-114165000D01*
X127452380Y-114403095D02*
X126452380Y-114403095D01*
X126452380Y-114022142D01*
X126500000Y-113926904D01*
X126547619Y-113879285D01*
X126642857Y-113831666D01*
X126785714Y-113831666D01*
X126880952Y-113879285D01*
X126928571Y-113926904D01*
X126976190Y-114022142D01*
X126976190Y-114403095D01*
X126452380Y-113498333D02*
X126452380Y-112879285D01*
X126833333Y-113212619D01*
X126833333Y-113069761D01*
X126880952Y-112974523D01*
X126928571Y-112926904D01*
X127023809Y-112879285D01*
X127261904Y-112879285D01*
X127357142Y-112926904D01*
X127404761Y-112974523D01*
X127452380Y-113069761D01*
X127452380Y-113355476D01*
X127404761Y-113450714D01*
X127357142Y-113498333D01*
X126785714Y-122046904D02*
X127452380Y-122046904D01*
X126404761Y-122285000D02*
X127119047Y-122523095D01*
X127119047Y-121904047D01*
X126452380Y-121618333D02*
X126452380Y-120951666D01*
X127452380Y-121380238D01*
X126452380Y-120380238D02*
X126452380Y-120285000D01*
X126500000Y-120189761D01*
X126547619Y-120142142D01*
X126642857Y-120094523D01*
X126833333Y-120046904D01*
X127071428Y-120046904D01*
X127261904Y-120094523D01*
X127357142Y-120142142D01*
X127404761Y-120189761D01*
X127452380Y-120285000D01*
X127452380Y-120380238D01*
X127404761Y-120475476D01*
X127357142Y-120523095D01*
X127261904Y-120570714D01*
X127071428Y-120618333D01*
X126833333Y-120618333D01*
X126642857Y-120570714D01*
X126547619Y-120523095D01*
X126500000Y-120475476D01*
X126452380Y-120380238D01*
X124277380Y-113831666D02*
X123801190Y-114165000D01*
X124277380Y-114403095D02*
X123277380Y-114403095D01*
X123277380Y-114022142D01*
X123325000Y-113926904D01*
X123372619Y-113879285D01*
X123467857Y-113831666D01*
X123610714Y-113831666D01*
X123705952Y-113879285D01*
X123753571Y-113926904D01*
X123801190Y-114022142D01*
X123801190Y-114403095D01*
X123372619Y-113450714D02*
X123325000Y-113403095D01*
X123277380Y-113307857D01*
X123277380Y-113069761D01*
X123325000Y-112974523D01*
X123372619Y-112926904D01*
X123467857Y-112879285D01*
X123563095Y-112879285D01*
X123705952Y-112926904D01*
X124277380Y-113498333D01*
X124277380Y-112879285D01*
X123610714Y-122213571D02*
X124277380Y-122213571D01*
X123229761Y-122451666D02*
X123944047Y-122689761D01*
X123944047Y-122070714D01*
X124182142Y-121689761D02*
X124229761Y-121642142D01*
X124277380Y-121689761D01*
X124229761Y-121737380D01*
X124182142Y-121689761D01*
X124277380Y-121689761D01*
X123277380Y-121308809D02*
X123277380Y-120642142D01*
X124277380Y-121070714D01*
X124277380Y-120261190D02*
X123277380Y-120261190D01*
X123896428Y-120165952D02*
X124277380Y-119880238D01*
X123610714Y-119880238D02*
X123991666Y-120261190D01*
X121102380Y-113831666D02*
X120626190Y-114165000D01*
X121102380Y-114403095D02*
X120102380Y-114403095D01*
X120102380Y-114022142D01*
X120150000Y-113926904D01*
X120197619Y-113879285D01*
X120292857Y-113831666D01*
X120435714Y-113831666D01*
X120530952Y-113879285D01*
X120578571Y-113926904D01*
X120626190Y-114022142D01*
X120626190Y-114403095D01*
X121102380Y-112879285D02*
X121102380Y-113450714D01*
X121102380Y-113165000D02*
X120102380Y-113165000D01*
X120245238Y-113260238D01*
X120340476Y-113355476D01*
X120388095Y-113450714D01*
X120435714Y-122213571D02*
X121102380Y-122213571D01*
X120054761Y-122451666D02*
X120769047Y-122689761D01*
X120769047Y-122070714D01*
X121007142Y-121689761D02*
X121054761Y-121642142D01*
X121102380Y-121689761D01*
X121054761Y-121737380D01*
X121007142Y-121689761D01*
X121102380Y-121689761D01*
X120102380Y-121308809D02*
X120102380Y-120642142D01*
X121102380Y-121070714D01*
X121102380Y-120261190D02*
X120102380Y-120261190D01*
X120721428Y-120165952D02*
X121102380Y-119880238D01*
X120435714Y-119880238D02*
X120816666Y-120261190D01*
X132516666Y-80962380D02*
X132516666Y-81676666D01*
X132469047Y-81819523D01*
X132373809Y-81914761D01*
X132230952Y-81962380D01*
X132135714Y-81962380D01*
X132992857Y-81962380D02*
X132992857Y-80962380D01*
X133373809Y-80962380D01*
X133469047Y-81010000D01*
X133516666Y-81057619D01*
X133564285Y-81152857D01*
X133564285Y-81295714D01*
X133516666Y-81390952D01*
X133469047Y-81438571D01*
X133373809Y-81486190D01*
X132992857Y-81486190D01*
X134516666Y-81962380D02*
X133945238Y-81962380D01*
X134230952Y-81962380D02*
X134230952Y-80962380D01*
X134135714Y-81105238D01*
X134040476Y-81200476D01*
X133945238Y-81248095D01*
X130738571Y-81708095D02*
X130738571Y-81374761D01*
X131262380Y-81231904D02*
X131262380Y-81708095D01*
X130262380Y-81708095D01*
X130262380Y-81231904D01*
X130595714Y-80803333D02*
X131262380Y-80803333D01*
X130690952Y-80803333D02*
X130643333Y-80755714D01*
X130595714Y-80660476D01*
X130595714Y-80517619D01*
X130643333Y-80422380D01*
X130738571Y-80374761D01*
X131262380Y-80374761D01*
X131262380Y-79470000D02*
X130738571Y-79470000D01*
X130643333Y-79517619D01*
X130595714Y-79612857D01*
X130595714Y-79803333D01*
X130643333Y-79898571D01*
X131214761Y-79470000D02*
X131262380Y-79565238D01*
X131262380Y-79803333D01*
X131214761Y-79898571D01*
X131119523Y-79946190D01*
X131024285Y-79946190D01*
X130929047Y-79898571D01*
X130881428Y-79803333D01*
X130881428Y-79565238D01*
X130833809Y-79470000D01*
X131262380Y-78993809D02*
X130262380Y-78993809D01*
X130643333Y-78993809D02*
X130595714Y-78898571D01*
X130595714Y-78708095D01*
X130643333Y-78612857D01*
X130690952Y-78565238D01*
X130786190Y-78517619D01*
X131071904Y-78517619D01*
X131167142Y-78565238D01*
X131214761Y-78612857D01*
X131262380Y-78708095D01*
X131262380Y-78898571D01*
X131214761Y-78993809D01*
X131262380Y-77946190D02*
X131214761Y-78041428D01*
X131119523Y-78089047D01*
X130262380Y-78089047D01*
X131214761Y-77184285D02*
X131262380Y-77279523D01*
X131262380Y-77470000D01*
X131214761Y-77565238D01*
X131119523Y-77612857D01*
X130738571Y-77612857D01*
X130643333Y-77565238D01*
X130595714Y-77470000D01*
X130595714Y-77279523D01*
X130643333Y-77184285D01*
X130738571Y-77136666D01*
X130833809Y-77136666D01*
X130929047Y-77612857D01*
X130262380Y-75946190D02*
X131071904Y-75946190D01*
X131167142Y-75898571D01*
X131214761Y-75850952D01*
X131262380Y-75755714D01*
X131262380Y-75565238D01*
X131214761Y-75470000D01*
X131167142Y-75422380D01*
X131071904Y-75374761D01*
X130262380Y-75374761D01*
X131262380Y-74898571D02*
X130262380Y-74898571D01*
X130976666Y-74565238D01*
X130262380Y-74231904D01*
X131262380Y-74231904D01*
X130738571Y-73422380D02*
X130786190Y-73279523D01*
X130833809Y-73231904D01*
X130929047Y-73184285D01*
X131071904Y-73184285D01*
X131167142Y-73231904D01*
X131214761Y-73279523D01*
X131262380Y-73374761D01*
X131262380Y-73755714D01*
X130262380Y-73755714D01*
X130262380Y-73422380D01*
X130310000Y-73327142D01*
X130357619Y-73279523D01*
X130452857Y-73231904D01*
X130548095Y-73231904D01*
X130643333Y-73279523D01*
X130690952Y-73327142D01*
X130738571Y-73422380D01*
X130738571Y-73755714D01*
X132516666Y-63797380D02*
X132516666Y-64511666D01*
X132469047Y-64654523D01*
X132373809Y-64749761D01*
X132230952Y-64797380D01*
X132135714Y-64797380D01*
X132992857Y-64797380D02*
X132992857Y-63797380D01*
X133373809Y-63797380D01*
X133469047Y-63845000D01*
X133516666Y-63892619D01*
X133564285Y-63987857D01*
X133564285Y-64130714D01*
X133516666Y-64225952D01*
X133469047Y-64273571D01*
X133373809Y-64321190D01*
X132992857Y-64321190D01*
X133945238Y-63892619D02*
X133992857Y-63845000D01*
X134088095Y-63797380D01*
X134326190Y-63797380D01*
X134421428Y-63845000D01*
X134469047Y-63892619D01*
X134516666Y-63987857D01*
X134516666Y-64083095D01*
X134469047Y-64225952D01*
X133897619Y-64797380D01*
X134516666Y-64797380D01*
X131262380Y-70428761D02*
X131262380Y-70238285D01*
X131214761Y-70143047D01*
X131167142Y-70095428D01*
X131024285Y-70000190D01*
X130833809Y-69952571D01*
X130452857Y-69952571D01*
X130357619Y-70000190D01*
X130310000Y-70047809D01*
X130262380Y-70143047D01*
X130262380Y-70333523D01*
X130310000Y-70428761D01*
X130357619Y-70476380D01*
X130452857Y-70524000D01*
X130690952Y-70524000D01*
X130786190Y-70476380D01*
X130833809Y-70428761D01*
X130881428Y-70333523D01*
X130881428Y-70143047D01*
X130833809Y-70047809D01*
X130786190Y-70000190D01*
X130690952Y-69952571D01*
X130262380Y-69095428D02*
X130262380Y-69285904D01*
X130310000Y-69381142D01*
X130357619Y-69428761D01*
X130500476Y-69524000D01*
X130690952Y-69571619D01*
X131071904Y-69571619D01*
X131167142Y-69524000D01*
X131214761Y-69476380D01*
X131262380Y-69381142D01*
X131262380Y-69190666D01*
X131214761Y-69095428D01*
X131167142Y-69047809D01*
X131071904Y-69000190D01*
X130833809Y-69000190D01*
X130738571Y-69047809D01*
X130690952Y-69095428D01*
X130643333Y-69190666D01*
X130643333Y-69381142D01*
X130690952Y-69476380D01*
X130738571Y-69524000D01*
X130833809Y-69571619D01*
X131262380Y-68571619D02*
X130262380Y-68571619D01*
X130881428Y-68476380D02*
X131262380Y-68190666D01*
X130595714Y-68190666D02*
X130976666Y-68571619D01*
X130214761Y-67047809D02*
X131500476Y-67904952D01*
X131262380Y-66190666D02*
X131262380Y-66762095D01*
X131262380Y-66476380D02*
X130262380Y-66476380D01*
X130405238Y-66571619D01*
X130500476Y-66666857D01*
X130548095Y-66762095D01*
X130357619Y-65809714D02*
X130310000Y-65762095D01*
X130262380Y-65666857D01*
X130262380Y-65428761D01*
X130310000Y-65333523D01*
X130357619Y-65285904D01*
X130452857Y-65238285D01*
X130548095Y-65238285D01*
X130690952Y-65285904D01*
X131262380Y-65857333D01*
X131262380Y-65238285D01*
X130690952Y-64666857D02*
X130643333Y-64762095D01*
X130595714Y-64809714D01*
X130500476Y-64857333D01*
X130452857Y-64857333D01*
X130357619Y-64809714D01*
X130310000Y-64762095D01*
X130262380Y-64666857D01*
X130262380Y-64476380D01*
X130310000Y-64381142D01*
X130357619Y-64333523D01*
X130452857Y-64285904D01*
X130500476Y-64285904D01*
X130595714Y-64333523D01*
X130643333Y-64381142D01*
X130690952Y-64476380D01*
X130690952Y-64666857D01*
X130738571Y-64762095D01*
X130786190Y-64809714D01*
X130881428Y-64857333D01*
X131071904Y-64857333D01*
X131167142Y-64809714D01*
X131214761Y-64762095D01*
X131262380Y-64666857D01*
X131262380Y-64476380D01*
X131214761Y-64381142D01*
X131167142Y-64333523D01*
X131071904Y-64285904D01*
X130881428Y-64285904D01*
X130786190Y-64333523D01*
X130738571Y-64381142D01*
X130690952Y-64476380D01*
X131262380Y-63857333D02*
X130262380Y-63857333D01*
X130881428Y-63762095D02*
X131262380Y-63476380D01*
X130595714Y-63476380D02*
X130976666Y-63857333D01*
X130262380Y-62285904D02*
X131071904Y-62285904D01*
X131167142Y-62238285D01*
X131214761Y-62190666D01*
X131262380Y-62095428D01*
X131262380Y-61904952D01*
X131214761Y-61809714D01*
X131167142Y-61762095D01*
X131071904Y-61714476D01*
X130262380Y-61714476D01*
X131262380Y-61238285D02*
X130262380Y-61238285D01*
X130976666Y-60904952D01*
X130262380Y-60571619D01*
X131262380Y-60571619D01*
X130738571Y-59762095D02*
X130786190Y-59619238D01*
X130833809Y-59571619D01*
X130929047Y-59524000D01*
X131071904Y-59524000D01*
X131167142Y-59571619D01*
X131214761Y-59619238D01*
X131262380Y-59714476D01*
X131262380Y-60095428D01*
X130262380Y-60095428D01*
X130262380Y-59762095D01*
X130310000Y-59666857D01*
X130357619Y-59619238D01*
X130452857Y-59571619D01*
X130548095Y-59571619D01*
X130643333Y-59619238D01*
X130690952Y-59666857D01*
X130738571Y-59762095D01*
X130738571Y-60095428D01*
X167306666Y-53427380D02*
X167306666Y-54141666D01*
X167259047Y-54284523D01*
X167163809Y-54379761D01*
X167020952Y-54427380D01*
X166925714Y-54427380D01*
X167735238Y-53522619D02*
X167782857Y-53475000D01*
X167878095Y-53427380D01*
X168116190Y-53427380D01*
X168211428Y-53475000D01*
X168259047Y-53522619D01*
X168306666Y-53617857D01*
X168306666Y-53713095D01*
X168259047Y-53855952D01*
X167687619Y-54427380D01*
X168306666Y-54427380D01*
X145923095Y-57237380D02*
X145923095Y-58046904D01*
X145970714Y-58142142D01*
X146018333Y-58189761D01*
X146113571Y-58237380D01*
X146304047Y-58237380D01*
X146399285Y-58189761D01*
X146446904Y-58142142D01*
X146494523Y-58046904D01*
X146494523Y-57237380D01*
X147446904Y-57237380D02*
X146970714Y-57237380D01*
X146923095Y-57713571D01*
X146970714Y-57665952D01*
X147065952Y-57618333D01*
X147304047Y-57618333D01*
X147399285Y-57665952D01*
X147446904Y-57713571D01*
X147494523Y-57808809D01*
X147494523Y-58046904D01*
X147446904Y-58142142D01*
X147399285Y-58189761D01*
X147304047Y-58237380D01*
X147065952Y-58237380D01*
X146970714Y-58189761D01*
X146923095Y-58142142D01*
D11*
X141779761Y-77993095D02*
X141779761Y-76659761D01*
X143779761Y-77516904D01*
X142446428Y-75040714D02*
X143779761Y-75040714D01*
X141684523Y-75516904D02*
X143113095Y-75993095D01*
X143113095Y-74755000D01*
X143779761Y-73040714D02*
X143779761Y-73993095D01*
X141779761Y-73993095D01*
X143684523Y-72469285D02*
X143779761Y-72183571D01*
X143779761Y-71707380D01*
X143684523Y-71516904D01*
X143589285Y-71421666D01*
X143398809Y-71326428D01*
X143208333Y-71326428D01*
X143017857Y-71421666D01*
X142922619Y-71516904D01*
X142827380Y-71707380D01*
X142732142Y-72088333D01*
X142636904Y-72278809D01*
X142541666Y-72374047D01*
X142351190Y-72469285D01*
X142160714Y-72469285D01*
X141970238Y-72374047D01*
X141875000Y-72278809D01*
X141779761Y-72088333D01*
X141779761Y-71612142D01*
X141875000Y-71326428D01*
X141970238Y-70564523D02*
X141875000Y-70469285D01*
X141779761Y-70278809D01*
X141779761Y-69802619D01*
X141875000Y-69612142D01*
X141970238Y-69516904D01*
X142160714Y-69421666D01*
X142351190Y-69421666D01*
X142636904Y-69516904D01*
X143779761Y-70659761D01*
X143779761Y-69421666D01*
X142446428Y-67707380D02*
X143779761Y-67707380D01*
X141684523Y-68183571D02*
X143113095Y-68659761D01*
X143113095Y-67421666D01*
X141779761Y-65707380D02*
X141779761Y-66659761D01*
X142732142Y-66755000D01*
X142636904Y-66659761D01*
X142541666Y-66469285D01*
X142541666Y-65993095D01*
X142636904Y-65802619D01*
X142732142Y-65707380D01*
X142922619Y-65612142D01*
X143398809Y-65612142D01*
X143589285Y-65707380D01*
X143684523Y-65802619D01*
X143779761Y-65993095D01*
X143779761Y-66469285D01*
X143684523Y-66659761D01*
X143589285Y-66755000D01*
D10*
X126238095Y-60412380D02*
X126238095Y-61221904D01*
X126285714Y-61317142D01*
X126333333Y-61364761D01*
X126428571Y-61412380D01*
X126619047Y-61412380D01*
X126714285Y-61364761D01*
X126761904Y-61317142D01*
X126809523Y-61221904D01*
X126809523Y-60412380D01*
X127714285Y-60745714D02*
X127714285Y-61412380D01*
X127476190Y-60364761D02*
X127238095Y-61079047D01*
X127857142Y-61079047D01*
X126238095Y-90892380D02*
X126238095Y-91701904D01*
X126285714Y-91797142D01*
X126333333Y-91844761D01*
X126428571Y-91892380D01*
X126619047Y-91892380D01*
X126714285Y-91844761D01*
X126761904Y-91797142D01*
X126809523Y-91701904D01*
X126809523Y-90892380D01*
X127238095Y-90987619D02*
X127285714Y-90940000D01*
X127380952Y-90892380D01*
X127619047Y-90892380D01*
X127714285Y-90940000D01*
X127761904Y-90987619D01*
X127809523Y-91082857D01*
X127809523Y-91178095D01*
X127761904Y-91320952D01*
X127190476Y-91892380D01*
X127809523Y-91892380D01*
D11*
X122094761Y-108155714D02*
X122094761Y-106822380D01*
X124094761Y-107679523D01*
X122761428Y-105203333D02*
X124094761Y-105203333D01*
X121999523Y-105679523D02*
X123428095Y-106155714D01*
X123428095Y-104917619D01*
X124094761Y-103203333D02*
X124094761Y-104155714D01*
X122094761Y-104155714D01*
X123999523Y-102631904D02*
X124094761Y-102346190D01*
X124094761Y-101870000D01*
X123999523Y-101679523D01*
X123904285Y-101584285D01*
X123713809Y-101489047D01*
X123523333Y-101489047D01*
X123332857Y-101584285D01*
X123237619Y-101679523D01*
X123142380Y-101870000D01*
X123047142Y-102250952D01*
X122951904Y-102441428D01*
X122856666Y-102536666D01*
X122666190Y-102631904D01*
X122475714Y-102631904D01*
X122285238Y-102536666D01*
X122190000Y-102441428D01*
X122094761Y-102250952D01*
X122094761Y-101774761D01*
X122190000Y-101489047D01*
X122094761Y-100250952D02*
X122094761Y-100060476D01*
X122190000Y-99870000D01*
X122285238Y-99774761D01*
X122475714Y-99679523D01*
X122856666Y-99584285D01*
X123332857Y-99584285D01*
X123713809Y-99679523D01*
X123904285Y-99774761D01*
X123999523Y-99870000D01*
X124094761Y-100060476D01*
X124094761Y-100250952D01*
X123999523Y-100441428D01*
X123904285Y-100536666D01*
X123713809Y-100631904D01*
X123332857Y-100727142D01*
X122856666Y-100727142D01*
X122475714Y-100631904D01*
X122285238Y-100536666D01*
X122190000Y-100441428D01*
X122094761Y-100250952D01*
X122094761Y-98346190D02*
X122094761Y-98155714D01*
X122190000Y-97965238D01*
X122285238Y-97870000D01*
X122475714Y-97774761D01*
X122856666Y-97679523D01*
X123332857Y-97679523D01*
X123713809Y-97774761D01*
X123904285Y-97870000D01*
X123999523Y-97965238D01*
X124094761Y-98155714D01*
X124094761Y-98346190D01*
X123999523Y-98536666D01*
X123904285Y-98631904D01*
X123713809Y-98727142D01*
X123332857Y-98822380D01*
X122856666Y-98822380D01*
X122475714Y-98727142D01*
X122285238Y-98631904D01*
X122190000Y-98536666D01*
X122094761Y-98346190D01*
D10*
X122451904Y-129572380D02*
X122451904Y-128572380D01*
X122690000Y-128572380D01*
X122832857Y-128620000D01*
X122928095Y-128715238D01*
X122975714Y-128810476D01*
X123023333Y-129000952D01*
X123023333Y-129143809D01*
X122975714Y-129334285D01*
X122928095Y-129429523D01*
X122832857Y-129524761D01*
X122690000Y-129572380D01*
X122451904Y-129572380D01*
X123975714Y-129572380D02*
X123404285Y-129572380D01*
X123690000Y-129572380D02*
X123690000Y-128572380D01*
X123594761Y-128715238D01*
X123499523Y-128810476D01*
X123404285Y-128858095D01*
X119594761Y-135707380D02*
X119261428Y-135231190D01*
X119023333Y-135707380D02*
X119023333Y-134707380D01*
X119404285Y-134707380D01*
X119499523Y-134755000D01*
X119547142Y-134802619D01*
X119594761Y-134897857D01*
X119594761Y-135040714D01*
X119547142Y-135135952D01*
X119499523Y-135183571D01*
X119404285Y-135231190D01*
X119023333Y-135231190D01*
X119975714Y-135421666D02*
X120451904Y-135421666D01*
X119880476Y-135707380D02*
X120213809Y-134707380D01*
X120547142Y-135707380D01*
X120880476Y-135707380D02*
X120880476Y-134707380D01*
X121213809Y-135421666D01*
X121547142Y-134707380D01*
X121547142Y-135707380D01*
X122737619Y-135421666D02*
X123213809Y-135421666D01*
X122642380Y-135707380D02*
X122975714Y-134707380D01*
X123309047Y-135707380D01*
X124070952Y-135659761D02*
X123975714Y-135707380D01*
X123785238Y-135707380D01*
X123690000Y-135659761D01*
X123642380Y-135612142D01*
X123594761Y-135516904D01*
X123594761Y-135231190D01*
X123642380Y-135135952D01*
X123690000Y-135088333D01*
X123785238Y-135040714D01*
X123975714Y-135040714D01*
X124070952Y-135088333D01*
X124928095Y-135659761D02*
X124832857Y-135707380D01*
X124642380Y-135707380D01*
X124547142Y-135659761D01*
X124499523Y-135612142D01*
X124451904Y-135516904D01*
X124451904Y-135231190D01*
X124499523Y-135135952D01*
X124547142Y-135088333D01*
X124642380Y-135040714D01*
X124832857Y-135040714D01*
X124928095Y-135088333D01*
X125737619Y-135659761D02*
X125642380Y-135707380D01*
X125451904Y-135707380D01*
X125356666Y-135659761D01*
X125309047Y-135564523D01*
X125309047Y-135183571D01*
X125356666Y-135088333D01*
X125451904Y-135040714D01*
X125642380Y-135040714D01*
X125737619Y-135088333D01*
X125785238Y-135183571D01*
X125785238Y-135278809D01*
X125309047Y-135374047D01*
X126166190Y-135659761D02*
X126261428Y-135707380D01*
X126451904Y-135707380D01*
X126547142Y-135659761D01*
X126594761Y-135564523D01*
X126594761Y-135516904D01*
X126547142Y-135421666D01*
X126451904Y-135374047D01*
X126309047Y-135374047D01*
X126213809Y-135326428D01*
X126166190Y-135231190D01*
X126166190Y-135183571D01*
X126213809Y-135088333D01*
X126309047Y-135040714D01*
X126451904Y-135040714D01*
X126547142Y-135088333D01*
X126975714Y-135659761D02*
X127070952Y-135707380D01*
X127261428Y-135707380D01*
X127356666Y-135659761D01*
X127404285Y-135564523D01*
X127404285Y-135516904D01*
X127356666Y-135421666D01*
X127261428Y-135374047D01*
X127118571Y-135374047D01*
X127023333Y-135326428D01*
X126975714Y-135231190D01*
X126975714Y-135183571D01*
X127023333Y-135088333D01*
X127118571Y-135040714D01*
X127261428Y-135040714D01*
X127356666Y-135088333D01*
X151963333Y-53622142D02*
X151915714Y-53669761D01*
X151772857Y-53717380D01*
X151677619Y-53717380D01*
X151534761Y-53669761D01*
X151439523Y-53574523D01*
X151391904Y-53479285D01*
X151344285Y-53288809D01*
X151344285Y-53145952D01*
X151391904Y-52955476D01*
X151439523Y-52860238D01*
X151534761Y-52765000D01*
X151677619Y-52717380D01*
X151772857Y-52717380D01*
X151915714Y-52765000D01*
X151963333Y-52812619D01*
X152868095Y-52717380D02*
X152391904Y-52717380D01*
X152344285Y-53193571D01*
X152391904Y-53145952D01*
X152487142Y-53098333D01*
X152725238Y-53098333D01*
X152820476Y-53145952D01*
X152868095Y-53193571D01*
X152915714Y-53288809D01*
X152915714Y-53526904D01*
X152868095Y-53622142D01*
X152820476Y-53669761D01*
X152725238Y-53717380D01*
X152487142Y-53717380D01*
X152391904Y-53669761D01*
X152344285Y-53622142D01*
X151106190Y-59550714D02*
X151106190Y-60217380D01*
X150868095Y-59169761D02*
X150630000Y-59884047D01*
X151249047Y-59884047D01*
X151534761Y-59217380D02*
X152201428Y-59217380D01*
X151772857Y-60217380D01*
X153010952Y-59550714D02*
X153010952Y-60217380D01*
X152582380Y-59550714D02*
X152582380Y-60074523D01*
X152630000Y-60169761D01*
X152725238Y-60217380D01*
X152868095Y-60217380D01*
X152963333Y-60169761D01*
X153010952Y-60122142D01*
X153344285Y-59550714D02*
X153725238Y-59550714D01*
X153487142Y-60217380D02*
X153487142Y-59360238D01*
X153534761Y-59265000D01*
X153630000Y-59217380D01*
X153725238Y-59217380D01*
X127468333Y-58777142D02*
X127420714Y-58824761D01*
X127277857Y-58872380D01*
X127182619Y-58872380D01*
X127039761Y-58824761D01*
X126944523Y-58729523D01*
X126896904Y-58634285D01*
X126849285Y-58443809D01*
X126849285Y-58300952D01*
X126896904Y-58110476D01*
X126944523Y-58015238D01*
X127039761Y-57920000D01*
X127182619Y-57872380D01*
X127277857Y-57872380D01*
X127420714Y-57920000D01*
X127468333Y-57967619D01*
X128325476Y-58205714D02*
X128325476Y-58872380D01*
X128087380Y-57824761D02*
X127849285Y-58539047D01*
X128468333Y-58539047D01*
X159686666Y-53197380D02*
X159686666Y-53911666D01*
X159639047Y-54054523D01*
X159543809Y-54149761D01*
X159400952Y-54197380D01*
X159305714Y-54197380D01*
X160686666Y-54197380D02*
X160115238Y-54197380D01*
X160400952Y-54197380D02*
X160400952Y-53197380D01*
X160305714Y-53340238D01*
X160210476Y-53435476D01*
X160115238Y-53483095D01*
X145248333Y-91797142D02*
X145200714Y-91844761D01*
X145057857Y-91892380D01*
X144962619Y-91892380D01*
X144819761Y-91844761D01*
X144724523Y-91749523D01*
X144676904Y-91654285D01*
X144629285Y-91463809D01*
X144629285Y-91320952D01*
X144676904Y-91130476D01*
X144724523Y-91035238D01*
X144819761Y-90940000D01*
X144962619Y-90892380D01*
X145057857Y-90892380D01*
X145200714Y-90940000D01*
X145248333Y-90987619D01*
X145629285Y-90987619D02*
X145676904Y-90940000D01*
X145772142Y-90892380D01*
X146010238Y-90892380D01*
X146105476Y-90940000D01*
X146153095Y-90987619D01*
X146200714Y-91082857D01*
X146200714Y-91178095D01*
X146153095Y-91320952D01*
X145581666Y-91892380D01*
X146200714Y-91892380D01*
X146518333Y-56237142D02*
X146470714Y-56284761D01*
X146327857Y-56332380D01*
X146232619Y-56332380D01*
X146089761Y-56284761D01*
X145994523Y-56189523D01*
X145946904Y-56094285D01*
X145899285Y-55903809D01*
X145899285Y-55760952D01*
X145946904Y-55570476D01*
X145994523Y-55475238D01*
X146089761Y-55380000D01*
X146232619Y-55332380D01*
X146327857Y-55332380D01*
X146470714Y-55380000D01*
X146518333Y-55427619D01*
X147470714Y-56332380D02*
X146899285Y-56332380D01*
X147185000Y-56332380D02*
X147185000Y-55332380D01*
X147089761Y-55475238D01*
X146994523Y-55570476D01*
X146899285Y-55618095D01*
X126833333Y-89892142D02*
X126785714Y-89939761D01*
X126642857Y-89987380D01*
X126547619Y-89987380D01*
X126404761Y-89939761D01*
X126309523Y-89844523D01*
X126261904Y-89749285D01*
X126214285Y-89558809D01*
X126214285Y-89415952D01*
X126261904Y-89225476D01*
X126309523Y-89130238D01*
X126404761Y-89035000D01*
X126547619Y-88987380D01*
X126642857Y-88987380D01*
X126785714Y-89035000D01*
X126833333Y-89082619D01*
X127166666Y-88987380D02*
X127785714Y-88987380D01*
X127452380Y-89368333D01*
X127595238Y-89368333D01*
X127690476Y-89415952D01*
X127738095Y-89463571D01*
X127785714Y-89558809D01*
X127785714Y-89796904D01*
X127738095Y-89892142D01*
X127690476Y-89939761D01*
X127595238Y-89987380D01*
X127309523Y-89987380D01*
X127214285Y-89939761D01*
X127166666Y-89892142D01*
X149098095Y-91527380D02*
X149098095Y-92336904D01*
X149145714Y-92432142D01*
X149193333Y-92479761D01*
X149288571Y-92527380D01*
X149479047Y-92527380D01*
X149574285Y-92479761D01*
X149621904Y-92432142D01*
X149669523Y-92336904D01*
X149669523Y-91527380D01*
X150669523Y-92527380D02*
X150098095Y-92527380D01*
X150383809Y-92527380D02*
X150383809Y-91527380D01*
X150288571Y-91670238D01*
X150193333Y-91765476D01*
X150098095Y-91813095D01*
M02*
